<?xml version="1.0" encoding="utf-8"?>
<!-- Generator: Adobe Illustrator 19.2.1, SVG Export Plug-In . SVG Version: 6.00 Build 0)  -->
<svg version="1.1" id="Layer_1" xmlns="http://www.w3.org/2000/svg" xmlns:xlink="http://www.w3.org/1999/xlink" x="0px" y="0px"
	 viewBox="0 0 80 25" style="enable-background:new 0 0 80 25;" xml:space="preserve">
<style type="text/css">
	.st0{fill:#18F4CE;}
	.st1{fill:#FFFFFF;}
</style>
<g>
	<g>
		<path class="st0" d="M2.8,10.6c0.1-0.1,0.2-0.2,0.3-0.3c0.1-0.2,0.2-0.3,0.3-0.5c0.1-0.2,0.2-0.4,0.2-0.5C3.7,9.1,3.8,9,3.9,8.8
			C3.9,8.7,4,8.6,4.1,8.5C4.2,8.3,4.3,8.2,4.4,8c0.1-0.2,0.2-0.4,0.2-0.5S4.7,7.1,4.7,7C4.6,6.7,4.4,6.5,4.2,6.3
			C4,6,3.9,5.9,3.9,5.7c0-0.2,0.1-0.4,0.3-0.5C4.4,5.1,4.6,5,4.8,5C5,4.9,5.2,4.8,5.5,4.8C5.7,4.7,5.9,4.7,6,4.6
			C6.4,4.4,6.7,4.2,7,4c0.3-0.2,0.5-0.5,0.7-0.7C7.8,3,7.9,2.8,8,2.6c0.1-0.2,0.2-0.4,0.3-0.5c0-0.1,0.1-0.1,0.2-0.2
			c0.1-0.1,0.2-0.1,0.3-0.2c0.1,0,0.3,0.1,0.4,0.1c0.1,0,0.3,0.1,0.4,0.1C9.7,2,9.8,2.1,9.9,2.2c0.1,0.1,0.2,0.3,0.3,0.6
			c0,0,0,0,0,0s0,0,0,0c0,0.1,0,0.2,0,0.3c0,0.1,0,0.2-0.1,0.3S10.1,3.7,10,3.9c0.2,0.2,0.3,0.3,0.5,0.5c0.1,0.2,0.2,0.4,0.2,0.5
			c0,0.1,0,0.3-0.1,0.3c-0.1,0.1-0.2,0.2-0.3,0.2c-0.1,0.1-0.2,0.1-0.3,0.1c-0.1,0-0.2,0-0.2,0c0,0-0.1,0-0.1,0c0,0-0.1,0-0.1,0
			c0,0-0.1,0-0.1,0c0,0-0.1,0-0.1,0c0,0,0,0-0.1,0s0,0-0.1,0c-0.3,0-0.6,0.1-0.9,0.2C8.1,6,7.8,6.2,7.6,6.4C7.4,6.6,7.2,6.9,7,7.1
			C6.8,7.4,6.6,7.7,6.5,7.9c0,0,0,0.1,0,0.1c0,0,0,0,0,0.1C6.4,8.1,6.2,8.2,6.1,8.4C6,8.6,6,8.7,5.9,8.9C5.8,9.1,5.7,9.3,5.6,9.5
			C5.5,9.6,5.4,9.8,5.3,9.9c-0.2,0.5-0.5,1-0.7,1.4c-0.2,0.5-0.4,0.9-0.6,1.3c-0.1,0.4-0.2,0.7-0.4,1c-0.1,0.3-0.3,0.6-0.4,0.7
			c-0.1,0.1-0.2,0.2-0.2,0.4C3,15,2.9,15.2,2.9,15.3c0,0.2-0.1,0.4-0.1,0.5c0,0.2,0,0.3,0,0.3c0,0.2,0,0.2,0.1,0.3
			c0.1,0,0.2,0,0.3,0c0.4-0.3,0.7-0.5,0.9-0.7c0.2-0.2,0.5-0.3,0.6-0.4c0.2-0.1,0.3-0.2,0.4-0.3c0.1-0.1,0.2-0.2,0.3-0.4
			c0,0,0.1-0.1,0.2-0.3c0.1-0.1,0.3-0.3,0.4-0.4c0.1-0.2,0.3-0.3,0.4-0.4c0.1-0.1,0.2-0.2,0.3-0.3c0.2-0.2,0.4-0.3,0.6-0.3
			c0,0,0.1,0,0.1,0s0,0,0,0c0,0,0,0,0,0c0,0,0,0,0,0c0.1,0.2,0.1,0.3,0.1,0.5c0,0.1,0,0.3,0,0.5c-0.1,0.1-0.2,0.3-0.3,0.4
			c-0.1,0.1-0.2,0.3-0.3,0.5c0,0,0,0,0,0c0,0,0,0,0,0.1c0,0.1,0,0.2-0.1,0.4c-0.1,0.1-0.2,0.2-0.3,0.3s-0.2,0.2-0.3,0.3
			c-0.1,0.1-0.2,0.2-0.2,0.3c0,0.1-0.1,0.2-0.2,0.3c-0.2,0.1-0.3,0.3-0.6,0.5c-0.2,0.2-0.4,0.3-0.6,0.4c-0.2,0.1-0.4,0.2-0.5,0.3
			C4.2,17.8,4,17.9,3.7,18c-0.3,0.1-0.6,0.2-0.9,0.2c-0.1,0-0.2,0-0.2-0.1c-0.1,0.1-0.1,0.1-0.2,0.1c-0.1,0-0.3-0.1-0.4-0.2
			c-0.1-0.1-0.3-0.2-0.4-0.4c-0.1-0.2-0.2-0.3-0.3-0.5c-0.1-0.2-0.1-0.3-0.1-0.3c0-0.1,0-0.2-0.1-0.3C1,16.5,1,16.4,1,16.3
			c0-0.1,0-0.1,0.1-0.2c0,0,0.1-0.1,0.1-0.2c0,0,0-0.1,0-0.1c0,0,0,0,0-0.1c0-0.3,0.1-0.6,0.2-0.9s0.2-0.6,0.3-0.9
			c0.1-0.3,0.2-0.6,0.4-1c0.2-0.3,0.3-0.6,0.3-0.8c0-0.2,0-0.3,0.1-0.5c0.1-0.1,0.1-0.3,0.2-0.4c0.1-0.1,0.2-0.3,0.2-0.4
			C2.8,10.9,2.8,10.8,2.8,10.6z M5.6,6.3C5.6,6.3,5.6,6.2,5.6,6.3C5.6,6.2,5.6,6.2,5.6,6.3C5.6,6.2,5.6,6.2,5.6,6.3l0.1-0.2L5.6,6.2
			h0L5.6,6.3l-0.1,0C5.5,6.3,5.5,6.3,5.6,6.3C5.5,6.3,5.5,6.3,5.6,6.3L5.6,6.3z M6.2,6.5L6.2,6.5C6.2,6.6,6.2,6.6,6.2,6.5
			C6.2,6.5,6.2,6.5,6.2,6.5C6.1,6.5,6.1,6.5,6.2,6.5C6.1,6.4,6.1,6.4,6.2,6.5C6.1,6.4,6,6.5,6,6.5c0,0-0.1,0-0.1,0
			c0-0.1,0-0.1-0.1-0.1c-0.1,0-0.1,0-0.1,0c0,0,0,0,0,0.1L5.5,6.4c0,0.1,0,0.2,0,0.3l0.4-0.2l0.1,0.1L6.2,6.5z M5.8,6.1
			C5.8,6.1,5.7,6.1,5.8,6.1c0,0,0,0.1,0,0.1c0,0,0,0.1,0.1,0.1h0c0,0,0,0,0,0c0,0,0,0,0,0C5.9,6.2,5.9,6.2,5.8,6.1
			C5.8,6.2,5.8,6.2,5.8,6.1z M5.9,6.8c0,0,0-0.1,0-0.1L5.7,6.7v0.2c0,0,0,0,0,0C5.8,6.9,5.8,6.9,5.9,6.8L5.9,6.8c0.1,0,0.1,0,0.2,0
			L5.9,6.8C5.9,6.8,5.9,6.8,5.9,6.8z M5.9,5.5L5.9,5.5L5.9,5.5C5.9,5.5,5.9,5.5,5.9,5.5C5.9,5.5,5.9,5.5,5.9,5.5L5.9,5.5z M6.1,5.9
			L6.1,5.9L5.9,5.8C6,5.8,6,5.9,6.1,5.9C6.1,5.9,6.1,5.9,6.1,5.9z M6.2,6.1C6.2,6,6.1,6,6,5.9l0,0c0,0.1,0.1,0.2,0.1,0.2
			C6.1,6.2,6.2,6.1,6.2,6.1C6.2,6.1,6.2,6.1,6.2,6.1z M6.2,5.4L6.2,5.4C6.2,5.5,6.2,5.5,6.2,5.4c0,0.1,0,0.1,0,0.1V5.4z M6.2,5.9
			C6.2,5.9,6.2,5.8,6.2,5.9c0.1-0.1,0.1-0.1,0.1-0.2c0,0,0-0.1,0-0.1c0,0-0.1,0.1-0.1,0.1C6.2,5.7,6.2,5.8,6.2,5.9L6.2,5.9z
			 M6.2,6.3C6.2,6.3,6.3,6.3,6.2,6.3l0.1,0c0,0,0,0,0,0C6.3,6.2,6.3,6.3,6.2,6.3z M6.4,6C6.4,6,6.4,6,6.4,6L6.4,6L6.4,6L6.4,6
			C6.4,6.1,6.4,6.1,6.4,6z M6.5,5.6L6.5,5.6C6.4,5.5,6.4,5.5,6.5,5.6C6.4,5.5,6.4,5.5,6.5,5.6C6.4,5.5,6.4,5.5,6.5,5.6
			c0,0,0,0,0,0.1c0,0.1,0.1,0.1,0.1,0.1c0,0,0,0.1,0,0.2c0,0,0,0,0,0v0l0,0.1c0.1,0,0.1-0.1,0.1-0.1c0,0,0,0,0,0c0,0,0,0,0,0
			c0.1,0,0.1-0.1,0.1-0.2H6.6c0-0.1,0-0.1,0-0.1C6.6,5.7,6.5,5.6,6.5,5.6z M6.8,5.8L6.8,5.8C6.7,5.8,6.7,5.8,6.8,5.8
			C6.7,5.8,6.7,5.8,6.8,5.8L6.8,5.8L6.8,5.8z M6.9,5.1c0,0-0.1,0-0.1,0.1v0.1c0,0,0,0,0,0c0,0,0,0,0-0.1V5.1z M6.9,5.9L6.9,5.9
			c0.1-0.1,0-0.1,0-0.1V5.9z M7.2,5L7,5.1c0,0,0.1,0,0.1,0c0,0,0,0,0.1,0C7.2,5.1,7.2,5.1,7.2,5z M7.5,5.1C7.5,5.1,7.5,5.1,7.5,5.1
			C7.5,5.1,7.5,5.1,7.5,5.1c0.1,0,0.1,0,0.2,0S7.7,5,7.7,5C7.6,4.9,7.6,4.8,7.6,4.7L7.5,4.8L7.4,4.7c0,0.1,0,0.1,0.1,0.1
			c0,0,0.1,0,0.1,0s0.1,0,0.1,0c0,0,0,0.1,0,0.1C7.5,5.1,7.5,5.1,7.5,5.1C7.5,5.1,7.4,5.1,7.5,5.1L7.5,5.1L7.5,5.1z M7.6,5.2
			C7.6,5.2,7.5,5.2,7.6,5.2L7.6,5.2C7.6,5.3,7.6,5.3,7.6,5.2L7.6,5.2z M7.8,4.3L7.8,4.3C7.7,4.3,7.7,4.3,7.8,4.3c-0.1,0-0.1,0-0.1,0
			H7.8z M7.8,4.7C7.8,4.7,7.8,4.7,7.8,4.7L7.8,4.7C7.8,4.8,7.8,4.7,7.8,4.7L7.8,4.7z M7.8,4.6C7.8,4.6,7.8,4.6,7.8,4.6l0-0.2
			C7.8,4.4,7.8,4.5,7.8,4.6L7.8,4.6z M7.9,4.4C7.9,4.4,7.9,4.3,7.9,4.4c0-0.1,0-0.1,0-0.2C7.9,4.2,7.9,4.3,7.9,4.4z M8.2,4.1
			L8.2,4.1c0.1,0.1,0.1,0.1,0.1,0.2c0,0,0,0.1-0.1,0.1c0,0-0.1-0.1-0.1-0.1c0,0-0.1,0-0.1,0.1c0.1,0,0.2,0,0.2,0s0,0,0.1,0L8.2,4.7
			L8.1,4.5c0,0,0,0,0,0s0,0,0,0c0,0,0,0.1,0,0.1c0,0,0.1,0.1,0.1,0.1c0,0,0.1,0.1,0.1,0.1l0.1-0.2c0.1,0,0.1,0,0.2,0.1
			c0-0.1,0-0.1,0-0.2H8.4l0.1-0.3c-0.1,0-0.1-0.1-0.1-0.1C8.3,4.2,8.2,4.1,8.2,4.1L8.2,4.1z M8.1,5L8.1,5C8.1,4.9,8.1,4.9,8.1,5
			L8.1,5C8,5,8,5,8.1,5C8,5,8,5,8.1,5L8.1,5z M8.1,4C8.1,4,8.1,4,8.1,4c0-0.1,0-0.1,0-0.1h0C8.1,4,8.1,4,8.1,4L8.1,4z M8.4,3.7
			C8.3,3.8,8.3,3.8,8.4,3.7c0,0.1-0.1,0.1-0.1,0.1c0,0,0,0,0,0c0,0,0,0.1,0,0.2c0,0,0-0.1,0-0.1V3.7z M8.4,3.6
			C8.4,3.6,8.4,3.6,8.4,3.6c-0.1,0,0,0.1,0,0.1C8.4,3.7,8.4,3.7,8.4,3.6z M8.5,4.3c0.1,0,0.1,0,0.2-0.1L9,4.4c0,0,0,0,0,0
			c0-0.1-0.1-0.2-0.1-0.2C8.9,4,8.7,4,8.6,4c0,0.1,0,0.1-0.1,0.2C8.5,4.2,8.5,4.2,8.5,4.3C8.5,4.3,8.5,4.3,8.5,4.3
			C8.5,4.3,8.5,4.3,8.5,4.3z M8.5,5L8.5,5C8.5,4.9,8.5,4.9,8.5,5c0-0.1,0-0.1,0-0.1V5z M8.6,4.6c0,0,0,0,0-0.1V4.3
			C8.5,4.4,8.5,4.4,8.5,4.5C8.5,4.5,8.5,4.6,8.6,4.6L8.6,4.6C8.5,4.6,8.5,4.6,8.6,4.6C8.5,4.6,8.5,4.6,8.6,4.6z M8.6,3.7
			c0,0,0.1,0.1,0.1,0.1c0,0,0.1,0,0.2,0c0,0,0,0,0,0.1c0,0,0,0.1,0,0.1c0,0,0.1,0,0.1,0C8.9,3.8,8.9,3.7,8.8,3.7
			c0,0-0.1-0.1-0.2-0.1V3.7L8.6,3.7C8.6,3.7,8.6,3.7,8.6,3.7C8.6,3.7,8.6,3.7,8.6,3.7z M8.6,4c0,0,0.1,0,0.1,0c0,0,0,0,0.1,0
			C8.7,4.1,8.7,4.1,8.6,4C8.6,4.1,8.6,4.1,8.6,4C8.6,4.1,8.6,4.1,8.6,4z M8.8,4.6L8.8,4.6C8.8,4.6,8.8,4.6,8.8,4.6
			C8.9,4.6,8.9,4.6,8.8,4.6c0.1,0,0.2,0,0.2,0s0.1,0,0.1-0.1l0,0v0c0,0,0-0.1,0-0.1L9.1,4.4v0c0,0-0.1,0-0.2,0c0,0-0.1-0.1-0.1-0.1
			s0,0-0.1,0c-0.1,0-0.1,0-0.1,0.1c0,0,0,0,0,0C8.8,4.5,8.8,4.5,8.8,4.6z M8.8,4.5C8.9,4.5,8.9,4.5,8.8,4.5C8.9,4.5,8.9,4.6,8.8,4.5
			C8.9,4.6,8.9,4.6,8.8,4.5C8.8,4.6,8.8,4.6,8.8,4.5z M9.1,4.3C9.1,4.3,9.1,4.3,9.1,4.3c0-0.1,0-0.1,0-0.1C9.1,4.2,9.1,4.2,9.1,4.3
			L9.1,4.3z"/>
	</g>
	<g>
		<path class="st0" d="M6.1,15.1c0.1-0.1,0.1-0.3,0.2-0.4c0.1-0.2,0.1-0.4,0.1-0.5s0.1-0.4,0.1-0.5s0-0.3,0-0.4c0-0.1,0-0.3,0.1-0.4
			c0.1-0.2,0.1-0.4,0.2-0.5c0.1-0.2,0.1-0.3,0.2-0.5c0.1-0.1,0.1-0.2,0.1-0.2c0-0.1,0.1-0.2,0.1-0.3s0-0.2,0.1-0.3
			c0-0.1,0.1-0.2,0.2-0.4c0.1-0.1,0.1-0.2,0.1-0.4C7.8,9.9,7.9,9.4,8,9s0.3-0.8,0.5-1.2c0.1-0.2,0.2-0.4,0.3-0.6
			C8.8,7,9,6.9,9.3,6.8C9.5,6.9,9.7,7,9.9,7.1c0.2,0.1,0.3,0.4,0.4,0.7c0,0.1-0.1,0.3-0.1,0.4c0,0.1-0.1,0.2-0.1,0.3
			c0,0,0.1,0.1,0.2,0.2c0.2-0.2,0.4-0.4,0.5-0.6c0.2-0.2,0.4-0.3,0.7-0.4c0,0.1,0.1,0.1,0.2,0.1c0,0,0.1,0,0.1,0c0,0,0.1,0,0.1,0
			c0.1,0,0.1,0,0.2,0.1c0.1,0.1,0.2,0.2,0.3,0.3c0.1,0.1,0.2,0.2,0.4,0.3c0.1,0.1,0.2,0.2,0.3,0.3c0.1,0.1,0.1,0.1,0.2,0.1
			c0.1,0,0.1,0.1,0.2,0.1s0.1,0.1,0.2,0.2s0.1,0.2,0.1,0.3l-0.4,0.3c-0.2,0-0.4-0.1-0.6-0.2c-0.2-0.1-0.4-0.2-0.7-0.2
			c-0.2,0-0.4,0.1-0.6,0.3c-0.2,0.2-0.3,0.3-0.4,0.5c-0.1,0.2-0.2,0.3-0.3,0.5c-0.1,0.1-0.1,0.2-0.1,0.2c-0.2,0.2-0.3,0.3-0.5,0.6
			c-0.1,0.2-0.3,0.4-0.4,0.7c-0.1,0.2-0.2,0.5-0.3,0.7c-0.1,0.2-0.2,0.4-0.2,0.6c-0.2,0.4-0.4,0.7-0.6,1c-0.2,0.3-0.4,0.7-0.5,1
			c-0.1,0.1-0.2,0.3-0.2,0.5c-0.1,0.2-0.2,0.3-0.2,0.5c-0.1,0.1-0.1,0.3-0.2,0.4c-0.1,0.1-0.1,0.2-0.2,0.2C7.1,17,7.1,17,7,17
			c-0.1,0-0.2,0.1-0.3,0.1c-0.2-0.1-0.3-0.2-0.4-0.3s-0.2-0.2-0.2-0.2C6,16.5,6,16.4,6,16.3s0-0.2,0-0.3c0-0.2,0-0.3,0-0.4
			C6.1,15.4,6.1,15.3,6.1,15.1z M7.6,12.7C7.6,12.7,7.6,12.7,7.6,12.7c0.1,0,0.1-0.1,0.1-0.1C7.7,12.7,7.6,12.7,7.6,12.7
			C7.6,12.6,7.6,12.7,7.6,12.7z M7.8,11.9L7.8,11.9c-0.1,0,0,0.1,0,0.1C7.7,12,7.8,12,7.8,11.9L7.8,11.9z M7.9,12.8
			C7.9,12.8,7.9,12.8,7.9,12.8C7.9,12.8,7.9,12.7,7.9,12.8L7.9,12.8L7.9,12.8C7.8,12.8,7.9,12.8,7.9,12.8z M7.8,13.3L7.8,13.3
			C7.8,13.4,7.8,13.4,7.8,13.3c0,0.1,0,0.1,0,0.1V13.3z M8,11.4C8,11.4,8.1,11.5,8,11.4c0.1,0.1,0.1,0.1,0,0.1l0.2,0.1
			c0-0.1,0-0.1,0-0.1H8.1C8.1,11.5,8.1,11.5,8,11.4c0.1,0,0.2,0,0.2,0c0.1,0,0.1,0,0.1-0.1c-0.1,0-0.1,0-0.1,0
			C8.1,11.4,8.1,11.4,8,11.4C8.1,11.4,8.1,11.4,8,11.4C8,11.4,8,11.4,8,11.4L8,11.4L8,11.4L8,11.4z M7.9,13.2
			C8,13.2,8,13.2,7.9,13.2C8,13.2,8,13.2,7.9,13.2c0.1,0,0.1,0,0.1-0.2L7.9,13.2z M8.3,12L8.3,12C8.3,12,8.3,12,8.3,12
			c0,0.1,0,0.1,0,0.2c0,0,0,0-0.1,0c0,0,0,0,0,0c0,0-0.1-0.1-0.1-0.2C8.1,12,8,12,8,12C8,12,8,12,8.1,12.1s0,0,0.1,0.1l0.1,0.1
			c0.1-0.1,0.1-0.1,0.2-0.1c0.1,0,0.1,0,0.1-0.2h0c0,0,0,0,0,0c0,0,0,0,0,0l0,0c0,0,0.1-0.1,0.1-0.1c0,0,0-0.1,0.1-0.1
			c0,0-0.1,0-0.2,0.1S8.4,11.9,8.3,12L8.3,12L8.3,12L8.3,12C8.3,12,8.3,12,8.3,12C8.3,11.9,8.3,11.9,8.3,12L8.3,12z M8,13
			C8,13,8.1,12.9,8,13l0-0.1l0,0C8,12.8,8,12.8,8,13L8,13z M8.2,13L8.2,13C8.2,13,8.2,13,8.2,13c0,0.1,0,0.1,0,0.1V13z M8.4,11.7
			c-0.1,0-0.1,0-0.1,0c0,0,0,0-0.1,0c0,0,0,0.1,0.1,0.1C8.3,11.8,8.3,11.8,8.4,11.7C8.4,11.8,8.4,11.8,8.4,11.7z M8.3,12.3
			C8.3,12.4,8.3,12.4,8.3,12.3c-0.1,0.1-0.1,0.1-0.1,0.1s0,0,0.1,0V12.3z M8.5,12.7L8.5,12.7C8.5,12.7,8.5,12.7,8.5,12.7
			C8.5,12.6,8.5,12.6,8.5,12.7c-0.1-0.1-0.1-0.1-0.1-0.1c0,0,0,0-0.1,0l0,0c0,0,0,0,0.1,0C8.4,12.7,8.4,12.7,8.5,12.7
			C8.5,12.7,8.5,12.7,8.5,12.7z M8.3,10.9c0,0.1,0,0.2,0,0.2c0,0,0,0,0,0C8.4,11,8.4,10.9,8.3,10.9z M8.4,10.3L8.4,10.3
			c0,0.1,0,0.1,0,0.1V10.3z M8.4,11.3C8.4,11.3,8.4,11.3,8.4,11.3C8.4,11.3,8.4,11.3,8.4,11.3C8.4,11.3,8.5,11.3,8.4,11.3
			C8.5,11.2,8.5,11.2,8.4,11.3L8.4,11.3z M8.5,12.7c0,0.1,0,0.1,0,0.2c0,0,0,0.1,0,0.1c0.1,0,0.2,0,0.3,0c0,0-0.1-0.1-0.1-0.1
			S8.6,12.8,8.5,12.7z M9.7,9.1C9.7,9.1,9.8,9.1,9.7,9.1c0.1,0.2,0.1,0.2,0.1,0.2l0.1,0.1C9.9,9.5,9.8,9.5,9.7,9.5c0,0-0.1,0-0.1,0
			S9.5,9.5,9.5,9.4c0,0,0-0.1,0-0.1c0,0-0.1,0-0.1,0s-0.1,0-0.2,0h0l-0.1,0l0.1,0.1c0,0,0,0,0,0c0,0,0,0,0.1,0c0,0,0,0,0,0.1
			c0,0,0,0,0,0.1l0.1,0.1c-0.1,0-0.1,0-0.2,0c0,0,0,0.1,0,0.1c0,0.1,0,0.1,0,0.2H9.1c0,0,0,0,0,0c0,0,0-0.1,0-0.1c0,0,0,0,0-0.1
			c0,0,0-0.1-0.1-0.1S8.9,9.5,8.9,9.4c0,0,0,0.1,0,0.1c0,0.1,0,0.1,0.1,0.1S9,9.7,9,9.8c-0.1,0-0.1,0-0.1,0c0,0,0,0-0.1-0.1v0.1
			c0,0-0.1,0-0.1,0c0,0,0,0,0,0.1c0,0,0.1,0,0.1,0c0,0,0.1,0,0.1,0C8.9,9.9,9,9.9,9,10s0,0.1,0,0.2c-0.1,0-0.1,0-0.1-0.1
			c0-0.1,0-0.1-0.1-0.1c0,0-0.1,0-0.1,0c0.2,0,0.2,0,0.2,0.1c0,0.1,0,0.1,0.1,0.1c0,0,0,0,0,0s0,0,0,0c0,0,0,0.1,0.1,0.1l-0.2,0.3v0
			l-0.1,0.1l0.2,0.1l-0.2,0.1c0,0,0,0,0,0c0,0,0,0,0,0c0,0,0,0,0,0h0l0,0.1l-0.1,0.2L8.6,11l-0.1,0.2c0,0,0.1,0.1,0.1,0.1
			c0,0,0.1,0,0.1,0.1l-0.2,0.1l0.2,0.1v-0.2c0,0,0.1,0.1,0.1,0.1c0,0,0.1,0,0.2,0c0,0,0.1-0.1,0.1-0.1c0,0,0,0,0-0.1
			c0,0,0-0.1,0-0.2l-0.2-0.2c0.1,0,0.1-0.1,0.2-0.1l-0.1-0.1L9,10.7l-0.2-0.1C8.9,10.5,9,10.5,9,10.4s0.1-0.1,0.2-0.1
			c0,0-0.1,0-0.1,0s-0.1,0-0.1,0c0-0.1,0-0.1,0-0.2c0,0,0.1,0,0.2-0.1c0,0,0,0.1,0,0.1c0,0,0,0.1,0,0.1l0.1,0.1l0.2-0.1
			c0,0,0.1,0.1,0.1,0.1c0,0,0.1,0,0.1,0c0,0,0.1,0,0.1,0l-0.1-0.2c-0.1,0-0.1,0-0.1-0.1c0,0,0-0.1,0-0.1c0,0,0.1,0,0.1,0
			c0,0,0.1,0,0.1,0.1h0.1c0,0,0,0,0,0c0,0,0,0,0,0c0,0,0-0.1,0.1-0.1c0,0,0,0,0.1,0c0,0-0.1-0.1-0.1-0.1c0,0,0-0.1,0-0.1L9.8,9.9
			L9.9,10c0,0-0.1,0-0.1,0c0,0,0,0,0-0.1H9.8c-0.1,0-0.1,0-0.1,0c0,0,0-0.1-0.1-0.1c0.1,0,0.1-0.1,0.1-0.1c0,0,0,0,0.1-0.1
			c0,0,0,0.1,0,0.1c0,0,0,0,0.1,0c0,0,0-0.1,0-0.1c0,0,0,0,0-0.1V9.5c0.1,0,0.1,0,0.2-0.1c0-0.1,0.1-0.1,0.1-0.1c0,0,0,0,0,0
			c0,0,0,0.1-0.1,0.1c0-0.1,0-0.2,0-0.2C9.9,9.1,9.8,9.1,9.7,9.1C9.8,9,9.8,9,9.8,8.9s0-0.1,0.1-0.1c0,0,0,0,0,0s0,0-0.1-0.1
			c0,0.1,0,0.2,0,0.2S9.7,9,9.7,9.1z M8.5,9.4v0.3L8.5,9.8l0,0c0,0,0.1-0.1,0.1-0.1s0.1,0,0.1-0.1L8.5,9.4z M8.7,12.5L8.7,12.5
			L8.7,12.5c0-0.1-0.1-0.1-0.1-0.1c0,0,0,0-0.1-0.1l0,0c0,0,0.1,0,0.1,0l-0.1,0.2c0,0,0.1,0,0.1,0C8.6,12.5,8.6,12.5,8.7,12.5
			L8.7,12.5z M8.5,11.6C8.5,11.6,8.5,11.6,8.5,11.6C8.6,11.6,8.6,11.7,8.5,11.6c0.1,0.1,0.1,0.1,0.1,0.1c0,0,0,0,0,0L8.5,11.6z
			 M8.6,10.4C8.6,10.4,8.6,10.5,8.6,10.4c0,0.1,0,0.1,0,0.1C8.6,10.6,8.6,10.5,8.6,10.4z M8.7,12C8.7,12,8.7,12,8.7,12L8.7,12
			C8.6,12,8.6,12,8.6,12c0,0,0,0,0,0L8.7,12z M8.8,11.7C8.8,11.6,8.8,11.6,8.8,11.7L8.8,11.7c-0.1,0-0.1,0-0.2,0c0,0,0,0,0,0.1
			C8.7,11.7,8.8,11.7,8.8,11.7z M8.8,11.2C8.8,11.2,8.8,11.2,8.8,11.2c0.1,0,0.1,0,0.1,0L8.8,11.2L8.8,11.2z M8.8,11.7
			C8.9,11.7,8.9,11.7,8.8,11.7c0.1,0,0.1,0,0.1,0c0,0,0,0,0,0c0,0,0,0,0,0C8.9,11.6,8.9,11.6,8.8,11.7C8.9,11.6,8.9,11.7,8.8,11.7z
			 M9.2,11.1c0,0,0.1-0.1,0.2-0.2H9.2c0-0.1,0-0.1,0.1-0.1s0.1,0,0.1,0c0,0,0,0,0.1-0.1s0-0.2,0-0.3c-0.1,0-0.1,0-0.1,0.1
			c0,0.1,0,0.1-0.1,0.1v-0.2c0,0-0.1,0.1-0.1,0.1c0,0.1-0.1,0.1-0.1,0.2S9,10.9,9,11v0.1C9,11.1,9.1,11.1,9.2,11.1
			C9.1,11.1,9.1,11.2,9.2,11.1C9.1,11.2,9.1,11.2,9.2,11.1z M9,9.5C9.1,9.5,9.1,9.6,9,9.5C9.1,9.6,9.1,9.6,9,9.5
			c0.1,0.1,0.1,0.1,0.1,0C9.1,9.5,9.1,9.5,9,9.5z M9.2,11.1C9.1,11.1,9.1,11.1,9.2,11.1L9.1,11c0.1,0,0.1,0,0.1,0.1
			C9.2,11.1,9.2,11.1,9.2,11.1z M9.2,10.7h0.1l-0.1,0.2V10.7z M9.3,8.7c0,0,0,0.1,0,0.2C9.3,8.9,9.3,8.8,9.3,8.7z M9.4,8.6
			c0,0,0,0.1,0,0.2c0,0.1,0,0.2-0.1,0.2c0,0,0.1,0.1,0.1,0.1s0,0.1,0.1,0.1c0,0,0-0.1,0-0.1s0-0.1,0-0.1h0l0.1-0.1
			c0,0-0.1-0.1-0.1-0.1C9.4,8.7,9.4,8.7,9.4,8.6z M9.5,9.8c0,0.1,0,0.1,0,0.1c0,0,0.1,0,0.1,0c0,0-0.1,0.1-0.1,0.1
			c0,0-0.1,0.1-0.1,0.1l-0.1-0.1c0,0,0-0.1,0-0.1c0,0,0-0.1,0-0.1C9.3,9.9,9.4,9.9,9.5,9.8C9.4,9.8,9.4,9.8,9.5,9.8z M9.5,9
			C9.5,9,9.4,9.1,9.5,9C9.4,9,9.4,9,9.5,9C9.4,9,9.4,9,9.5,9z M9.4,9.6C9.4,9.6,9.5,9.6,9.4,9.6c0.1,0.1,0.1,0.1,0.2,0.1
			c0,0,0.1,0,0.1,0.1L9.5,9.8L9.4,9.6L9.4,9.6z M9.4,11.3L9.4,11.3c0.1-0.1,0-0.1,0-0.1V11.3z M10,10C9.9,10,9.9,10,10,10
			C10,10,10,10,10,10z M10.3,9.1c-0.1,0-0.2,0-0.2,0v0C10.1,9.1,10.2,9.1,10.3,9.1C10.3,9.1,10.3,9.1,10.3,9.1z M10.2,9.5L10.2,9.5
			l-0.1,0c0,0,0,0,0,0C10.1,9.5,10.2,9.5,10.2,9.5z M10.2,9.2L10.2,9.2C10.2,9.2,10.1,9.2,10.2,9.2L10.2,9.2
			C10.2,9.3,10.2,9.3,10.2,9.2z M10.3,9.8C10.2,9.8,10.2,9.9,10.3,9.8l0,0.2C10.3,10,10.3,10,10.3,9.8L10.3,9.8z"/>
	</g>
	<g>
		<path class="st0" d="M14.5,7.4h0.6c0.4,0.2,0.5,0.6,0.5,1c0,0.2,0,0.3-0.1,0.5c-0.1,0.1-0.1,0.3-0.2,0.4c-0.1,0.1-0.1,0.2-0.2,0.4
			S15,9.8,15,10c-0.4,0.7-0.7,1.4-1,2.2c-0.3,0.7-0.5,1.6-0.7,2.5c0.1,0.1,0.2,0.1,0.3,0.1c0.1,0,0.3-0.1,0.4-0.2s0.3-0.3,0.4-0.5
			c0.1-0.2,0.3-0.4,0.4-0.7c0.1-0.2,0.3-0.4,0.3-0.6l0.5,0.4c0,0.1-0.1,0.1-0.1,0.1c0,0,0,0,0,0.1c0,0.2,0,0.3-0.1,0.5
			s-0.1,0.3-0.2,0.5c-0.1,0.2-0.2,0.3-0.3,0.5s-0.2,0.3-0.2,0.4c-0.1,0.2-0.3,0.4-0.4,0.7c-0.1,0.3-0.3,0.5-0.4,0.7
			c-0.2,0.2-0.3,0.4-0.5,0.5s-0.4,0.2-0.6,0.2c-0.2,0-0.4-0.1-0.5-0.2c-0.1-0.1-0.3-0.3-0.4-0.5c-0.1-0.2-0.2-0.4-0.3-0.7
			c0-0.4,0-0.8,0.1-1.2c0.1-0.4,0.1-0.8,0.2-1.2c0-0.3,0.1-0.6,0.2-0.9c0.1-0.3,0.2-0.6,0.3-0.9c0.1-0.3,0.2-0.7,0.4-1
			c0.2-0.4,0.3-0.8,0.5-1.2c0-0.1,0.1-0.2,0.2-0.3c0.1-0.1,0.1-0.2,0.2-0.3c0.1-0.3,0.2-0.6,0.4-0.9C14.2,7.8,14.3,7.6,14.5,7.4z
			 M17.2,2.4c0,0,0.1,0,0.2,0c0.1,0,0.2,0,0.4,0.1c0.1,0.1,0.2,0.1,0.3,0.3c0.1,0.1,0.1,0.3,0.1,0.5c0,0.1,0,0.3-0.1,0.4
			C18.1,3.9,18,4,17.9,4.2c-0.1,0.1-0.2,0.3-0.3,0.4c-0.1,0.1-0.2,0.2-0.3,0.3c-0.1,0.2-0.2,0.3-0.4,0.4c-0.1,0.1-0.3,0.2-0.6,0.2
			c0-0.1-0.1-0.2-0.2-0.3c-0.1-0.1-0.1-0.2-0.1-0.3c0-0.5,0.1-0.9,0.3-1.2S16.9,2.9,17.2,2.4z"/>
	</g>
	<g>
		<path class="st0" d="M14,22.1c-0.1,0.3-0.2,0.6-0.3,0.9s-0.2,0.6-0.4,1c0,0.2,0,0.5-0.1,0.7c-0.1,0.2-0.4,0.3-0.8,0.3
			c-0.2-0.2-0.3-0.4-0.5-0.7c-0.2-0.3-0.2-0.6-0.2-0.9c0-0.4,0-0.7,0.1-1c0.1-0.3,0.1-0.6,0.2-0.8c0.1-0.3,0.2-0.5,0.3-0.7
			c0.1-0.2,0.1-0.4,0.1-0.5c0.1-0.4,0.2-0.8,0.4-1.2c0.2-0.4,0.2-0.8,0.2-1.1c0.3-0.5,0.6-1.1,0.7-1.7c0.2-0.6,0.4-1.2,0.6-1.8
			c0-0.1,0.1-0.2,0.1-0.2c0-0.1,0-0.2,0-0.2c0-0.1,0-0.2,0.1-0.3c0.1-0.1,0.1-0.3,0.2-0.4c0.1-0.1,0.2-0.3,0.2-0.4
			c0.1-0.2,0.1-0.3,0.2-0.4c0.1-0.4,0.2-0.9,0.4-1.4c0.2-0.5,0.3-0.9,0.5-1.3c0.1-0.2,0.2-0.5,0.3-0.8c0.1-0.3,0.2-0.6,0.4-1
			c0-0.2,0-0.4,0.1-0.7c0.1-0.3,0.2-0.5,0.4-0.7c0.2,0,0.4,0.1,0.6,0.1c0.2,0.1,0.3,0.2,0.5,0.3c0,0.2,0.1,0.4,0.1,0.5
			c0,0.1,0,0.2,0,0.3c0,0.1,0,0.2,0,0.2c0,0.1,0,0.1-0.1,0.3c0,0,0.1,0.1,0.1,0.1c0,0.1,0.1,0.1,0.1,0.1c0.4-0.2,0.8-0.5,1.1-0.9
			c0.4-0.4,0.7-0.8,1.1-1.2l0.8-0.2c0.2,0,0.4,0.1,0.6,0.1c0.2,0,0.3,0.1,0.5,0.2c0.1,0.1,0.3,0.3,0.4,0.5c0.1,0.2,0.1,0.4,0.1,0.8
			c0,0.1,0,0.1-0.1,0.2S23,8.2,23,8.3c0,0,0,0,0,0.1s0,0,0,0.1c0,0.1,0,0.1,0,0.2c0,0,0,0.1,0,0.2c0,0.1,0,0.2,0,0.3
			c0,0.1,0,0.2,0,0.4c0,0.1,0,0.1,0,0.2s0,0.1-0.1,0.2c0,0,0,0.1,0,0.1c0,0,0,0.1,0,0.1c0,0.1,0,0.1,0,0.2c0,0.1,0,0.1,0,0.2
			c0,0,0,0.1,0,0.1s0,0.1,0,0.2c0,0.4-0.1,0.9-0.2,1.3s-0.3,0.8-0.4,1.1c-0.2,0.3-0.3,0.6-0.4,0.8c-0.1,0.2-0.2,0.3-0.2,0.4
			c-0.4,0.4-0.7,0.7-1,1.1c-0.3,0.4-0.7,0.7-1.1,0.9c-0.1,0-0.2,0.1-0.4,0.2c-0.2,0.1-0.3,0.2-0.5,0.2c0,0-0.1,0-0.1,0
			c-0.1,0-0.1,0-0.2,0c-0.2,0-0.3,0-0.4,0.1c-0.1,0-0.1-0.1-0.2-0.1s-0.1,0-0.2,0c-0.1,0-0.2,0-0.4-0.1c-0.1-0.1-0.3-0.2-0.4-0.2
			c-0.3,0-0.5,0-0.6,0.1c-0.1,0.1-0.2,0.2-0.3,0.3c0,0.1-0.1,0.2-0.1,0.4s0,0.2-0.1,0.4c-0.1,0.3-0.3,0.6-0.4,0.8
			c-0.1,0.2-0.2,0.5-0.3,0.8c-0.1,0.3-0.2,0.6-0.3,0.9c-0.1,0.3-0.2,0.6-0.4,0.8c-0.1,0.3-0.2,0.5-0.3,0.7C14,21.7,14,21.9,14,22.1z
			 M16.4,15.3c0.1,0.1,0.2,0.1,0.3,0.2c0.1,0,0.2,0.1,0.4,0.1c0.2,0,0.5-0.1,0.8-0.4c0.4-0.2,0.7-0.5,1.1-0.9c0.4-0.4,0.7-0.8,1-1.2
			c0.3-0.4,0.5-0.9,0.6-1.2c0-0.2,0.1-0.3,0.1-0.5s0.1-0.3,0.2-0.4c0-0.1,0-0.2,0-0.2c0-0.2,0-0.4,0.1-0.6S21,9.6,21,9.3
			c0,0,0-0.1,0-0.1c0,0,0-0.1,0-0.1c0,0,0-0.1,0-0.1s0-0.1,0-0.1C21,8.7,21,8.7,21,8.6c0-0.1-0.1-0.2-0.2-0.2
			c-0.3,0.1-0.5,0.3-0.6,0.5s-0.3,0.4-0.5,0.5c-0.1,0.1-0.3,0.2-0.5,0.4s-0.4,0.4-0.6,0.6c-0.2,0.2-0.3,0.4-0.5,0.7
			c-0.1,0.2-0.2,0.3-0.3,0.4c-0.1,0.2-0.2,0.4-0.4,0.6c-0.2,0.2-0.3,0.4-0.5,0.6c-0.2,0.2-0.3,0.4-0.4,0.6s-0.2,0.4-0.2,0.6
			c0,0.1,0,0.3,0,0.4c0,0.1,0,0.3,0,0.4c0,0.1,0,0.2,0,0.3C16.4,15.1,16.4,15.2,16.4,15.3z M16.9,10.6
			C16.9,10.6,16.9,10.5,16.9,10.6c0.1-0.1,0.1-0.1,0.1-0.1s0,0,0,0L16.9,10.6z M17.2,10.2c0,0-0.1-0.1-0.1-0.1c0,0,0-0.1-0.1-0.1
			c0,0-0.1,0-0.1,0C17,10.1,17.1,10.2,17.2,10.2C17.2,10.3,17.2,10.3,17.2,10.2c0.1,0.1,0.1,0.1,0.1,0.1c0,0,0,0,0,0c0,0,0,0,0,0
			s0,0,0,0l0.2-0.2l-0.2-0.1C17.3,10.1,17.3,10.1,17.2,10.2z M17,9.9L17,9.9c0.1-0.1,0.1-0.1,0.1-0.2L17,9.9z M17.4,10L17.4,10
			C17.4,9.9,17.3,9.9,17.4,10c-0.1-0.1-0.1-0.1-0.1,0C17.3,9.9,17.3,10,17.4,10z M17.6,9.3c0-0.1,0-0.1-0.1-0.1c0,0.1,0,0.1,0,0.1
			s0,0-0.1,0s-0.1,0-0.1,0s0,0,0,0.1c0,0,0.1,0.1,0.2,0.1C17.6,9.4,17.6,9.4,17.6,9.3L17.6,9.3L17.6,9.3z M17.7,9.5
			C17.7,9.5,17.7,9.5,17.7,9.5C17.7,9.6,17.7,9.6,17.7,9.5c-0.1,0.1-0.2,0.1-0.2,0.1l-0.1-0.1c0,0.1,0,0.2,0,0.2c0,0,0,0,0,0
			l-0.1,0.1c0,0,0,0,0,0c0,0,0,0,0.1-0.1c0,0,0,0,0.1,0s0.1,0,0.1,0.1C17.6,9.7,17.6,9.6,17.7,9.5C17.7,9.6,17.7,9.6,17.7,9.5z
			 M17.5,10.6L17.5,10.6c0.1,0,0.1,0,0.1-0.1C17.5,10.4,17.5,10.5,17.5,10.6L17.5,10.6z M17.7,9.9L17.7,9.9
			C17.7,9.9,17.7,9.9,17.7,9.9c0,0.1,0,0.1,0,0.2c0,0,0,0.1,0,0.1c0,0,0.1-0.1,0.2-0.1c0,0-0.1,0-0.1,0S17.7,10,17.7,9.9z M17.7,8.9
			l0.1,0.2C17.8,9,17.8,9,17.7,8.9C17.8,9,17.8,8.9,17.7,8.9L17.7,8.9z M17.7,9.9C17.7,9.9,17.7,9.9,17.7,9.9L17.7,9.9
			C17.8,9.8,17.8,9.8,17.7,9.9C17.7,9.8,17.7,9.8,17.7,9.9C17.7,9.9,17.7,9.9,17.7,9.9z M18,9.4h-0.1l-0.1-0.1c0,0,0,0,0,0
			c0,0,0,0.1,0,0c0,0,0,0,0,0.1C17.9,9.4,17.9,9.4,18,9.4C18,9.4,18,9.4,18,9.4z M17.9,9.5C17.8,9.4,17.8,9.4,17.9,9.5l0,0.2
			c0,0,0,0,0-0.1C17.9,9.6,17.9,9.6,17.9,9.5z"/>
	</g>
	<g>
		<path class="st0" d="M22.9,22.1c-0.1,0.3-0.2,0.6-0.3,0.9s-0.2,0.6-0.4,1c0,0.2,0,0.5-0.1,0.7c-0.1,0.2-0.4,0.3-0.8,0.3
			c-0.2-0.2-0.3-0.4-0.5-0.7c-0.2-0.3-0.2-0.6-0.2-0.9c0-0.4,0-0.7,0.1-1c0.1-0.3,0.1-0.6,0.2-0.8c0.1-0.3,0.2-0.5,0.3-0.7
			c0.1-0.2,0.1-0.4,0.1-0.5c0.1-0.4,0.2-0.8,0.4-1.2c0.2-0.4,0.2-0.8,0.2-1.1c0.3-0.5,0.6-1.1,0.7-1.7c0.2-0.6,0.4-1.2,0.6-1.8
			c0-0.1,0.1-0.2,0.1-0.2c0-0.1,0-0.2,0-0.2c0-0.1,0-0.2,0.1-0.3c0.1-0.1,0.1-0.3,0.2-0.4c0.1-0.1,0.2-0.3,0.2-0.4
			c0.1-0.2,0.1-0.3,0.2-0.4c0.1-0.4,0.2-0.9,0.4-1.4c0.2-0.5,0.3-0.9,0.5-1.3c0.1-0.2,0.2-0.5,0.3-0.8c0.1-0.3,0.2-0.6,0.4-1
			c0-0.2,0-0.4,0.1-0.7C25.9,7,26,6.8,26.2,6.6c0.2,0,0.4,0.1,0.6,0.1c0.2,0.1,0.3,0.2,0.5,0.3c0,0.2,0.1,0.4,0.1,0.5
			c0,0.1,0,0.2,0,0.3c0,0.1,0,0.2,0,0.2c0,0.1,0,0.1-0.1,0.3c0,0,0.1,0.1,0.1,0.1c0,0.1,0.1,0.1,0.1,0.1c0.4-0.2,0.8-0.5,1.1-0.9
			c0.4-0.4,0.7-0.8,1.1-1.2l0.8-0.2c0.2,0,0.4,0.1,0.6,0.1c0.2,0,0.3,0.1,0.5,0.2c0.1,0.1,0.3,0.3,0.4,0.5c0.1,0.2,0.1,0.4,0.1,0.8
			c0,0.1,0,0.1-0.1,0.2S32,8.2,32,8.3c0,0,0,0,0,0.1s0,0,0,0.1c0,0.1,0,0.1,0,0.2c0,0,0,0.1,0,0.2c0,0.1,0,0.2,0,0.3
			c0,0.1,0,0.2,0,0.4c0,0.1,0,0.1,0,0.2s0,0.1-0.1,0.2c0,0,0,0.1,0,0.1c0,0,0,0.1,0,0.1c0,0.1,0,0.1,0,0.2c0,0.1,0,0.1,0,0.2
			c0,0,0,0.1,0,0.1s0,0.1,0,0.2c0,0.4-0.1,0.9-0.2,1.3s-0.3,0.8-0.4,1.1c-0.2,0.3-0.3,0.6-0.4,0.8c-0.1,0.2-0.2,0.3-0.2,0.4
			c-0.4,0.4-0.7,0.7-1,1.1c-0.3,0.4-0.7,0.7-1.1,0.9c-0.1,0-0.2,0.1-0.4,0.2c-0.2,0.1-0.3,0.2-0.5,0.2c0,0-0.1,0-0.1,0
			c-0.1,0-0.1,0-0.2,0c-0.2,0-0.3,0-0.4,0.1c-0.1,0-0.1-0.1-0.2-0.1s-0.1,0-0.2,0c-0.1,0-0.2,0-0.4-0.1c-0.1-0.1-0.3-0.2-0.4-0.2
			c-0.3,0-0.5,0-0.6,0.1c-0.1,0.1-0.2,0.2-0.3,0.3c0,0.1-0.1,0.2-0.1,0.4s0,0.2-0.1,0.4c-0.1,0.3-0.3,0.6-0.4,0.8
			c-0.1,0.2-0.2,0.5-0.3,0.8c-0.1,0.3-0.2,0.6-0.3,0.9c-0.1,0.3-0.2,0.6-0.4,0.8c-0.1,0.3-0.2,0.5-0.3,0.7
			C23,21.7,22.9,21.9,22.9,22.1z M25.4,15.3c0.1,0.1,0.2,0.1,0.3,0.2c0.1,0,0.2,0.1,0.4,0.1c0.2,0,0.5-0.1,0.8-0.4
			c0.4-0.2,0.7-0.5,1.1-0.9c0.4-0.4,0.7-0.8,1-1.2c0.3-0.4,0.5-0.9,0.6-1.2c0-0.2,0.1-0.3,0.1-0.5s0.1-0.3,0.2-0.4
			c0-0.1,0-0.2,0-0.2c0-0.2,0-0.4,0.1-0.6S30,9.6,30,9.3c0,0,0-0.1,0-0.1c0,0,0-0.1,0-0.1c0,0,0-0.1,0-0.1s0-0.1,0-0.1
			c0-0.1-0.1-0.2-0.1-0.3c0-0.1-0.1-0.2-0.2-0.2c-0.3,0.1-0.5,0.3-0.6,0.5s-0.3,0.4-0.5,0.5c-0.1,0.1-0.3,0.2-0.5,0.4
			s-0.4,0.4-0.6,0.6c-0.2,0.2-0.3,0.4-0.5,0.7c-0.1,0.2-0.2,0.3-0.3,0.4c-0.1,0.2-0.2,0.4-0.4,0.6c-0.2,0.2-0.3,0.4-0.5,0.6
			c-0.2,0.2-0.3,0.4-0.4,0.6s-0.2,0.4-0.2,0.6c0,0.1,0,0.3,0,0.4c0,0.1,0,0.3,0,0.4c0,0.1,0,0.2,0,0.3
			C25.3,15.1,25.3,15.2,25.4,15.3z M25.8,10.6C25.9,10.6,25.9,10.5,25.8,10.6c0.1-0.1,0.1-0.1,0.1-0.1s0,0,0,0L25.8,10.6z
			 M26.1,10.2c0,0-0.1-0.1-0.1-0.1c0,0,0-0.1-0.1-0.1c0,0-0.1,0-0.1,0C25.9,10.1,26,10.2,26.1,10.2C26.1,10.3,26.2,10.3,26.1,10.2
			c0.1,0.1,0.1,0.1,0.1,0.1c0,0,0,0,0,0c0,0,0,0,0,0s0,0,0,0l0.2-0.2l-0.2-0.1C26.3,10.1,26.2,10.1,26.1,10.2z M26,9.9L26,9.9
			C26.1,9.8,26,9.8,26,9.8L26,9.9z M26.3,10L26.3,10C26.3,9.9,26.3,9.9,26.3,10c-0.1-0.1-0.1-0.1-0.1,0C26.2,9.9,26.3,10,26.3,10z
			 M26.6,9.3c0-0.1,0-0.1-0.1-0.1c0,0.1,0,0.1,0,0.1s0,0-0.1,0s-0.1,0-0.1,0s0,0,0,0.1c0,0,0.1,0.1,0.2,0.1
			C26.5,9.4,26.6,9.4,26.6,9.3L26.6,9.3L26.6,9.3z M26.7,9.5C26.7,9.5,26.7,9.5,26.7,9.5C26.6,9.6,26.6,9.6,26.7,9.5
			c-0.1,0.1-0.2,0.1-0.2,0.1l-0.1-0.1c0,0.1,0,0.2,0,0.2c0,0,0,0,0,0l-0.1,0.1c0,0,0,0,0,0c0,0,0,0,0.1-0.1c0,0,0,0,0.1,0
			s0.1,0,0.1,0.1C26.6,9.7,26.6,9.6,26.7,9.5C26.7,9.6,26.7,9.6,26.7,9.5z M26.5,10.6L26.5,10.6c0.1,0,0.1,0,0.1-0.1
			C26.5,10.4,26.5,10.5,26.5,10.6L26.5,10.6z M26.7,9.9L26.7,9.9C26.6,9.9,26.6,9.9,26.7,9.9c0,0.1,0,0.1,0,0.2c0,0,0,0.1,0,0.1
			c0,0,0.1-0.1,0.2-0.1c0,0-0.1,0-0.1,0S26.7,10,26.7,9.9z M26.6,8.9l0.1,0.2C26.7,9,26.7,9,26.6,8.9C26.7,9,26.7,8.9,26.6,8.9
			L26.6,8.9z M26.7,9.9C26.7,9.9,26.7,9.9,26.7,9.9L26.7,9.9C26.7,9.8,26.7,9.8,26.7,9.9C26.7,9.8,26.7,9.8,26.7,9.9
			C26.7,9.9,26.7,9.9,26.7,9.9z M27,9.4h-0.1l-0.1-0.1c0,0,0,0,0,0c0,0,0,0.1,0,0c0,0,0,0,0,0.1C26.9,9.4,26.9,9.4,27,9.4
			C27,9.4,27,9.4,27,9.4z M26.8,9.5C26.8,9.4,26.8,9.4,26.8,9.5l0,0.2c0,0,0,0,0-0.1C26.8,9.6,26.8,9.6,26.8,9.5z"/>
	</g>
	<g>
		<path class="st0" d="M32.2,15c0.1-0.1,0.1-0.3,0.2-0.4c0-0.1,0.1-0.3,0.1-0.4c0,0,0-0.1,0-0.1c0,0,0,0,0-0.1
			c0-0.3,0.1-0.5,0.3-0.9c0.1-0.3,0.2-0.6,0.2-0.9c0.1-0.2,0.2-0.5,0.4-0.8c0.2-0.3,0.3-0.5,0.3-0.8c0-0.1,0-0.2,0.1-0.3
			c0.1-0.1,0.1-0.3,0.2-0.4c0.1-0.1,0.2-0.3,0.2-0.4c0.1-0.1,0.1-0.3,0.1-0.4c0-0.2,0.1-0.3,0.2-0.5c0.1-0.2,0.2-0.3,0.3-0.5
			c0.3-0.6,0.5-1.1,0.8-1.7c0.3-0.6,0.6-1.1,0.9-1.7c0.2-0.3,0.4-0.6,0.6-1c0.2-0.3,0.4-0.7,0.6-1C37.8,2.6,38,2.3,38.2,2
			c0.2-0.3,0.5-0.5,0.7-0.8c0.1-0.1,0.3-0.3,0.5-0.5s0.3-0.4,0.4-0.6c0.4,0,0.8,0,1,0.1c0.2,0.1,0.4,0.3,0.5,0.7
			c-0.4,0.4-0.8,0.8-1.1,1.2c-0.4,0.4-0.7,0.9-1,1.3c0,0.1-0.1,0.1-0.1,0.2c0,0.1-0.1,0.1-0.1,0.1c-0.2,0.2-0.3,0.3-0.4,0.5
			c-0.1,0.2-0.2,0.4-0.4,0.5C38.2,5,38.1,5.2,38,5.3s-0.1,0.3-0.3,0.5c-0.2,0.1-0.3,0.3-0.4,0.5c-0.1,0.2-0.2,0.4-0.2,0.6
			c-0.1,0.2-0.1,0.4-0.2,0.6c-0.1,0.2-0.2,0.3-0.4,0.5c0,0-0.1,0.2-0.2,0.3c-0.1,0.2-0.2,0.4-0.3,0.6C36.1,9,36,9.2,35.9,9.4
			c-0.1,0.2-0.1,0.3-0.1,0.3c-0.3,0.7-0.7,1.4-1,2.1s-0.7,1.5-1,2.4c0,0.2,0.1,0.3,0.1,0.4c0,0.1,0,0.2-0.1,0.3
			c0,0.1-0.1,0.2-0.1,0.2c0,0.2,0,0.4,0.1,0.5c0.1,0.1,0.3,0.2,0.6,0.2c0.2-0.2,0.3-0.3,0.4-0.5c0.1-0.2,0.2-0.3,0.4-0.4
			c0.1,0,0.1-0.1,0.1-0.1c0-0.1,0-0.1,0.1-0.2c0.2-0.4,0.5-0.6,0.9-0.6c0,0,0,0,0.1-0.1c0.1,0.1,0.1,0.1,0.2,0.2s0.1,0.1,0.2,0.2
			c-0.2,0.5-0.5,0.9-0.7,1.4c-0.2,0.4-0.5,0.9-0.7,1.2s-0.6,0.7-0.9,1c-0.3,0.3-0.7,0.5-1.1,0.6c-0.2,0-0.4-0.1-0.5-0.1
			c-0.1,0-0.2-0.1-0.3-0.2c-0.1-0.1-0.2-0.2-0.3-0.4c-0.1-0.2-0.2-0.4-0.3-0.7c0,0,0,0,0,0c0,0,0,0,0,0c0,0,0-0.1,0-0.1
			c0-0.1,0-0.2,0-0.3s0-0.2,0-0.3c0-0.1,0-0.2,0-0.2c0-0.1,0-0.2,0-0.2s0-0.2,0-0.4S32.2,15.1,32.2,15z M33.7,16.9
			C33.7,16.9,33.6,16.9,33.7,16.9c-0.1,0.1,0,0.1,0,0.1c0,0,0,0,0,0V16.9z M33.8,16.6C33.8,16.6,33.8,16.6,33.8,16.6
			c0,0-0.1,0-0.1,0C33.7,16.6,33.7,16.6,33.8,16.6L33.8,16.6z"/>
	</g>
	<g>
		<path class="st0" d="M42.7,14.2c0,0.2,0,0.3,0.1,0.3s0.1,0.1,0.2,0.1c0,0,0.1,0,0.2,0c0.1,0,0.1,0,0.2,0c0.2-0.2,0.3-0.4,0.5-0.5
			c0.1-0.2,0.3-0.3,0.4-0.5c0.1-0.2,0.3-0.3,0.5-0.4c0.2-0.1,0.4-0.2,0.8-0.3l0.2,0.4c-0.1,0.2-0.2,0.5-0.4,0.8
			c-0.1,0.3-0.3,0.6-0.5,0.9c-0.2,0.3-0.4,0.5-0.5,0.7c-0.2,0.2-0.4,0.3-0.6,0.3c-0.1,0.5-0.3,0.9-0.5,1.1c-0.2,0.2-0.5,0.4-0.7,0.5
			c-0.2-0.2-0.4-0.3-0.6-0.6c-0.2-0.2-0.3-0.4-0.5-0.4c-0.1,0-0.2-0.1-0.2-0.2S41.1,16,41,15.9c-0.1-0.2-0.1-0.3-0.1-0.5
			c0-0.2-0.1-0.3-0.1-0.3c0-0.1,0-0.1,0-0.2c0,0,0-0.1,0-0.2c0-0.1,0-0.1,0-0.2c0-0.1,0-0.1,0-0.2c0-0.1,0-0.1,0-0.2
			c0,0-0.1-0.1-0.1-0.2c-0.1,0-0.3,0.1-0.5,0.3c-0.2,0.2-0.3,0.4-0.5,0.6c-0.1,0.2-0.3,0.4-0.4,0.6c-0.1,0.2-0.2,0.3-0.2,0.3
			c0,0.2-0.1,0.3-0.2,0.5c-0.1,0.2-0.2,0.4-0.3,0.6c-0.1,0.2-0.2,0.4-0.4,0.5c-0.1,0.2-0.2,0.3-0.4,0.4c-0.1,0-0.2,0-0.3,0.1
			c-0.1,0-0.2,0-0.4,0c-0.3-0.2-0.5-0.4-0.8-0.6c-0.3-0.2-0.4-0.5-0.6-0.8c0-0.1-0.1-0.2-0.1-0.3c0-0.1-0.1-0.1-0.1-0.2
			c0-0.1-0.1-0.2-0.1-0.3s0-0.2,0-0.4c0.2-0.2,0.3-0.3,0.3-0.4c0.1-0.1,0.1-0.2,0.1-0.3c0-0.1,0-0.2,0.1-0.3c0-0.1,0.1-0.2,0.1-0.3
			l0,0l0,0c0.2-0.2,0.3-0.5,0.4-0.8s0.2-0.6,0.4-0.8c0.3-0.4,0.6-0.8,0.9-1.2c0.3-0.4,0.6-0.8,0.8-1.2c0.1-0.1,0.2-0.2,0.4-0.3
			c0.2-0.1,0.3-0.2,0.4-0.4c0.1-0.3,0.3-0.5,0.5-0.7C40,8.2,40.2,8.1,40.4,8c0.2-0.1,0.4-0.3,0.6-0.4c0.2-0.1,0.4-0.2,0.5-0.4
			C41.6,7.1,41.8,7,42,6.9c0.2-0.1,0.4-0.1,0.5-0.2l0.9,0.1c0.1,0,0.2-0.1,0.3-0.1c0.1,0,0.2-0.1,0.3-0.1c0.2,0.1,0.3,0.3,0.4,0.5
			c0.1,0.2,0.2,0.4,0.3,0.7s0.1,0.4,0.2,0.6C45,8.6,45,8.8,45,8.9c0,0.1,0,0.2-0.1,0.4c-0.1,0.2-0.1,0.3-0.2,0.5
			c-0.1,0.2-0.2,0.3-0.3,0.5c-0.1,0.2-0.2,0.3-0.2,0.4c-0.3,0.6-0.5,1.3-0.7,1.9C43.3,13.2,43,13.7,42.7,14.2z M36.5,15.8
			C36.5,15.8,36.5,15.8,36.5,15.8L36.5,15.8C36.6,15.8,36.6,15.8,36.5,15.8z M36.6,15.2L36.6,15.2C36.6,15.2,36.7,15.2,36.6,15.2
			l0.1-0.1c0,0,0,0,0,0L36.6,15.2L36.6,15.2z M36.7,15.8c0-0.1,0-0.2,0.1-0.3s0.1-0.1,0.1-0.1c0,0,0-0.1,0-0.1c0,0,0,0,0-0.1v0
			c0,0,0,0,0,0c0,0,0,0,0,0h0c0,0,0-0.1,0-0.1c0,0,0,0,0-0.1l-0.1,0.1c0,0,0,0,0,0c0,0,0,0,0,0c0,0,0,0,0,0c0,0,0,0,0,0l0,0
			c0,0.1,0,0.1,0.1,0.2c0,0-0.1,0.1-0.1,0.1C36.7,15.6,36.7,15.7,36.7,15.8C36.7,15.7,36.7,15.8,36.7,15.8
			C36.7,15.8,36.8,15.9,36.7,15.8C36.8,15.9,36.8,15.8,36.7,15.8L36.7,15.8z M36.8,16C36.8,16,36.8,16,36.8,16L36.8,16L36.8,16
			L36.8,16C36.8,16,36.8,16,36.8,16z M37,15.7C36.9,15.7,36.9,15.7,37,15.7c-0.1,0.1-0.1,0.1-0.2,0.1l0.2,0.1
			C37,15.9,37,15.8,37,15.7z M36.9,16.1C36.8,16.1,36.8,16.1,36.9,16.1C36.9,16.2,36.9,16.2,36.9,16.1z M36.9,16.3L36.9,16.3
			l0.1,0.1L36.9,16.3z M37,14.4C37,14.4,37,14.4,37,14.4c0.1,0,0.1,0,0.1-0.1L37,14.2c0,0,0,0,0,0.1c0,0,0,0-0.1,0.1
			C36.9,14.3,36.9,14.4,37,14.4L37,14.4L37,14.4L37,14.4z M38.2,14.7C38.1,14.7,38.1,14.7,38.2,14.7c-0.1-0.2-0.1-0.2-0.1-0.2
			l-0.1,0l-0.3-0.2l0.1-0.1c-0.1,0-0.2,0-0.3-0.1c0,0.1,0,0.2,0,0.1s0,0-0.1,0c0,0,0,0,0.1,0.1c0,0,0,0,0.1,0.1c0,0,0,0,0,0
			c0,0,0,0-0.1,0s0,0,0-0.1c0.1,0,0.1,0,0.2,0.1c0,0,0.1,0.1,0.1,0.2h0.1c0,0,0,0.1,0,0.1c0,0,0,0,0,0.1c0,0,0,0.1,0,0.1l0-0.2
			c-0.2,0-0.2,0-0.3,0.1h0.1l-0.1,0.1c0.1,0,0.1,0.1,0.2,0.1c0.1,0,0.1,0.1,0.1,0.1H38L37.9,15L37.8,15c0,0-0.1,0-0.1,0
			c0,0-0.1,0-0.1,0L37.4,15c0.1,0,0.1,0.1,0.1,0.1c0,0.1,0,0.2-0.1,0.2c0,0-0.1,0.1-0.2,0.1l0-0.3l-0.1-0.1c0,0.2-0.1,0.3-0.2,0.3
			l0.1,0.2c0,0,0.1,0,0.1,0c0,0.1,0,0.1,0.1,0.1c0.1,0,0.1,0,0.1,0.1c0,0,0,0,0,0c0,0,0,0,0.1,0c0,0,0,0,0,0c0,0,0,0,0.1,0l0.1,0.1
			L37.6,16c-0.1,0-0.1,0-0.1-0.1L37.4,16c-0.1,0-0.1,0-0.1-0.1c0,0,0,0,0,0s0,0,0,0c0,0,0,0.1-0.1,0.1c0,0,0,0-0.1,0.1c0,0,0,0,0,0
			s0,0-0.1,0L37,16v-0.1c0,0,0,0,0,0l0,0c0,0-0.1,0.1-0.1,0.2c0,0,0,0,0,0c0,0,0.1-0.1,0.1-0.1c0,0,0.1-0.1,0.1-0.1
			c0,0.1,0,0.2,0,0.2c0,0-0.1,0-0.1,0c0,0,0,0,0,0c0,0,0-0.1,0.1-0.1s0.1,0,0.1,0L37.3,16c0.1,0,0.1,0,0.1,0c0,0,0,0,0.1,0.1
			c0,0,0-0.1,0-0.1h-0.1c0,0,0-0.1,0-0.1c0,0,0,0,0.1,0v0c0,0,0.1,0,0.1,0c0.1,0,0.1-0.1,0.1-0.2c0,0-0.1,0-0.1,0c0,0,0,0,0,0
			c0-0.1,0-0.1,0.1-0.2s0.1-0.1,0.2-0.3c0,0.1,0,0.2,0,0.2s0,0-0.1,0.1l0,0c0,0,0-0.1,0-0.1c0.1,0,0.1,0,0.1,0.1c0,0,0,0.1-0.1,0.1
			s-0.1,0.1-0.1,0.1c0,0,0.1,0,0.1,0.1c0,0.1,0,0.1,0.1,0.2l0.1-0.2l-0.1-0.2l0.3,0.1c0-0.1-0.1-0.1-0.1-0.1c0,0,0.1-0.1,0.1-0.1
			c0,0,0,0,0.1,0v0c-0.1,0-0.1-0.1-0.2-0.2v0c0,0,0,0,0,0l-0.1-0.2L38,15.4c-0.1,0-0.1,0-0.1-0.1s0-0.1,0.1-0.1s0.1-0.1,0.1-0.1
			L38,15c0-0.1,0-0.1,0.1-0.1s0.1,0,0.1,0c0,0,0,0.1,0,0.1s0,0,0,0c0,0,0,0.1,0,0.1c0,0,0,0,0,0c0,0,0.1,0,0.1,0c0,0,0,0,0.1,0
			c0,0-0.1,0-0.2,0c0,0,0.1-0.1,0.1-0.1c0,0,0.1-0.1,0.1-0.1c0,0,0,0,0,0S38.3,14.7,38.2,14.7L38.2,14.7z M37,14.8
			C37,14.8,37,14.8,37,14.8l0-0.2C37,14.7,37,14.7,37,14.8L37,14.8z M37,15.1c0.1,0,0.1,0,0.2,0c0,0,0,0,0-0.1
			C37,15,37,15.1,37,15.1z M37.1,16.4C37.1,16.4,37.1,16.4,37.1,16.4C37.1,16.4,37.1,16.4,37.1,16.4L37.1,16.4
			C37.1,16.4,37.1,16.4,37.1,16.4z M37.3,14.8c0,0,0,0.1-0.1,0.1c0,0,0,0-0.1,0c0,0,0-0.1,0-0.1c0,0,0,0,0,0c0,0,0.1,0,0.1,0.1
			c0.1,0,0.1,0,0.1,0.1s0.1,0.1,0.1,0.1V15c-0.1,0-0.1,0-0.1-0.1C37.4,14.9,37.3,14.8,37.3,14.8z M37.1,15.9
			C37.1,15.9,37.1,15.9,37.1,15.9C37.1,15.8,37.1,15.8,37.1,15.9C37.1,15.8,37.1,15.8,37.1,15.9L37.1,15.9L37.1,15.9z M37.1,14.5
			C37.1,14.5,37.1,14.5,37.1,14.5C37.1,14.6,37.1,14.6,37.1,14.5z M37.2,14.3C37.2,14.3,37.2,14.3,37.2,14.3
			C37.1,14.3,37.1,14.3,37.2,14.3L37.2,14.3z M37.1,15.4L37.1,15.4L37.1,15.4C37.1,15.5,37.1,15.5,37.1,15.4z M37.3,14.3l-0.1,0.3
			c0.1,0,0.1,0.1,0.2,0.1h0L37.3,14.3z M37.2,15.6L37.2,15.6L37.2,15.6L37.2,15.6L37.2,15.6z M37.3,13.7L37.3,13.7L37.3,13.7
			C37.3,13.7,37.3,13.7,37.3,13.7C37.3,13.7,37.3,13.7,37.3,13.7z M37.3,13.7L37.3,13.7L37.3,13.7L37.3,13.7z M37.5,15.7h-0.2
			c0-0.1,0.1-0.2,0.1-0.3c0-0.1,0.1-0.2,0.2-0.2L37.5,15.7z M37.4,14.2C37.4,14.2,37.4,14.2,37.4,14.2
			C37.4,14.2,37.4,14.2,37.4,14.2c0-0.1,0-0.1,0-0.1V14.2z M37.4,16.3C37.4,16.3,37.4,16.3,37.4,16.3L37.4,16.3
			C37.4,16.4,37.4,16.4,37.4,16.3z M37.6,13.7C37.6,13.7,37.5,13.8,37.6,13.7L37.6,13.7L37.6,13.7z M37.6,16.3
			C37.6,16.3,37.5,16.3,37.6,16.3L37.6,16.3C37.6,16.3,37.6,16.3,37.6,16.3z M37.6,14.7L37.6,14.7L37.6,14.7
			C37.6,14.6,37.6,14.7,37.6,14.7z M37.7,16.4c0-0.1,0-0.1,0-0.2c0-0.1-0.1-0.1-0.1-0.1c0,0.1,0,0.1,0,0.1h0
			C37.7,16.3,37.7,16.4,37.7,16.4C37.6,16.4,37.7,16.4,37.7,16.4z M37.6,13.7L37.6,13.7C37.6,13.7,37.6,13.7,37.6,13.7
			C37.6,13.7,37.6,13.7,37.6,13.7z M37.6,14C37.6,14,37.6,13.9,37.6,14C37.6,13.9,37.6,13.9,37.6,14z M37.7,14L37.7,14
			C37.7,14.1,37.7,14.1,37.7,14C37.7,14.1,37.7,14.1,37.7,14L37.7,14z M37.7,14C37.8,14,37.8,14,37.7,14L37.7,14L37.7,14z
			 M37.8,15.1C37.8,15.2,37.8,15.2,37.8,15.1C37.8,15.2,37.8,15.1,37.8,15.1z M37.9,16.3L37.9,16.3c-0.1,0-0.1,0-0.1,0
			C37.8,16.3,37.9,16.3,37.9,16.3z M37.9,16.2C37.9,16.2,37.9,16.1,37.9,16.2C37.9,16.1,37.9,16.1,37.9,16.2
			C37.9,16.1,37.9,16.1,37.9,16.2C37.9,16.1,37.9,16.1,37.9,16.2C37.9,16.1,37.9,16.2,37.9,16.2z M38.1,14.4c0-0.1,0-0.1,0-0.1
			C38.1,14.3,38.1,14.4,38.1,14.4c0-0.2,0-0.2-0.1-0.2c0,0,0,0-0.1-0.1C37.9,14.2,38,14.3,38.1,14.4C38,14.4,38,14.4,38.1,14.4z
			 M37.9,14.7L37.9,14.7L37.9,14.7L37.9,14.7L37.9,14.7z M38.1,15.4c0,0.1,0,0.2,0,0.2c0,0-0.1,0.1-0.1,0.1c0,0,0-0.1,0-0.1
			c0,0,0,0,0-0.1C37.9,15.4,38,15.4,38.1,15.4z M38,16.1C38,16.1,38,16.1,38,16.1C38,16.1,38,16.1,38,16.1C38,16.1,38,16,38,16.1
			C38,16.1,37.9,16.1,38,16.1L38,16.1z M38,14c0,0,0-0.1,0-0.2C38,13.8,38,13.9,38,14z M38.1,14.2C38.1,14.2,38.1,14.2,38.1,14.2
			L38.1,14.2C38.2,14.2,38.2,14.2,38.1,14.2z M38.1,14.4L38.1,14.4C38.2,14.3,38.2,14.3,38.1,14.4L38.1,14.4L38.1,14.4z M38.3,14.6
			C38.3,14.6,38.3,14.6,38.3,14.6c-0.1,0-0.1-0.1-0.1-0.1c0,0,0.1,0,0.1,0c0,0,0,0,0.1,0l-0.2-0.3c0,0.1,0,0.1,0,0.2s0,0.1-0.1,0.1
			C38.2,14.5,38.3,14.6,38.3,14.6C38.3,14.7,38.3,14.6,38.3,14.6z M38.2,14.7L38.2,14.7L38.2,14.7L38.2,14.7z M38.2,16
			C38.2,16,38.2,16,38.2,16C38.2,16,38.2,16,38.2,16z M41.6,9.4c-0.2,0.2-0.4,0.4-0.7,0.7c-0.3,0.3-0.5,0.5-0.6,0.8
			c-0.1,0.2-0.2,0.3-0.4,0.4c-0.2,0.1-0.3,0.2-0.3,0.3c-0.1,0.2-0.2,0.4-0.3,0.6c-0.1,0.2-0.3,0.4-0.4,0.6c-0.1,0.2-0.2,0.4-0.3,0.5
			c-0.1,0.2-0.1,0.4-0.1,0.5c0.2,0,0.3,0,0.4-0.1c0.1-0.1,0.3-0.2,0.4-0.3c0.1-0.1,0.3-0.3,0.4-0.4c0.1-0.1,0.2-0.3,0.3-0.4
			c0.1-0.2,0.2-0.3,0.3-0.5s0.3-0.3,0.4-0.5c0.1-0.2,0.2-0.3,0.4-0.5c0.2-0.2,0.3-0.4,0.5-0.6c0.2-0.2,0.3-0.4,0.4-0.6
			C41.9,9.7,42,9.5,42,9.3L41.6,9.4z M38.4,15.5C38.4,15.5,38.4,15.5,38.4,15.5C38.4,15.5,38.4,15.5,38.4,15.5
			C38.4,15.5,38.4,15.5,38.4,15.5L38.4,15.5L38.4,15.5z M38.4,15.8C38.4,15.8,38.4,15.7,38.4,15.8c0-0.1-0.1-0.1-0.1-0.1h0
			C38.3,15.8,38.4,15.8,38.4,15.8z M38.4,15.2h0.1c0,0,0-0.1-0.1-0.1c0,0,0-0.1-0.1-0.1C38.4,15.1,38.4,15.1,38.4,15.2
			c-0.1,0.1-0.1,0.1-0.1,0.1c0,0,0,0.1,0,0.1C38.4,15.3,38.4,15.2,38.4,15.2z M38.5,14.7C38.4,14.7,38.4,14.7,38.5,14.7L38.5,14.7
			C38.5,14.7,38.5,14.7,38.5,14.7z M38.6,14.8C38.5,14.8,38.5,14.8,38.6,14.8L38.6,14.8C38.5,14.9,38.6,14.9,38.6,14.8z M40.7,12.9
			L40.7,12.9C40.6,12.8,40.6,12.9,40.7,12.9C40.7,12.9,40.7,12.9,40.7,12.9C40.7,12.9,40.7,12.9,40.7,12.9z M40.7,13L40.7,13
			L40.7,13C40.7,12.9,40.7,12.9,40.7,13z M41,13.4C41.1,13.4,41.1,13.4,41,13.4C41.1,13.5,41.1,13.5,41,13.4h0.2c0,0,0,0,0,0
			S41.1,13.5,41,13.4C41.1,13.5,41.1,13.4,41,13.4L41,13.4c0-0.1,0-0.1,0-0.1s0,0,0,0l-0.1,0.1C40.9,13.4,40.9,13.4,41,13.4
			c-0.2,0.1-0.2,0.1-0.2,0.1c0,0,0,0.1-0.1,0.1c0,0,0.1,0,0.2,0c0,0,0-0.1,0-0.1s0,0,0-0.1C40.9,13.5,40.9,13.5,41,13.4
			c0,0.1,0,0.1,0,0.1C41.1,13.5,41.1,13.5,41,13.4C41.1,13.5,41.1,13.5,41,13.4C41.1,13.5,41,13.5,41,13.4C41,13.5,41,13.5,41,13.4z
			 M40.9,12.8c0,0-0.1,0-0.2,0v0C40.8,12.9,40.8,12.9,40.9,12.8C40.9,12.9,40.9,12.9,40.9,12.8z M40.9,13.1L40.9,13.1
			c0-0.1-0.1,0-0.1,0C40.8,13.1,40.8,13.1,40.9,13.1L40.9,13.1z M40.8,12.6L40.8,12.6C40.8,12.6,40.8,12.5,40.8,12.6L40.8,12.6
			L40.8,12.6z M40.8,13.3C40.8,13.3,40.8,13.3,40.8,13.3C40.8,13.2,40.8,13.2,40.8,13.3L40.8,13.3z M40.8,12.6c0,0.1,0,0.2,0.1,0.2
			C40.9,12.7,40.9,12.6,40.8,12.6z M40.9,14.1C40.9,14.1,40.9,14.1,40.9,14.1C40.9,14,40.9,14.1,40.9,14.1L40.9,14.1z M41,13.4
			C41,13.4,40.9,13.4,41,13.4C41,13.4,41,13.4,41,13.4z M41.6,13.5C41.5,13.5,41.5,13.4,41.6,13.5c-0.1-0.1-0.1-0.1-0.2-0.1
			c0,0,0,0,0,0c0,0,0,0,0-0.1c0,0,0.1-0.1,0.1-0.2v-0.1l0.1,0.2c0.1-0.1,0.1-0.1,0.1-0.2c0,0,0,0.1,0.1,0.1c0,0,0,0,0,0.1
			c0,0,0,0,0,0l0.1,0.2c0,0-0.1,0-0.1,0l0,0l0.2-0.2l-0.1-0.1l0.1-0.1c0,0-0.1,0-0.1,0c0,0,0-0.1,0-0.1c0,0,0-0.1,0.1-0.1l0,0.1l0,0
			c0,0-0.1,0-0.1,0c0,0,0,0,0.1,0s0,0,0,0c0,0,0,0,0,0c0,0,0,0,0,0c0,0,0,0,0-0.1c-0.1,0-0.1,0-0.1-0.1c0-0.1,0-0.1,0.1-0.2
			c0.1,0,0.1,0,0.1-0.1c0,0,0,0,0,0c0,0,0,0.1-0.1,0.1L42,12.5c0-0.1,0.1-0.1,0.1-0.1s0.1,0,0.1-0.1c0.1,0,0.1,0,0.1,0.1
			c0,0,0,0.1,0.1,0.1c0-0.1,0-0.1,0-0.2c0,0,0.1,0,0.1-0.1c0,0,0-0.1,0.1-0.1c0,0,0,0,0,0.1l0,0c-0.1-0.1-0.2-0.1-0.3-0.2
			c-0.1-0.1-0.1-0.2-0.1-0.3c-0.1,0.1-0.1,0.1-0.1,0.2c0,0,0,0,0-0.1c0,0,0,0,0,0l0.1,0L41.9,12c0,0,0.1,0,0.1,0s0.1,0,0.1,0.1
			c-0.1,0-0.1,0.1-0.2,0.1c-0.1,0-0.1,0-0.2,0.1L41.6,12c0.1,0,0.1,0,0.1,0c0,0,0,0,0.1,0s0.1,0,0.1-0.1c0,0-0.1,0-0.1,0
			c0,0-0.1,0-0.1,0c0,0,0,0,0,0c-0.1,0-0.1,0-0.1,0.1c0,0.1-0.1,0.2-0.1,0.2l0.1-0.1c0,0.1,0,0.2,0.1,0.1s0.2,0,0.3,0.1v0
			c0,0,0,0,0,0.1c0,0-0.1,0-0.1,0.1c0,0,0-0.1-0.1-0.2c0,0-0.1,0-0.1,0.1c0,0-0.1,0-0.1,0c0,0,0,0-0.1-0.1s-0.1-0.1-0.1-0.2
			l-0.2-0.1c0,0.1,0,0.1,0,0.1c0,0,0,0-0.1,0c0,0,0,0,0,0c0,0,0-0.1,0.1-0.1s0.1,0,0.1,0l0,0.2c0,0.1,0,0.1,0,0.1c0,0,0,0.1-0.1,0.1
			c0,0.1,0,0.1-0.1,0.1s-0.1,0-0.1,0l0.2-0.1c0,0-0.1-0.1-0.1-0.1c0,0-0.1-0.1-0.1-0.1c-0.1,0-0.1,0-0.2,0c0.1,0,0.1,0.1,0.1,0.1
			c0,0,0,0.1-0.1,0.2c0.2,0,0.3,0.1,0.3,0.1s0.1,0.1,0.2,0.2c0,0-0.1,0.1-0.2,0.1L41.1,13c0,0.1,0.1,0.1,0.2,0.2
			c0.1,0,0.1,0.1,0.2,0.2c0,0-0.1,0-0.1,0c0,0,0,0-0.1,0c-0.1,0-0.1,0-0.1-0.1c0,0,0,0,0,0s0,0,0,0c0.1,0,0.1,0,0.1,0.1
			c0,0,0.1,0,0.1,0c0,0,0.1,0,0.2,0l0,0C41.5,13.5,41.5,13.5,41.6,13.5z M41,13.7C41.1,13.7,41.1,13.7,41,13.7
			C41,13.7,41,13.7,41,13.7L41,13.7z M41.3,12c-0.1,0-0.1,0.1-0.1,0.1c0,0,0,0,0,0c-0.1,0-0.1,0-0.2,0l0,0c0,0,0,0,0.1,0
			c0,0,0,0,0.1,0c0.1,0,0.1-0.1,0.2-0.1C41.4,12.1,41.4,12.1,41.3,12c0.1-0.1,0.1-0.1,0.1-0.2C41.4,11.9,41.3,11.9,41.3,12
			C41.3,11.9,41.3,11.9,41.3,12L41.3,12z M41.1,14C41.1,14,41.1,14,41.1,14L41.1,14C41.2,14,41.1,14,41.1,14z M41.1,12.4
			C41.1,12.4,41.1,12.4,41.1,12.4L41.1,12.4C41.1,12.5,41.1,12.4,41.1,12.4z M41.4,13.8c-0.1-0.1-0.1-0.1-0.1-0.1c0,0,0,0,0-0.1
			c0,0-0.1,0-0.1,0c0,0,0,0,0,0.1c0.1,0,0.1,0,0.1,0C41.3,13.7,41.3,13.8,41.4,13.8C41.3,13.8,41.4,13.8,41.4,13.8z M41.4,13.9
			L41.4,13.9C41.3,13.9,41.3,13.9,41.4,13.9c-0.1,0-0.1-0.1-0.1-0.1l-0.1,0c0,0.1,0,0.1,0,0.1C41.2,13.9,41.3,13.9,41.4,13.9
			L41.4,13.9C41.3,13.9,41.3,13.9,41.4,13.9c0,0,0.1,0,0.1,0.1L41.4,13.9C41.4,13.9,41.4,13.9,41.4,13.9z M41.4,14.2
			C41.4,14.2,41.4,14.2,41.4,14.2C41.4,14.3,41.4,14.3,41.4,14.2c0.1,0,0.1,0,0.1,0H41.4z M41.6,13L41.6,13C41.5,13,41.5,13,41.6,13
			L41.6,13C41.5,12.9,41.6,12.9,41.6,13z M41.5,14C41.5,14.1,41.5,14.1,41.5,14C41.5,14.1,41.5,14.1,41.5,14z M41.5,8.4
			C41.5,8.4,41.6,8.4,41.5,8.4C41.6,8.4,41.6,8.4,41.5,8.4C41.6,8.4,41.6,8.4,41.5,8.4c0.1-0.1,0.1-0.1,0.1-0.1c0,0,0,0,0,0v0l0,0v0
			C41.6,8.4,41.6,8.4,41.5,8.4z M41.7,12.8C41.7,12.8,41.7,12.9,41.7,12.8C41.6,12.9,41.6,12.9,41.7,12.8
			C41.6,12.8,41.6,12.8,41.7,12.8c-0.1,0-0.2,0-0.2-0.1c0-0.1,0-0.1,0-0.1s0.1,0,0.1,0c0,0.1,0,0.1,0,0.1
			C41.6,12.7,41.6,12.7,41.7,12.8C41.6,12.8,41.6,12.8,41.7,12.8C41.6,12.8,41.6,12.8,41.7,12.8L41.7,12.8z M41.6,14.1L41.6,14.1
			L41.6,14.1z M41.6,11.6C41.6,11.6,41.6,11.6,41.6,11.6C41.6,11.6,41.6,11.6,41.6,11.6C41.6,11.6,41.6,11.6,41.6,11.6
			C41.6,11.5,41.6,11.6,41.6,11.6z M41.6,13.7C41.6,13.7,41.6,13.7,41.6,13.7c0.1,0.1,0.1,0.1,0.1,0.1c0,0,0,0,0,0s0,0,0,0
			C41.7,13.7,41.6,13.7,41.6,13.7z M41.6,14C41.6,14,41.6,14,41.6,14C41.6,14,41.6,14,41.6,14C41.6,14,41.6,14,41.6,14z M41.6,8.3
			C41.6,8.3,41.6,8.3,41.6,8.3C41.6,8.3,41.6,8.3,41.6,8.3z M41.6,11.7C41.6,11.7,41.6,11.8,41.6,11.7L41.6,11.7
			C41.6,11.8,41.6,11.8,41.6,11.7z M41.6,14.4C41.6,14.4,41.6,14.4,41.6,14.4L41.6,14.4C41.6,14.5,41.6,14.5,41.6,14.4z M41.6,14.7
			C41.6,14.7,41.6,14.7,41.6,14.7C41.6,14.7,41.6,14.7,41.6,14.7L41.6,14.7z M41.6,8.4L41.6,8.4c0.1,0.1,0.1,0.1,0.1,0.1
			c0,0,0,0,0.1,0L41.6,8.4z M41.7,8.3C41.7,8.3,41.7,8.3,41.7,8.3C41.7,8.3,41.7,8.3,41.7,8.3L41.7,8.3C41.7,8.2,41.7,8.2,41.7,8.3
			C41.7,8.2,41.7,8.2,41.7,8.3l0.1-0.1c0,0,0,0,0,0L41.7,8.3C41.7,8.2,41.7,8.2,41.7,8.3L41.7,8.3z M41.7,13.1L41.7,13.1L41.7,13.1
			C41.7,13,41.7,13,41.7,13.1L41.7,13.1C41.7,13.1,41.7,13.1,41.7,13.1z M41.8,11.6c0-0.1,0-0.1,0-0.2c0,0-0.1,0-0.1,0L41.8,11.6z
			 M41.7,9C41.7,9,41.7,9,41.7,9L41.7,9L41.7,9z M41.7,12.6L41.7,12.6L41.7,12.6C41.7,12.6,41.7,12.6,41.7,12.6
			C41.7,12.6,41.7,12.6,41.7,12.6z M41.7,12.7H42l-0.2,0.2c0,0-0.1,0-0.1,0C41.7,12.8,41.7,12.8,41.7,12.7z M41.7,14.4
			C41.7,14.4,41.7,14.3,41.7,14.4C41.7,14.3,41.7,14.3,41.7,14.4L41.7,14.4z M41.9,8.3C41.8,8.3,41.8,8.3,41.9,8.3L41.9,8.3
			c-0.1-0.1-0.1-0.1-0.1-0.1C41.8,8.3,41.8,8.3,41.9,8.3z M42.5,8.1C42.4,8.1,42.4,8.1,42.5,8.1C42.4,8,42.4,8,42.4,8
			c0,0,0,0,0.1-0.1l0,0c0,0,0,0,0,0.1h0c0,0-0.1,0-0.1,0l0,0c0,0,0,0.1,0,0.1c0,0,0,0.1-0.1,0.1c0,0,0,0.1,0,0.1c0,0,0,0-0.1,0.1
			c0,0-0.1,0-0.1,0c0,0,0-0.1,0-0.1c0,0,0,0-0.1,0c0,0.1,0,0.2-0.1,0.2h0c0,0-0.1,0-0.1,0c0,0,0,0.1,0,0.1c0,0,0.1,0,0.1,0
			c0,0,0.1,0,0.1,0.1c0,0,0,0,0,0.1c0,0,0,0,0,0s0,0,0,0c0.1,0.1,0.2,0.1,0.3,0.2c0.1,0,0.2,0.1,0.2,0.2c-0.1,0-0.1,0-0.1,0
			c0,0,0,0.1-0.1,0.2c0.1,0,0.1,0,0.1,0s0,0,0,0.1c0,0,0,0,0,0s0,0,0,0l-0.2,0.1c0.1,0.1,0.1,0.1,0.1,0.1c0,0,0-0.1,0.1-0.1
			c0,0,0-0.1,0.1-0.1c0,0,0,0,0,0l-0.1-0.1c0,0,0-0.1,0-0.1c0,0,0-0.1,0.1-0.1c0,0,0.1,0,0.1,0.1l-0.1,0l0,0c0,0,0.1-0.1,0.1-0.1
			c0,0,0.1,0,0.1,0c0,0-0.1,0.1-0.1,0.1c0,0,0,0,0,0l0.2,0.1l0.1-0.2l0,0v0l0.1,0.1c0.1,0.1,0.2,0.1,0.2,0.1s0.1,0.1,0.2,0.2
			c0-0.1,0-0.2,0-0.2c0-0.1,0-0.1,0-0.1c0,0,0.1-0.1,0.1-0.1c-0.1,0-0.1,0-0.1-0.1c0,0,0-0.1,0-0.1c-0.1,0-0.1,0-0.1,0
			c0,0,0.1-0.1,0.1-0.1c0,0,0-0.1,0-0.1c0,0,0-0.1,0-0.1c0,0,0-0.1,0-0.1c0,0,0-0.1,0-0.1c0,0,0,0,0.1-0.1c0,0-0.1,0-0.1,0
			s-0.1,0-0.1,0l0.1-0.2c-0.1-0.1-0.1-0.1-0.1-0.1c0,0.1-0.1,0.2-0.1,0.2c0,0-0.1,0-0.2,0c0-0.1-0.1-0.1-0.1-0.1
			C42.6,8.2,42.5,8.1,42.5,8.1C42.5,8.1,42.5,8.1,42.5,8.1z M41.9,8.9c0,0-0.1,0-0.1,0v0C41.9,8.9,41.9,8.9,41.9,8.9z M41.9,13.7
			C41.8,13.7,41.8,13.7,41.9,13.7C41.8,13.7,41.8,13.7,41.9,13.7L41.9,13.7z M42,11.1L42,11.1C42,11.1,41.9,11.1,42,11.1
			c-0.1-0.1-0.1-0.1-0.1,0S41.9,11.1,42,11.1C41.9,11.1,42,11.1,42,11.1z M41.9,13.7C41.9,13.8,41.9,13.8,41.9,13.7
			C41.9,13.8,41.9,13.8,41.9,13.7L41.9,13.7C41.9,13.7,41.9,13.7,41.9,13.7z M41.9,15.1c0.1,0,0.1,0,0.2-0.1
			C41.9,15,41.9,15.1,41.9,15.1z M41.9,14C41.9,14,41.9,14.1,41.9,14L41.9,14C41.9,14.1,41.9,14.1,41.9,14z M41.9,14.4
			C41.9,14.4,41.9,14.4,41.9,14.4C41.9,14.4,41.9,14.4,41.9,14.4z M42,8.8c0,0,0-0.1,0.1-0.1c0,0-0.1,0-0.1,0c0,0,0,0,0-0.1
			c0,0-0.1,0-0.1,0c0,0,0,0,0-0.1c0,0,0.1,0,0.1,0c0,0,0,0,0,0.1c0,0,0.1,0,0.1,0.1l0.1-0.1c0,0,0,0,0,0c0,0,0,0,0,0
			c0,0,0.1,0,0.1-0.1c0.1,0,0.1,0,0.1,0.1c0,0.1,0,0.1-0.1,0.2l0.1,0.1c0,0,0.1-0.1,0.1-0.1c0,0,0,0,0,0s0,0,0,0c0,0,0,0.1,0,0.1
			c0,0,0,0,0,0.1h0.1v0.1l0,0c0,0,0,0,0,0V8.9l-0.1-0.1C42.5,8.9,42.5,9,42.5,9s0,0-0.1,0c0,0,0-0.1,0.1-0.1c0,0,0,0,0,0
			c0,0,0,0.1-0.1,0.1l-0.1-0.2l0,0C42.2,8.8,42.1,8.8,42,8.8z M42,9C41.9,9,41.9,9,42,9L42,9C42,9.1,42,9.1,42,9L42,9z M42,11.5
			C42,11.5,42,11.5,42,11.5C41.9,11.5,41.9,11.5,42,11.5L42,11.5z M41.9,13.2L41.9,13.2C42,13.1,42,13.1,41.9,13.2L41.9,13.2
			L41.9,13.2z M42.1,13.7c0,0-0.1,0-0.2,0v0C42,13.7,42.1,13.7,42.1,13.7z M41.9,13.9C41.9,13.9,42,13.9,41.9,13.9
			C42,13.9,42,13.9,41.9,13.9z M42,14.7C41.9,14.7,41.9,14.7,42,14.7L42,14.7C42,14.7,42,14.7,42,14.7L42,14.7z M42,7.9
			C42,7.9,42,7.9,42,7.9L42,7.9C42.1,7.9,42.1,7.9,42,7.9z M42.1,13.3C42.1,13.3,42.1,13.3,42.1,13.3L42.1,13.3L42.1,13.3
			C42.1,13.3,42.1,13.3,42.1,13.3z M42,13.4L42,13.4L42,13.4c0.1,0.1,0.1,0,0.1,0H42z M42.1,15C42.1,15,42.1,15,42.1,15L42.1,15
			C42,15,42,15,42.1,15C42,15,42,15,42.1,15C42,15,42.1,15,42.1,15z M42.2,12.2C42.2,12.2,42.2,12.2,42.2,12.2
			C42.2,12.2,42.2,12.3,42.2,12.2C42.2,12.3,42.2,12.3,42.2,12.2L42,12.3L42.2,12.2C42.2,12.2,42.2,12.2,42.2,12.2z M42.1,8.5
			L42.1,8.5L42.1,8.5L42.1,8.5z M42.1,11L42.1,11L42.1,11L42.1,11C42.1,11,42.1,11,42.1,11z M42.2,11.4L42.2,11.4
			C42.2,11.4,42.2,11.4,42.2,11.4c-0.1,0-0.1,0-0.1,0C42.1,11.4,42.1,11.4,42.2,11.4L42.2,11.4z M42.2,15.3
			C42.2,15.2,42.1,15.2,42.2,15.3C42.1,15.2,42.1,15.3,42.2,15.3z M42.1,7.9C42.1,7.9,42.2,8,42.1,7.9C42.2,8,42.2,8,42.1,7.9
			C42.2,8,42.2,8,42.2,8s0,0,0,0L42.1,7.9z M42.4,11.3l-0.2-0.2c0,0,0,0-0.1,0c0.1,0.1,0.2,0.1,0.2,0.1c0,0,0,0.1,0.1,0.1L42.4,11.3
			z M42.2,11v-0.2c0,0-0.1,0.1-0.1,0.1C42.2,10.9,42.2,10.9,42.2,11L42.2,11z M42.2,12.1C42.2,12.1,42.2,12.1,42.2,12.1
			C42.2,12.1,42.2,12.1,42.2,12.1C42.2,12.1,42.2,12.1,42.2,12.1z M42.2,12.8C42.2,12.8,42.2,12.8,42.2,12.8
			C42.2,12.8,42.2,12.8,42.2,12.8C42.2,12.8,42.2,12.8,42.2,12.8L42.2,12.8z M42.2,13C42.2,13,42.2,13.1,42.2,13L42.2,13
			C42.2,13.1,42.2,13.1,42.2,13z M42.2,8.3C42.2,8.3,42.2,8.2,42.2,8.3c0.1-0.1,0.1-0.1,0.2-0.1c0,0,0,0.1-0.1,0.1
			S42.3,8.3,42.2,8.3z M42.2,10.2c0,0.1,0,0.1,0,0.2l0.1-0.1C42.4,10.3,42.3,10.3,42.2,10.2C42.3,10.2,42.3,10.2,42.2,10.2z
			 M42.2,12L42.2,12C42.3,12,42.3,12,42.2,12C42.3,12,42.3,12,42.2,12C42.2,12.1,42.2,12.1,42.2,12z M42.3,12.2
			C42.3,12.2,42.2,12.2,42.3,12.2C42.3,12.1,42.3,12.2,42.3,12.2z M42.2,14.8C42.2,14.8,42.2,14.8,42.2,14.8L42.2,14.8
			C42.3,14.8,42.3,14.8,42.2,14.8z M42.7,11.7c-0.1,0-0.1,0-0.2,0c0,0,0,0,0-0.1c0,0,0,0,0-0.1c0,0,0,0-0.1,0l-0.1,0.1
			c0.1,0,0.1,0,0.1,0.1c0,0,0.1,0,0.1,0.1C42.5,11.7,42.5,11.7,42.7,11.7C42.7,11.7,42.7,11.7,42.7,11.7z M42.3,13.5
			C42.3,13.5,42.3,13.5,42.3,13.5L42.3,13.5C42.3,13.6,42.3,13.6,42.3,13.5z M42.3,9.6C42.3,9.7,42.3,9.7,42.3,9.6
			C42.4,9.6,42.4,9.6,42.3,9.6z M42.3,12.3L42.3,12.3L42.3,12.3L42.3,12.3z M42.3,15.6C42.3,15.6,42.4,15.6,42.3,15.6
			C42.4,15.6,42.4,15.6,42.3,15.6C42.4,15.6,42.3,15.6,42.3,15.6z M42.4,15.1L42.4,15.1L42.4,15.1L42.4,15.1c0,0.1,0,0.1,0,0.2l0,0
			C42.4,15.2,42.4,15.2,42.4,15.1C42.4,15.2,42.4,15.2,42.4,15.1z M43.1,10L43.1,10c-0.1-0.2,0-0.2,0-0.2s0.1,0,0.1,0c0,0,0,0,0,0
			C43.1,9.9,43.1,9.9,43.1,10c0.1,0,0.1,0,0.2,0c0,0,0,0,0,0s0,0,0,0c0,0,0.1,0.1,0.1,0.1c0,0,0.1,0,0.1,0c0-0.1,0-0.1,0-0.1
			c0,0,0,0-0.1,0c0,0,0,0-0.1-0.1c0,0,0-0.1,0-0.2l-0.2,0c0,0,0-0.1,0.1-0.1c0.1,0,0.1-0.1,0.1-0.1l0-0.1l-0.3,0.2
			c0-0.1,0-0.1,0-0.2c-0.1,0-0.2,0-0.4,0c0.1,0.2,0.2,0.3,0.3,0.3c0,0,0,0,0.1,0c0,0,0,0,0.1,0c0.1,0.1,0.1,0.1,0.2,0.2
			S43,10,43.1,10C43,10,43,10,43.1,10z M42.4,11L42.4,11L42.4,11C42.5,11,42.4,11,42.4,11z M42.5,12.6
			C42.5,12.6,42.4,12.5,42.5,12.6c0-0.1,0-0.1,0-0.1h0C42.4,12.5,42.4,12.6,42.5,12.6z M42.4,15.1L42.4,15.1L42.4,15.1
			C42.4,15.1,42.4,15.1,42.4,15.1C42.4,15.1,42.4,15.1,42.4,15.1z M42.4,15.7C42.4,15.7,42.4,15.7,42.4,15.7
			C42.4,15.7,42.4,15.7,42.4,15.7z M42.5,10.3L42.5,10.3L42.5,10.3C42.4,10.3,42.4,10.3,42.5,10.3C42.4,10.3,42.4,10.3,42.5,10.3
			L42.5,10.3z M42.4,10.6C42.4,10.7,42.4,10.7,42.4,10.6c0.1,0.1,0.1,0.1,0.1,0.1c0,0,0,0,0,0s0,0,0,0
			C42.6,10.6,42.5,10.6,42.4,10.6z M42.5,11.7L42.5,11.7L42.5,11.7L42.5,11.7C42.4,11.8,42.5,11.8,42.5,11.7z M42.5,7.6
			C42.5,7.7,42.5,7.7,42.5,7.6L42.5,7.6C42.5,7.7,42.5,7.6,42.5,7.6C42.5,7.7,42.5,7.7,42.5,7.6z M42.5,8.1c0.1,0,0.1,0,0.1,0.1
			c0,0.1,0.1,0.1,0.2,0.1c0,0.1,0,0.2,0,0.1c0,0-0.1,0-0.2,0.2l0-0.2c0,0-0.1,0-0.1,0S42.5,8.3,42.5,8.1z M42.5,9.3
			C42.5,9.3,42.5,9.3,42.5,9.3L42.5,9.3C42.5,9.4,42.5,9.4,42.5,9.3z M42.5,10C42.6,10,42.6,10,42.5,10c0.1,0,0.1-0.1,0.1-0.1
			C42.6,9.9,42.6,9.9,42.5,10C42.6,9.9,42.5,9.9,42.5,10z M42.8,11C42.8,11,42.7,11,42.8,11c-0.1,0-0.1,0-0.1,0.1L42.6,11l0,0
			l0.2,0.2V11z M42.6,11.6C42.6,11.6,42.6,11.6,42.6,11.6C42.5,11.6,42.6,11.6,42.6,11.6z M42.6,11.8C42.6,11.8,42.5,11.9,42.6,11.8
			c-0.1,0.1,0,0.1,0,0.1V11.8z M42.6,12.4c0,0,0,0.1,0,0.2c0,0,0,0,0,0S42.6,12.5,42.6,12.4L42.6,12.4z M42.5,15.6L42.5,15.6
			C42.6,15.6,42.6,15.6,42.5,15.6L42.5,15.6z M42.6,11.3L42.6,11.3c0,0.1,0,0.1,0,0.1c0,0,0.1,0.1,0.1,0.1c0,0,0,0,0,0s0,0,0,0
			L42.6,11.3z M42.6,8.8C42.6,8.7,42.6,8.7,42.6,8.8c0.1-0.1,0.2,0,0.2,0.1C42.8,8.9,42.7,8.8,42.6,8.8C42.7,8.8,42.6,8.8,42.6,8.8z
			 M42.8,10.8L42.8,10.8L42.8,10.8L42.8,10.8l-0.1-0.1c0,0,0,0,0,0.1L42.8,10.8L42.8,10.8z M42.6,15.6L42.6,15.6L42.6,15.6z M42.6,8
			C42.7,8,42.7,8,42.6,8c0,0,0-0.1,0-0.2C42.6,7.8,42.6,7.9,42.6,8L42.6,8z M42.7,9L42.7,9L42.7,9L42.7,9L42.7,9
			C42.7,9,42.7,9,42.7,9z M42.6,9.6C42.6,9.6,42.6,9.5,42.6,9.6C42.7,9.6,42.6,9.6,42.6,9.6z M42.6,10.1c0,0.1,0,0.2,0.1,0.2
			s0.1,0,0.1,0.1l-0.1,0.1h0.2l0,0c0,0,0,0,0,0c0,0,0,0,0,0s0,0,0,0l-0.1,0l0-0.2l-0.1-0.1L42.6,10.1z M42.6,15.6
			C42.6,15.6,42.6,15.6,42.6,15.6L42.6,15.6C42.6,15.5,42.6,15.5,42.6,15.6z M42.8,12.4l-0.1-0.3c0,0.1,0,0.2,0,0.2c0,0,0,0.1,0,0.1
			C42.7,12.4,42.8,12.4,42.8,12.4z M43,8.7c0,0-0.1,0-0.1,0s-0.1,0-0.1-0.1c0,0-0.1,0-0.1,0c0,0,0,0,0-0.1l0.1-0.1
			c0,0,0.1,0,0.1,0.1c0,0,0,0.1,0,0.1C42.9,8.6,42.9,8.6,43,8.7C43,8.6,43,8.7,43,8.7z M42.7,9.8L42.7,9.8
			C42.7,9.9,42.7,9.9,42.7,9.8z M42.7,15L42.7,15C42.7,15.1,42.8,15.1,42.7,15L42.7,15z M42.7,15.1C42.8,15.2,42.8,15.2,42.7,15.1
			C42.8,15.2,42.8,15.2,42.7,15.1C42.8,15.1,42.8,15.1,42.7,15.1z M42.8,11C42.8,11,42.8,11,42.8,11c0.1,0,0.1,0,0.2,0c0,0,0,0,0,0
			C42.8,10.9,42.8,10.9,42.8,11z M42.8,8C42.8,8,42.8,8,42.8,8C42.8,8.1,42.8,8.1,42.8,8z M42.8,8.5C42.9,8.4,42.9,8.4,42.8,8.5
			c0-0.1,0.1-0.1,0.1-0.2c0,0,0.1,0.1,0.1,0.1c0,0,0,0.1,0,0.1c0,0,0,0,0,0.1L42.8,8.5z M42.9,8.9L42.9,8.9c0,0.1,0,0.1,0,0.1
			C42.9,8.9,42.9,8.9,42.9,8.9L42.9,8.9z M42.9,11.2C42.9,11.2,42.9,11.2,42.9,11.2C42.9,11.3,42.9,11.3,42.9,11.2z M42.9,11.7
			C42.9,11.8,42.9,11.8,42.9,11.7C42.9,11.8,42.9,11.8,42.9,11.7z M42.9,7.9C42.9,7.9,43,7.9,42.9,7.9L42.9,7.9
			C43,7.9,43,7.9,42.9,7.9C43,7.9,42.9,7.9,42.9,7.9z M42.9,11.8C43,11.7,43,11.7,42.9,11.8C43,11.7,43,11.7,42.9,11.8
			C43,11.7,42.9,11.7,42.9,11.8L42.9,11.8z M43.1,8.6C43.1,8.6,43.1,8.7,43.1,8.6c0,0.1,0,0.1,0,0.2H43L43.1,8.6z M43,9.2L43,9
			c0,0,0,0.1,0,0.1C43.1,9.1,43.1,9.1,43,9.2L43,9.2z M43.1,11c0.1,0,0.1-0.1,0.1-0.1c0,0,0-0.1,0-0.1c0,0-0.1-0.1-0.1-0.1
			c0,0,0,0,0,0c0,0,0.1,0.1,0.1,0.1S43.1,10.9,43.1,11L43.1,11L43.1,11C43.1,11,43.1,11,43.1,11z M43.1,9L43.1,9L43.1,9L43.1,9
			L43.1,9z M43.1,10.6C43.1,10.6,43.1,10.6,43.1,10.6C43.2,10.6,43.2,10.6,43.1,10.6l0.1-0.1C43.1,10.5,43.1,10.5,43.1,10.6
			C43.1,10.6,43.1,10.6,43.1,10.6z M43.1,10.5C43.1,10.5,43.1,10.5,43.1,10.5L43.1,10.5C43.1,10.5,43.1,10.5,43.1,10.5z M43.2,10.4
			C43.2,10.4,43.2,10.4,43.2,10.4L43.2,10.4C43.2,10.4,43.2,10.4,43.2,10.4C43.2,10.5,43.2,10.5,43.2,10.4L43.2,10.4z M43.3,8.7v0.2
			V8.7L43.3,8.7z M43.3,9.7C43.3,9.7,43.3,9.7,43.3,9.7L43.3,9.7C43.3,9.6,43.2,9.6,43.3,9.7C43.3,9.7,43.3,9.7,43.3,9.7
			C43.3,9.7,43.3,9.7,43.3,9.7z M43.3,8C43.3,8,43.3,8,43.3,8C43.3,7.9,43.3,8,43.3,8z M43.3,8.2C43.3,8.2,43.3,8.2,43.3,8.2
			C43.3,8.1,43.3,8.2,43.3,8.2L43.3,8.2z M43.3,9.2C43.3,9.1,43.3,9.1,43.3,9.2C43.3,9.1,43.3,9.2,43.3,9.2z M43.3,9.7
			c0,0,0.1,0,0.1,0.1c0,0,0.1,0,0.1,0.1c0,0,0-0.1-0.1-0.1S43.4,9.7,43.3,9.7z M43.3,10.3C43.3,10.3,43.3,10.3,43.3,10.3
			C43.4,10.3,43.3,10.3,43.3,10.3z M43.4,10.4C43.3,10.4,43.3,10.4,43.4,10.4L43.4,10.4C43.4,10.5,43.4,10.4,43.4,10.4L43.4,10.4z
			 M43.4,8.6C43.4,8.5,43.5,8.5,43.4,8.6c0.1-0.1,0.1-0.2,0.1-0.2C43.4,8.4,43.4,8.5,43.4,8.6C43.4,8.5,43.4,8.6,43.4,8.6z
			 M43.5,9.1L43.5,9.1L43.5,9.1C43.6,9.1,43.6,9.1,43.5,9.1l0.1,0.1l0.1,0C43.7,9.1,43.6,9.1,43.5,9.1l0.1-0.2c0,0-0.1,0-0.1-0.1
			c0,0,0,0-0.1,0c0,0,0,0-0.1,0l0.1,0.1C43.5,8.9,43.4,9,43.4,9C43.4,9,43.4,9,43.5,9.1C43.5,9,43.5,9,43.5,9.1z M43.4,8.4L43.4,8.4
			L43.4,8.4L43.4,8.4z M43.5,9.5C43.5,9.5,43.5,9.5,43.5,9.5l0.1,0.2c0,0,0.1-0.1,0.1-0.1c0,0,0,0,0-0.1L43.5,9.5z M43.5,8.4
			L43.5,8.4L43.5,8.4C43.5,8.4,43.5,8.4,43.5,8.4C43.5,8.4,43.5,8.4,43.5,8.4C43.5,8.4,43.5,8.4,43.5,8.4z M43.5,7.8
			C43.5,7.8,43.5,7.9,43.5,7.8L43.5,7.8C43.5,7.9,43.5,7.9,43.5,7.8z M43.5,8.1L43.5,8.1L43.5,8.1C43.5,8.1,43.5,8.1,43.5,8.1z
			 M43.5,8.7C43.5,8.7,43.5,8.7,43.5,8.7C43.5,8.6,43.5,8.7,43.5,8.7z M43.5,9.8C43.5,9.9,43.5,9.9,43.5,9.8c0,0.1,0,0.1,0,0.2l0,0
			C43.6,9.9,43.6,9.9,43.5,9.8z M43.6,9.3C43.5,9.3,43.6,9.3,43.6,9.3C43.6,9.3,43.6,9.3,43.6,9.3C43.6,9.3,43.6,9.3,43.6,9.3
			C43.6,9.2,43.6,9.3,43.6,9.3z M43.7,8C43.6,8,43.6,8,43.7,8C43.7,8.1,43.7,8.1,43.7,8z M43.7,8.2C43.6,8.2,43.6,8.3,43.7,8.2
			C43.7,8.3,43.7,8.3,43.7,8.2z M43.8,8.6c0-0.1,0-0.1,0-0.1c0,0-0.1,0-0.1,0C43.7,8.5,43.7,8.5,43.8,8.6
			C43.8,8.6,43.8,8.6,43.8,8.6z M43.6,8.7C43.7,8.7,43.7,8.7,43.6,8.7C43.6,8.6,43.6,8.7,43.6,8.7z M43.8,9.5L43.8,9.5l-0.1-0.1
			L43.8,9.5z M43.7,9.8C43.7,9.8,43.7,9.8,43.7,9.8C43.8,9.8,43.7,9.8,43.7,9.8z M43.8,9C43.8,9,43.8,9.1,43.8,9L43.8,9
			C43.8,9,43.8,9,43.8,9C43.8,9,43.8,9,43.8,9z M43.8,8.2C43.8,8.2,43.8,8.3,43.8,8.2l0,0.2C43.8,8.4,43.8,8.4,43.8,8.2L43.8,8.2z
			 M43.9,8.9L43.9,8.9L43.9,8.9C44,9,44,9,43.9,8.9C44,9,44,8.9,43.9,8.9z"/>
	</g>
	<g>
		<path class="st0" d="M52.7,13.5c0.1,0,0.1,0.1,0.2,0.1c0,0,0.1,0.1,0.1,0.2c0,0.1,0,0.2-0.1,0.4c-0.1,0.1-0.1,0.2-0.2,0.4
			s-0.2,0.2-0.2,0.4c-0.1,0.1-0.1,0.3-0.2,0.4c-0.1,0.3-0.2,0.6-0.4,0.8c-0.2,0.2-0.4,0.5-0.6,0.6c-0.2,0.2-0.4,0.3-0.6,0.4
			c-0.2,0.1-0.4,0.1-0.5,0.1c0,0-0.1,0-0.1,0c0,0-0.1,0-0.1,0c0,0,0,0,0,0s0,0,0,0c-0.2-0.2-0.4-0.5-0.6-0.9
			c-0.2-0.4-0.3-0.7-0.3-1.1c0-0.2,0-0.4,0.1-0.7c0.1-0.3,0.2-0.6,0.3-1c0.1-0.3,0.2-0.7,0.4-1.1c0.1-0.4,0.2-0.8,0.4-1.2
			c0.1-0.1,0.1-0.2,0.2-0.3c0-0.1,0.1-0.2,0.1-0.3c0-0.1,0-0.1,0-0.2c0-0.1-0.1-0.1-0.1-0.1c-0.2,0-0.3,0.1-0.5,0.3
			c-0.2,0.2-0.3,0.4-0.4,0.6c-0.1,0.2-0.3,0.4-0.4,0.6c-0.1,0.2-0.2,0.3-0.3,0.4c-0.2,0.1-0.3,0.3-0.4,0.6c-0.1,0.3-0.2,0.5-0.4,0.7
			c0,0.2-0.1,0.5-0.3,0.8s-0.3,0.5-0.5,0.7c-0.1,0.2-0.2,0.4-0.3,0.6c-0.1,0.2-0.2,0.5-0.4,0.7c-0.1,0.2-0.3,0.4-0.4,0.5
			s-0.3,0.2-0.4,0.2c-0.1,0-0.2,0-0.2,0s-0.2,0-0.2,0c-0.1-0.1-0.2-0.2-0.2-0.2c-0.1-0.1-0.1-0.2-0.1-0.3c0-0.4,0-0.7,0.1-1
			c0.1-0.3,0.2-0.7,0.4-1l0.1-0.5c0,0,0-0.1,0-0.1c0,0,0-0.1,0-0.1c0-0.2,0.1-0.4,0.2-0.6c0.1-0.2,0.2-0.5,0.3-0.7
			c0.1-0.2,0.2-0.5,0.3-0.7s0.1-0.4,0.1-0.5c0.1-0.2,0.2-0.4,0.3-0.6c0.1-0.3,0.1-0.5,0.2-0.7c0.1-0.2,0.1-0.4,0.2-0.5
			c0.1-0.2,0.1-0.4,0.1-0.6c0.1-0.2,0.2-0.3,0.2-0.5C47,8.1,47,7.9,47.1,7.7s0.2-0.3,0.3-0.5c0.1-0.2,0.3-0.3,0.5-0.4
			c0.3,0.1,0.5,0.2,0.6,0.4c0.1,0.1,0.2,0.3,0.2,0.5c0,0.2,0,0.3-0.1,0.6c-0.1,0.2-0.2,0.5-0.3,0.7c-0.1,0.3-0.3,0.5-0.4,0.8
			c-0.1,0.3-0.2,0.5-0.3,0.8c0,0,0.1,0.1,0.2,0.1c0.1,0,0.3-0.1,0.4-0.3c0.2-0.2,0.4-0.4,0.6-0.6c0.2-0.2,0.4-0.5,0.6-0.7
			s0.4-0.4,0.7-0.5c0.2-0.1,0.3-0.2,0.5-0.4C50.7,8,50.8,7.8,51,7.6c0.2-0.2,0.4-0.3,0.6-0.4C51.9,7.1,52.1,7,52.3,7
			c0.3,0,0.5,0.1,0.7,0.3c0.2,0.2,0.3,0.3,0.3,0.4c-0.2,0.2-0.3,0.4-0.4,0.7c-0.1,0.2-0.3,0.4-0.5,0.6c-0.2,0.5-0.4,0.9-0.5,1.1
			s-0.3,0.5-0.4,0.7c-0.1,0.2-0.2,0.4-0.3,0.6c-0.1,0.2-0.2,0.5-0.3,0.9c-0.1,0.3-0.2,0.5-0.2,0.7c-0.1,0.2-0.1,0.4-0.2,0.6
			c-0.1,0.2-0.1,0.4-0.1,0.7c0,0.2,0,0.5,0,0.9c0.1,0.2,0.1,0.3,0.2,0.3c0,0.1,0.2,0.1,0.4,0.1c0.3-0.3,0.5-0.6,0.8-0.9
			C52,14.1,52.3,13.8,52.7,13.5z M46.6,12.3l-0.3,0.2c0,0,0.1,0,0.1,0c0,0,0,0,0.1,0C46.6,12.5,46.6,12.4,46.6,12.3z M46.7,12.1
			C46.6,12.1,46.6,12.1,46.7,12.1L46.7,12.1l-0.1,0.1l0,0L46.7,12.1L46.7,12.1C46.7,12.1,46.7,12.1,46.7,12.1z M46.8,12.3l0,0.2H47
			c0,0,0-0.1,0-0.2l-0.1,0.1L46.8,12.3z M46.8,11.9C46.8,11.9,46.8,11.9,46.8,11.9C46.8,11.9,46.8,11.9,46.8,11.9L46.8,11.9
			L46.8,11.9C46.9,11.9,46.9,11.9,46.8,11.9z M46.8,13L46.8,13c0.1-0.1,0-0.1,0-0.1V13z M46.9,11.8C47,11.8,47,11.7,46.9,11.8
			c0.1-0.1,0-0.1,0-0.1s0-0.1,0-0.1V11.8z M47,11.9L47,11.9c0,0.1,0.1,0.1,0.1,0.1c0.1,0,0.1,0,0.1-0.1H47z M47.2,12.5
			C47.2,12.5,47.2,12.5,47.2,12.5l0-0.2C47.2,12.4,47.2,12.4,47.2,12.5L47.2,12.5z M47.2,12.2c0,0,0,0.1,0,0.2l0.1-0.2H47.2z
			 M47.4,11.7C47.4,11.7,47.4,11.7,47.4,11.7C47.4,11.6,47.4,11.6,47.4,11.7L47.4,11.7C47.3,11.7,47.3,11.8,47.4,11.7
			C47.4,11.7,47.4,11.7,47.4,11.7z M47.4,11.4C47.4,11.4,47.4,11.5,47.4,11.4c0,0.1,0,0.1,0.1,0.1C47.4,11.5,47.4,11.5,47.4,11.4
			L47.4,11.4z M47.6,11.8l-0.2-0.1l0.2,0.4V11.8L47.6,11.8L47.6,11.8C47.7,11.8,47.7,11.8,47.6,11.8L47.6,11.8z M50.8,9.5
			C50.8,9.4,50.8,9.4,50.8,9.5C50.8,9.4,50.8,9.4,50.8,9.5c-0.1-0.1-0.1,0-0.1,0H50.8z"/>
	</g>
	<g>
		<path class="st0" d="M60,13.5c0.1,0,0.1,0.1,0.2,0.1c0,0,0.1,0.1,0.1,0.2c0,0.1,0,0.2-0.1,0.4c-0.1,0.1-0.1,0.2-0.2,0.4
			s-0.2,0.2-0.2,0.4c-0.1,0.1-0.1,0.3-0.2,0.4c-0.1,0.3-0.2,0.6-0.4,0.8c-0.2,0.2-0.4,0.5-0.6,0.6c-0.2,0.2-0.4,0.3-0.6,0.4
			c-0.2,0.1-0.4,0.1-0.5,0.1c0,0-0.1,0-0.1,0c0,0-0.1,0-0.1,0c0,0,0,0,0,0s0,0,0,0c-0.2-0.2-0.4-0.5-0.6-0.9
			c-0.2-0.4-0.3-0.7-0.3-1.1c0-0.2,0-0.4,0.1-0.7c0.1-0.3,0.2-0.6,0.3-1c0.1-0.3,0.2-0.7,0.4-1.1c0.1-0.4,0.2-0.8,0.4-1.2
			c0.1-0.1,0.1-0.2,0.2-0.3c0-0.1,0.1-0.2,0.1-0.3c0-0.1,0-0.1,0-0.2c0-0.1-0.1-0.1-0.1-0.1c-0.2,0-0.3,0.1-0.5,0.3
			c-0.2,0.2-0.3,0.4-0.4,0.6c-0.1,0.2-0.3,0.4-0.4,0.6c-0.1,0.2-0.2,0.3-0.3,0.4c-0.2,0.1-0.3,0.3-0.4,0.6c-0.1,0.3-0.2,0.5-0.4,0.7
			c0,0.2-0.1,0.5-0.3,0.8s-0.3,0.5-0.5,0.7c-0.1,0.2-0.2,0.4-0.3,0.6c-0.1,0.2-0.2,0.5-0.4,0.7c-0.1,0.2-0.3,0.4-0.4,0.5
			s-0.3,0.2-0.4,0.2c-0.1,0-0.2,0-0.2,0s-0.2,0-0.2,0c-0.1-0.1-0.2-0.2-0.2-0.2c-0.1-0.1-0.1-0.2-0.1-0.3c0-0.4,0-0.7,0.1-1
			c0.1-0.3,0.2-0.7,0.4-1l0.1-0.5c0,0,0-0.1,0-0.1c0,0,0-0.1,0-0.1c0-0.2,0.1-0.4,0.2-0.6c0.1-0.2,0.2-0.5,0.3-0.7
			c0.1-0.2,0.2-0.5,0.3-0.7s0.1-0.4,0.1-0.5c0.1-0.2,0.2-0.4,0.3-0.6c0.1-0.3,0.1-0.5,0.2-0.7c0.1-0.2,0.1-0.4,0.2-0.5
			C54,9.1,54,8.9,54,8.7c0.1-0.2,0.2-0.3,0.2-0.5c0.1-0.2,0.1-0.4,0.2-0.5s0.2-0.3,0.3-0.5c0.1-0.2,0.3-0.3,0.5-0.4
			c0.3,0.1,0.5,0.2,0.6,0.4C55.9,7.3,56,7.5,56,7.7c0,0.2,0,0.3-0.1,0.6c-0.1,0.2-0.2,0.5-0.3,0.7c-0.1,0.3-0.3,0.5-0.4,0.8
			c-0.1,0.3-0.2,0.5-0.3,0.8c0,0,0.1,0.1,0.2,0.1c0.1,0,0.3-0.1,0.4-0.3c0.2-0.2,0.4-0.4,0.6-0.6c0.2-0.2,0.4-0.5,0.6-0.7
			s0.4-0.4,0.7-0.5c0.2-0.1,0.3-0.2,0.5-0.4C58,8,58.2,7.8,58.4,7.6c0.2-0.2,0.4-0.3,0.6-0.4C59.2,7.1,59.4,7,59.6,7
			c0.3,0,0.5,0.1,0.7,0.3c0.2,0.2,0.3,0.3,0.3,0.4c-0.2,0.2-0.3,0.4-0.4,0.7c-0.1,0.2-0.3,0.4-0.5,0.6c-0.2,0.5-0.4,0.9-0.5,1.1
			s-0.3,0.5-0.4,0.7c-0.1,0.2-0.2,0.4-0.3,0.6c-0.1,0.2-0.2,0.5-0.3,0.9c-0.1,0.3-0.2,0.5-0.2,0.7c-0.1,0.2-0.1,0.4-0.2,0.6
			c-0.1,0.2-0.1,0.4-0.1,0.7c0,0.2,0,0.5,0,0.9c0.1,0.2,0.1,0.3,0.2,0.3c0,0.1,0.2,0.1,0.4,0.1c0.3-0.3,0.5-0.6,0.8-0.9
			C59.4,14.1,59.7,13.8,60,13.5z M54,12.3l-0.3,0.2c0,0,0.1,0,0.1,0c0,0,0,0,0.1,0C53.9,12.5,54,12.4,54,12.3z M54,12.1
			C54,12.1,54,12.1,54,12.1L54,12.1l-0.1,0.1l0,0L54,12.1L54,12.1C54,12.1,54,12.1,54,12.1z M54.1,12.3l0,0.2h0.3c0,0,0-0.1,0-0.2
			l-0.1,0.1L54.1,12.3z M54.2,11.9C54.2,11.9,54.2,11.9,54.2,11.9C54.1,11.9,54.1,11.9,54.2,11.9L54.2,11.9L54.2,11.9
			C54.2,11.9,54.2,11.9,54.2,11.9z M54.1,13L54.1,13c0.1-0.1,0-0.1,0-0.1V13z M54.3,11.8C54.3,11.8,54.3,11.7,54.3,11.8
			c0.1-0.1,0-0.1,0-0.1s0-0.1,0-0.1V11.8z M54.3,11.9L54.3,11.9c0,0.1,0.1,0.1,0.1,0.1c0.1,0,0.1,0,0.1-0.1H54.3z M54.5,12.5
			C54.5,12.5,54.5,12.5,54.5,12.5l0-0.2C54.5,12.4,54.5,12.4,54.5,12.5L54.5,12.5z M54.5,12.2c0,0,0,0.1,0,0.2l0.1-0.2H54.5z
			 M54.7,11.7C54.7,11.7,54.7,11.7,54.7,11.7C54.8,11.6,54.8,11.6,54.7,11.7L54.7,11.7C54.7,11.7,54.7,11.8,54.7,11.7
			C54.7,11.7,54.7,11.7,54.7,11.7z M54.7,11.4C54.7,11.4,54.7,11.5,54.7,11.4c0,0.1,0,0.1,0.1,0.1C54.8,11.5,54.8,11.5,54.7,11.4
			L54.7,11.4z M54.9,11.8l-0.2-0.1l0.2,0.4V11.8L54.9,11.8L54.9,11.8C55,11.8,55,11.8,54.9,11.8L54.9,11.8z M58.1,9.5
			C58.1,9.4,58.1,9.4,58.1,9.5C58.1,9.4,58.1,9.4,58.1,9.5c-0.1-0.1-0.1,0-0.1,0H58.1z"/>
	</g>
	<g>
		<path class="st0" d="M64.4,6.6h0.7c0,0.2,0.1,0.3,0.3,0.4c0.1,0.1,0.3,0.2,0.5,0.3c0.2,0.1,0.3,0.2,0.4,0.3s0.2,0.3,0.3,0.5
			c0,0.1-0.1,0.2-0.1,0.3c0,0.1,0,0.2,0,0.4c0,0.2-0.1,0.4-0.3,0.7c-0.2,0.3-0.3,0.6-0.4,0.9c0,0.2-0.1,0.3-0.2,0.5
			c-0.1,0.1-0.2,0.3-0.2,0.4c-0.2,0.1-0.3,0.2-0.4,0.3s-0.2,0.2-0.4,0.4s-0.2,0.3-0.4,0.4c-0.1,0.1-0.3,0.2-0.5,0.3
			c-0.2,0.1-0.3,0.2-0.5,0.3c-0.2,0.1-0.3,0.2-0.4,0.2c-0.1,0-0.1,0-0.2-0.1c-0.1,0-0.2,0.1-0.3,0.1c-0.1,0-0.3,0-0.4-0.1
			c-0.2,0.1-0.4,0.2-0.4,0.2c-0.1,0-0.2,0.1-0.3,0.2c-0.2,0.2-0.3,0.5-0.4,0.8c-0.1,0.3-0.2,0.5-0.2,0.7c0,0.1,0,0.1,0.1,0.2
			c0,0.1,0.1,0.1,0.1,0.2c0,0.2,0,0.3,0.1,0.5c0.1,0.1,0.2,0.2,0.4,0.3c0.2,0.1,0.3,0.1,0.5,0.2c0.2,0,0.4,0,0.5,0
			c0.3,0,0.5,0,0.7-0.1s0.4-0.2,0.6-0.4c0.2-0.1,0.4-0.3,0.6-0.4c0.2-0.2,0.4-0.3,0.6-0.4c0.2-0.1,0.3-0.2,0.4-0.4s0.3-0.3,0.4-0.5
			c0.1-0.2,0.3-0.3,0.4-0.5s0.3-0.2,0.4-0.2c0.2,0,0.2,0.1,0.2,0.2c0,0.2-0.1,0.4-0.2,0.5c-0.2,0.1-0.3,0.3-0.3,0.5
			c-0.1,0.2-0.2,0.4-0.3,0.6s-0.3,0.3-0.5,0.4c-0.2,0.1-0.4,0.2-0.6,0.4c-0.2,0.1-0.4,0.3-0.5,0.4c-0.1,0.1-0.2,0.3-0.3,0.4
			s-0.3,0.2-0.4,0.3s-0.3,0.1-0.5,0.2c-0.2,0-0.4,0.1-0.6,0.2s-0.5,0.2-0.7,0.2c-0.1,0-0.2,0-0.4-0.1c-0.1,0-0.3-0.1-0.4-0.1
			c-0.1-0.1-0.3-0.1-0.4-0.1c-0.1,0-0.2-0.1-0.3-0.1c-0.1-0.1-0.3-0.3-0.4-0.5c-0.1-0.2-0.3-0.4-0.4-0.6c-0.1-0.2-0.2-0.5-0.3-0.7
			c-0.1-0.2-0.1-0.5-0.1-0.7c0,0,0-0.1,0-0.1c0,0,0-0.1,0-0.1c0-0.1,0-0.1,0-0.2c0,0,0-0.1,0-0.2c0,0,0-0.1,0-0.1c0,0,0-0.1,0-0.1
			c0,0,0-0.1,0-0.1s0-0.1,0-0.1c0.1-0.4,0.3-0.8,0.4-1.2c0.1-0.4,0.4-0.9,0.8-1.5c0-0.1,0.1-0.2,0.2-0.3c0.1-0.1,0.1-0.3,0.2-0.4
			c0.1-0.1,0.2-0.3,0.3-0.4c0.1-0.1,0.2-0.2,0.3-0.3c0.1-0.1,0.3-0.2,0.4-0.3C61.8,9,61.9,8.8,62,8.7c0.1-0.1,0.2-0.2,0.3-0.4
			c0.1-0.1,0.2-0.2,0.2-0.3C62.7,8,62.9,7.8,63,7.7c0.1-0.2,0.3-0.3,0.5-0.4c0.1,0,0.1-0.1,0.2-0.1S63.9,7,64,6.9
			c0.1-0.1,0.2-0.1,0.3-0.2C64.3,6.7,64.4,6.7,64.4,6.6z M65,8.2l-0.3-0.1c-0.1,0-0.3,0-0.4,0.1c-0.1,0.1-0.2,0.2-0.3,0.3
			c-0.1,0.1-0.2,0.3-0.3,0.4c-0.1,0.1-0.2,0.3-0.3,0.4c-0.1,0.1-0.3,0.3-0.4,0.5c-0.1,0.2-0.3,0.3-0.4,0.5c-0.1,0.2-0.2,0.4-0.3,0.5
			c-0.1,0.2-0.1,0.4-0.1,0.5c0.2,0,0.4-0.1,0.7-0.3c0.3-0.2,0.5-0.4,0.7-0.7c0.2-0.3,0.5-0.5,0.7-0.8c0.2-0.3,0.3-0.5,0.4-0.6
			c0-0.1,0.1-0.3,0.1-0.4C64.8,8.5,64.9,8.3,65,8.2z"/>
	</g>
	<g>
		<path class="st0" d="M65.6,15.1c0.1-0.1,0.1-0.3,0.2-0.4c0.1-0.2,0.1-0.4,0.1-0.5c0-0.2,0.1-0.4,0.1-0.5c0-0.2,0-0.3,0-0.4
			c0-0.1,0-0.3,0.1-0.4c0.1-0.2,0.1-0.4,0.2-0.5c0.1-0.2,0.1-0.3,0.2-0.5c0.1-0.1,0.1-0.2,0.1-0.2c0-0.1,0.1-0.2,0.1-0.3
			s0-0.2,0.1-0.3c0-0.1,0.1-0.2,0.2-0.4c0.1-0.1,0.1-0.2,0.1-0.4c0.2-0.4,0.3-0.8,0.4-1.2s0.3-0.8,0.5-1.2c0.1-0.2,0.2-0.4,0.3-0.6
			c0.1-0.2,0.2-0.3,0.5-0.4C69,6.9,69.2,7,69.4,7.1c0.2,0.1,0.3,0.4,0.4,0.7c0,0.1-0.1,0.3-0.1,0.4c0,0.1-0.1,0.2-0.1,0.3
			c0,0,0.1,0.1,0.2,0.2c0.2-0.2,0.4-0.4,0.5-0.6c0.2-0.2,0.4-0.3,0.7-0.4c0,0.1,0.1,0.1,0.2,0.1c0,0,0.1,0,0.1,0c0,0,0.1,0,0.1,0
			c0.1,0,0.1,0,0.2,0.1c0.1,0.1,0.2,0.2,0.3,0.3c0.1,0.1,0.2,0.2,0.4,0.3c0.1,0.1,0.2,0.2,0.3,0.3c0.1,0.1,0.1,0.1,0.2,0.1
			C72.9,8.9,73,9,73,9c0.1,0,0.1,0.1,0.2,0.2s0.1,0.2,0.1,0.3l-0.4,0.3c-0.2,0-0.4-0.1-0.6-0.2c-0.2-0.1-0.4-0.2-0.7-0.2
			c-0.2,0-0.4,0.1-0.6,0.3s-0.3,0.3-0.4,0.5c-0.1,0.2-0.2,0.3-0.3,0.5c-0.1,0.1-0.1,0.2-0.1,0.2c-0.2,0.2-0.3,0.3-0.5,0.6
			c-0.1,0.2-0.3,0.4-0.4,0.7c-0.1,0.2-0.2,0.5-0.3,0.7c-0.1,0.2-0.2,0.4-0.2,0.6c-0.2,0.4-0.4,0.7-0.6,1c-0.2,0.3-0.4,0.7-0.5,1
			c-0.1,0.1-0.2,0.3-0.2,0.5s-0.2,0.3-0.2,0.5s-0.1,0.3-0.2,0.4c-0.1,0.1-0.1,0.2-0.2,0.2c-0.1,0-0.2,0.1-0.2,0.1
			c-0.1,0-0.2,0.1-0.3,0.1c-0.2-0.1-0.3-0.2-0.4-0.3s-0.2-0.2-0.2-0.2c0-0.1-0.1-0.2-0.1-0.2s0-0.2,0-0.3c0-0.2,0-0.3,0-0.4
			C65.6,15.4,65.6,15.3,65.6,15.1z M67.1,12.7C67.1,12.7,67.1,12.7,67.1,12.7c0.1,0,0.1-0.1,0.1-0.1C67.2,12.7,67.1,12.7,67.1,12.7
			C67.1,12.6,67.1,12.7,67.1,12.7z M67.3,11.9L67.3,11.9c-0.1,0,0,0.1,0,0.1C67.3,12,67.3,12,67.3,11.9L67.3,11.9z M67.4,12.8
			C67.4,12.8,67.4,12.8,67.4,12.8C67.4,12.8,67.4,12.7,67.4,12.8L67.4,12.8L67.4,12.8C67.3,12.8,67.4,12.8,67.4,12.8z M67.3,13.3
			L67.3,13.3C67.3,13.4,67.3,13.4,67.3,13.3c0,0.1,0,0.1,0,0.1V13.3z M67.5,11.4C67.5,11.4,67.6,11.5,67.5,11.4
			c0.1,0.1,0.1,0.1,0,0.1l0.2,0.1c0-0.1,0-0.1,0-0.1h-0.1C67.6,11.5,67.6,11.5,67.5,11.4c0.1,0,0.2,0,0.2,0c0.1,0,0.1,0,0.1-0.1
			c-0.1,0-0.1,0-0.1,0C67.6,11.4,67.6,11.4,67.5,11.4C67.6,11.4,67.6,11.4,67.5,11.4C67.5,11.4,67.5,11.4,67.5,11.4L67.5,11.4
			L67.5,11.4L67.5,11.4z M67.4,13.2C67.5,13.2,67.5,13.2,67.4,13.2C67.5,13.2,67.5,13.2,67.4,13.2c0.1,0,0.1,0,0.1-0.2L67.4,13.2z
			 M67.8,12L67.8,12C67.8,12,67.8,12,67.8,12c0,0.1,0,0.1,0,0.2c0,0,0,0-0.1,0s0,0,0,0c0,0-0.1-0.1-0.1-0.2c-0.1,0-0.1,0-0.2,0
			c0,0,0.1,0.1,0.1,0.1c0,0,0,0,0.1,0.1l0.1,0.1c0.1-0.1,0.1-0.1,0.2-0.1c0.1,0,0.1,0,0.1-0.2h0c0,0,0,0,0,0c0,0,0,0,0,0l0,0
			c0,0,0.1-0.1,0.1-0.1c0,0,0-0.1,0.1-0.1c0,0-0.1,0-0.2,0.1C67.9,11.9,67.9,11.9,67.8,12L67.8,12L67.8,12L67.8,12
			C67.8,12,67.8,12,67.8,12C67.9,11.9,67.8,11.9,67.8,12L67.8,12z M67.5,13C67.5,13,67.6,12.9,67.5,13l0-0.1l0,0
			C67.5,12.8,67.5,12.8,67.5,13L67.5,13z M67.7,13L67.7,13C67.7,13,67.7,13,67.7,13c0,0.1,0,0.1,0,0.1V13z M67.9,11.7
			c-0.1,0-0.1,0-0.1,0c0,0,0,0-0.1,0c0,0,0,0.1,0.1,0.1C67.8,11.8,67.8,11.8,67.9,11.7C67.9,11.8,67.9,11.8,67.9,11.7z M67.8,12.3
			C67.8,12.4,67.8,12.4,67.8,12.3c-0.1,0.1-0.1,0.1-0.1,0.1s0,0,0.1,0V12.3z M68,12.7L68,12.7C68,12.7,68,12.7,68,12.7
			C68,12.6,68,12.6,68,12.7c-0.1-0.1-0.1-0.1-0.1-0.1c0,0,0,0-0.1,0l0,0c0,0,0,0,0.1,0C67.9,12.7,67.9,12.7,68,12.7
			C68,12.7,68,12.7,68,12.7z M67.8,10.9c0,0.1,0,0.2,0,0.2c0,0,0,0,0,0C67.9,11,67.9,10.9,67.8,10.9z M68,10.3L68,10.3
			c0,0.1,0,0.1,0,0.1V10.3z M67.9,11.3C67.9,11.3,67.9,11.3,67.9,11.3C67.9,11.3,67.9,11.3,67.9,11.3C68,11.3,68,11.3,67.9,11.3
			C68,11.2,68,11.2,67.9,11.3L67.9,11.3z M68,12.7c0,0.1,0,0.1,0,0.2c0,0,0,0.1,0,0.1c0.1,0,0.2,0,0.3,0c0,0-0.1-0.1-0.1-0.1
			C68.1,12.8,68.1,12.8,68,12.7z M69.2,9.1C69.3,9.1,69.3,9.1,69.2,9.1c0.1,0.2,0.1,0.2,0.1,0.2l0.1,0.1c-0.1,0.1-0.1,0.2-0.2,0.2
			c0,0-0.1,0-0.1,0S69,9.5,69,9.4c0,0,0-0.1,0-0.1c0,0-0.1,0-0.1,0c0,0-0.1,0-0.2,0h0l-0.1,0l0.1,0.1c0,0,0,0,0,0c0,0,0,0,0.1,0
			c0,0,0,0,0,0.1c0,0,0,0,0,0.1l0.1,0.1c-0.1,0-0.1,0-0.2,0c0,0,0,0.1,0,0.1c0,0.1,0,0.1,0,0.2h-0.1c0,0,0,0,0,0c0,0,0-0.1,0-0.1
			s0,0,0-0.1c0,0,0-0.1-0.1-0.1s-0.1-0.1-0.1-0.2c0,0,0,0.1,0,0.1c0,0.1,0,0.1,0.1,0.1c0,0,0.1,0.1,0.1,0.2c-0.1,0-0.1,0-0.1,0
			s0,0-0.1-0.1v0.1c0,0-0.1,0-0.1,0c0,0,0,0,0,0.1c0,0,0.1,0,0.1,0s0.1,0,0.1,0c0.1,0.1,0.1,0.1,0.1,0.2s0,0.1,0,0.2
			c-0.1,0-0.1,0-0.1-0.1c0-0.1,0-0.1-0.1-0.1c0,0-0.1,0-0.1,0c0.2,0,0.2,0,0.2,0.1c0,0.1,0,0.1,0.1,0.1c0,0,0,0,0,0c0,0,0,0,0,0
			c0,0,0,0.1,0.1,0.1l-0.2,0.3v0l-0.1,0.1l0.2,0.1l-0.2,0.1c0,0,0,0,0,0c0,0,0,0,0,0c0,0,0,0,0,0h0l0,0.1l-0.1,0.2L68.1,11L68,11.2
			c0,0,0.1,0.1,0.1,0.1c0,0,0.1,0,0.1,0.1L68,11.4l0.2,0.1v-0.2c0,0,0.1,0.1,0.1,0.1c0,0,0.1,0,0.2,0c0,0,0.1-0.1,0.1-0.1
			c0,0,0,0,0-0.1c0,0,0-0.1,0-0.2l-0.2-0.2c0.1,0,0.1-0.1,0.2-0.1l-0.1-0.1l0.1-0.1l-0.2-0.1c0.1-0.1,0.1-0.1,0.2-0.1
			s0.1-0.1,0.2-0.1c0,0-0.1,0-0.1,0c0,0-0.1,0-0.1,0c0-0.1,0-0.1,0-0.2c0,0,0.1,0,0.2-0.1c0,0,0,0.1,0,0.1c0,0,0,0.1,0,0.1l0.1,0.1
			l0.2-0.1c0,0,0.1,0.1,0.1,0.1c0,0,0.1,0,0.1,0c0,0,0.1,0,0.1,0l-0.1-0.2c-0.1,0-0.1,0-0.1-0.1c0,0,0-0.1,0-0.1c0,0,0.1,0,0.1,0
			s0.1,0,0.1,0.1h0.1c0,0,0,0,0,0c0,0,0,0,0,0c0,0,0-0.1,0.1-0.1c0,0,0,0,0.1,0c0,0-0.1-0.1-0.1-0.1c0,0,0-0.1,0-0.1l-0.1,0.1
			l0.1,0.1c0,0-0.1,0-0.1,0c0,0,0,0,0-0.1h-0.1c-0.1,0-0.1,0-0.1,0s0-0.1-0.1-0.1c0.1,0,0.1-0.1,0.1-0.1c0,0,0,0,0.1-0.1
			c0,0,0,0.1,0,0.1c0,0,0,0,0.1,0c0,0,0-0.1,0-0.1c0,0,0,0,0-0.1V9.5c0.1,0,0.1,0,0.2-0.1s0.1-0.1,0.1-0.1c0,0,0,0,0,0
			c0,0,0,0.1-0.1,0.1c0-0.1,0-0.2,0-0.2C69.4,9.1,69.3,9.1,69.2,9.1C69.3,9,69.3,9,69.3,8.9c0,0,0-0.1,0.1-0.1c0,0,0,0,0,0
			c0,0,0,0-0.1-0.1c0,0.1,0,0.2,0,0.2S69.3,9,69.2,9.1z M68,9.4v0.3L68,9.8l0,0c0,0,0.1-0.1,0.1-0.1c0,0,0.1,0,0.1-0.1L68,9.4z
			 M68.2,12.5L68.2,12.5L68.2,12.5c0-0.1-0.1-0.1-0.1-0.1c0,0,0,0-0.1-0.1l0,0c0,0,0.1,0,0.1,0L68,12.5c0,0,0.1,0,0.1,0
			S68.1,12.5,68.2,12.5L68.2,12.5z M68,11.6C68,11.6,68.1,11.6,68,11.6C68.1,11.6,68.1,11.7,68,11.6c0.1,0.1,0.1,0.1,0.1,0.1
			c0,0,0,0,0,0L68,11.6z M68.1,10.4C68.1,10.4,68.1,10.5,68.1,10.4c0,0.1,0,0.1,0,0.1C68.1,10.6,68.1,10.5,68.1,10.4z M68.2,12
			C68.2,12,68.2,12,68.2,12L68.2,12C68.1,12,68.1,12,68.1,12c0,0,0,0,0,0L68.2,12z M68.3,11.7C68.3,11.6,68.3,11.6,68.3,11.7
			L68.3,11.7c-0.1,0-0.1,0-0.2,0c0,0,0,0,0,0.1C68.2,11.7,68.3,11.7,68.3,11.7z M68.3,11.2C68.3,11.2,68.3,11.2,68.3,11.2
			c0.1,0,0.1,0,0.1,0L68.3,11.2L68.3,11.2z M68.3,11.7C68.4,11.7,68.4,11.7,68.3,11.7c0.1,0,0.1,0,0.1,0c0,0,0,0,0,0c0,0,0,0,0,0
			C68.4,11.6,68.4,11.6,68.3,11.7C68.4,11.6,68.4,11.7,68.3,11.7z M68.7,11.1c0,0,0.1-0.1,0.2-0.2h-0.2c0-0.1,0-0.1,0.1-0.1
			s0.1,0,0.1,0c0,0,0,0,0.1-0.1c0,0,0-0.2,0-0.3c-0.1,0-0.1,0-0.1,0.1c0,0.1,0,0.1-0.1,0.1v-0.2c0,0-0.1,0.1-0.1,0.1
			s-0.1,0.1-0.1,0.2c0,0.1-0.1,0.2-0.1,0.3v0.1C68.5,11.1,68.6,11.1,68.7,11.1C68.6,11.1,68.6,11.2,68.7,11.1
			C68.6,11.2,68.6,11.2,68.7,11.1z M68.5,9.5C68.6,9.5,68.6,9.6,68.5,9.5C68.6,9.6,68.6,9.6,68.5,9.5c0.1,0.1,0.1,0.1,0.1,0
			C68.7,9.5,68.6,9.5,68.5,9.5z M68.7,11.1C68.6,11.1,68.6,11.1,68.7,11.1L68.6,11c0.1,0,0.1,0,0.1,0.1
			C68.7,11.1,68.7,11.1,68.7,11.1z M68.7,10.7h0.1l-0.1,0.2V10.7z M68.8,8.7c0,0,0,0.1,0,0.2C68.8,8.9,68.8,8.8,68.8,8.7z M68.9,8.6
			c0,0,0,0.1,0,0.2c0,0.1,0,0.2-0.1,0.2c0,0,0.1,0.1,0.1,0.1s0,0.1,0.1,0.1c0,0,0-0.1,0-0.1S69,9,69,9h0L69,8.9c0,0-0.1-0.1-0.1-0.1
			C68.9,8.7,68.9,8.7,68.9,8.6z M69,9.8c0,0.1,0,0.1,0,0.1c0,0,0.1,0,0.1,0c0,0-0.1,0.1-0.1,0.1c0,0-0.1,0.1-0.1,0.1l-0.1-0.1
			c0,0,0-0.1,0-0.1c0,0,0-0.1,0-0.1C68.9,9.9,68.9,9.9,69,9.8C68.9,9.8,68.9,9.8,69,9.8z M69,9C69,9,68.9,9.1,69,9
			C68.9,9,68.9,9,69,9C68.9,9,68.9,9,69,9z M68.9,9.6C68.9,9.6,69,9.6,68.9,9.6C69,9.7,69,9.7,69.1,9.7c0,0,0.1,0,0.1,0.1L69,9.8
			L68.9,9.6L68.9,9.6z M68.9,11.3L68.9,11.3c0.1-0.1,0-0.1,0-0.1V11.3z M69.5,10C69.4,10,69.4,10,69.5,10C69.5,10,69.5,10,69.5,10z
			 M69.8,9.1c-0.1,0-0.2,0-0.2,0v0C69.6,9.1,69.7,9.1,69.8,9.1C69.8,9.1,69.8,9.1,69.8,9.1z M69.7,9.5L69.7,9.5l-0.1,0c0,0,0,0,0,0
			C69.6,9.5,69.7,9.5,69.7,9.5z M69.7,9.2L69.7,9.2C69.7,9.2,69.6,9.2,69.7,9.2L69.7,9.2C69.7,9.3,69.7,9.3,69.7,9.2z M69.8,9.8
			C69.8,9.8,69.7,9.9,69.8,9.8l0,0.2C69.8,10,69.8,10,69.8,9.8L69.8,9.8z"/>
	</g>
</g>
<g>
	<path class="st1" d="M65.7,20l-0.3,0.1l0.6,1.2l0.1,0.2l0,0l0-0.2l0.3-1.4l-0.3,0l0-0.3l0.9-0.1l0,0.3l-0.2,0.1L66.3,22L66,22
		l-1-1.9l-0.2,0l0-0.3l0.9-0.1L65.7,20z"/>
	<path class="st1" d="M67.9,21.8l-0.4,0l-0.1-0.4l0.4,0L67.9,21.8z"/>
	<path class="st1" d="M69.9,21.6c0-0.1,0-0.1,0-0.2c0,0,0-0.1,0-0.1c-0.1,0.1-0.2,0.2-0.3,0.3c-0.1,0.1-0.2,0.1-0.4,0.1
		c-0.2,0-0.4,0-0.6-0.1s-0.2-0.3-0.2-0.5c0-0.2,0-0.4,0.2-0.5c0.2-0.1,0.4-0.2,0.7-0.3l0.4-0.1l0-0.3c0-0.1-0.1-0.2-0.2-0.3
		c-0.1-0.1-0.2-0.1-0.4-0.1c-0.1,0-0.2,0-0.3,0.1c-0.1,0-0.1,0.1-0.2,0.1l0,0.2l-0.3,0l-0.1-0.4c0.1-0.1,0.2-0.2,0.4-0.2
		s0.3-0.1,0.5-0.1c0.3,0,0.5,0,0.7,0.1c0.2,0.1,0.3,0.3,0.3,0.5l0.1,1.1c0,0,0,0.1,0,0.1c0,0,0,0.1,0,0.1l0.2,0l0,0.3L69.9,21.6z
		 M69.2,21.4c0.1,0,0.3-0.1,0.4-0.1c0.1-0.1,0.2-0.2,0.2-0.3l0-0.4l-0.4,0.1c-0.2,0-0.3,0.1-0.4,0.2c-0.1,0.1-0.1,0.2-0.1,0.3
		c0,0.1,0.1,0.2,0.1,0.2C68.9,21.4,69,21.4,69.2,21.4z"/>
	<path class="st1" d="M70.4,18.5l0-0.3l0.8-0.1l0.4,3l0.4,0l0,0.3l-1.1,0.1l0-0.3l0.3-0.1l-0.3-2.6L70.4,18.5z"/>
	<path class="st1" d="M72.1,21.9l0.3-0.1l-0.3-2.5l-0.4,0l0-0.3l0.7-0.1l0.1,0.3c0.1-0.1,0.1-0.2,0.2-0.3s0.2-0.1,0.4-0.1
		c0.3,0,0.5,0.1,0.7,0.3c0.2,0.2,0.3,0.5,0.3,0.9l0,0c0,0.3,0,0.6-0.1,0.8c-0.1,0.2-0.3,0.3-0.6,0.4c-0.1,0-0.3,0-0.4,0
		c-0.1,0-0.2-0.1-0.3-0.2l0.1,0.8l0.3,0l0,0.3l-1.1,0.1L72.1,21.9z M73.8,20c0-0.3-0.1-0.5-0.2-0.6s-0.3-0.2-0.5-0.2
		c-0.1,0-0.2,0.1-0.3,0.1c-0.1,0.1-0.1,0.1-0.2,0.2l0.1,1.1c0.1,0.1,0.1,0.2,0.2,0.2c0.1,0,0.2,0.1,0.3,0c0.2,0,0.3-0.1,0.4-0.3
		C73.8,20.5,73.8,20.3,73.8,20L73.8,20z"/>
	<path class="st1" d="M74.6,20.8l0.3-0.1L74.7,18l-0.4,0l0-0.3l0.8-0.1l0.2,1.3c0.1-0.1,0.2-0.2,0.3-0.3c0.1-0.1,0.2-0.1,0.4-0.1
		c0.2,0,0.4,0,0.6,0.2c0.2,0.1,0.2,0.3,0.3,0.7l0.1,1.1l0.4,0l0,0.3l-1.1,0.1l0-0.3l0.3-0.1l-0.1-1.1c0-0.2-0.1-0.3-0.2-0.4
		c-0.1-0.1-0.2-0.1-0.4-0.1c-0.1,0-0.2,0.1-0.3,0.1c-0.1,0.1-0.2,0.1-0.2,0.2l0.2,1.4l0.4,0l0,0.3L74.7,21L74.6,20.8z"/>
	<path class="st1" d="M79,20.5c0-0.1,0-0.1,0-0.2c0,0,0-0.1,0-0.1c-0.1,0.1-0.2,0.2-0.3,0.3c-0.1,0.1-0.2,0.1-0.4,0.1
		c-0.2,0-0.4,0-0.6-0.1c-0.1-0.1-0.2-0.3-0.2-0.5c0-0.2,0-0.4,0.2-0.5c0.2-0.1,0.4-0.2,0.7-0.3l0.4-0.1l0-0.3c0-0.1-0.1-0.2-0.2-0.3
		s-0.2-0.1-0.4-0.1c-0.1,0-0.2,0-0.3,0.1c-0.1,0-0.1,0.1-0.2,0.1l0,0.2l-0.3,0l-0.1-0.4c0.1-0.1,0.2-0.2,0.4-0.2
		c0.1-0.1,0.3-0.1,0.5-0.1c0.3,0,0.5,0,0.7,0.1c0.2,0.1,0.3,0.3,0.3,0.5l0.1,1.1c0,0,0,0.1,0,0.1c0,0,0,0.1,0,0.1l0.2,0l0,0.3
		L79,20.5z M78.3,20.3c0.1,0,0.3-0.1,0.4-0.1c0.1-0.1,0.2-0.2,0.2-0.3l0-0.4l-0.4,0.1c-0.2,0-0.3,0.1-0.4,0.2
		c-0.1,0.1-0.1,0.2-0.1,0.3c0,0.1,0.1,0.2,0.1,0.2C78.1,20.3,78.2,20.3,78.3,20.3z"/>
</g>
</svg>
