<?xml version="1.0" encoding="iso-8859-1"?>
<!-- Generator: Adobe Illustrator 19.0.0, SVG Export Plug-In . SVG Version: 6.00 Build 0)  -->
<svg version="1.1" id="Capa_1" xmlns="http://www.w3.org/2000/svg" xmlns:xlink="http://www.w3.org/1999/xlink" x="0px" y="0px"
	 viewBox="0 0 512 512" style="enable-background:new 0 0 512 512;" xml:space="preserve">
<g>
	<g>
		<path d="M385.44,176.141V0h-30.152v176.141h-35.386L262,115.966l-0.469,0.451v-1.05H114.736v47.731h-12.001v30.152h12.001v65.801
			h57.092v127.762L100.998,512h34.644l66.338-117.249v-98.24h33.309L300.971,512h31.522l-70.963-232.809V158.964l45.541,47.329
			h48.216V512h30.152V206.293h25.562v-30.152H385.44z M171.828,228.899h-26.94V193.25h26.94V228.899z M171.828,163.098h-26.94
			v-17.579h26.94V163.098z M231.378,266.359h-29.399v-120.84h29.399V266.359z"/>
	</g>
</g>
<g>
	<g>
		<path d="M216.679,0c-27.203,0-49.335,22.131-49.335,49.334c0,27.204,22.132,49.335,49.335,49.335s49.334-22.131,49.334-49.334
			C266.013,22.131,243.882,0,216.679,0z M216.679,68.517c-10.577,0-19.183-8.605-19.183-19.182c0-10.578,8.606-19.183,19.183-19.183
			c10.577,0,19.182,8.605,19.182,19.183S227.256,68.517,216.679,68.517z"/>
	</g>
</g>
<g>
</g>
<g>
</g>
<g>
</g>
<g>
</g>
<g>
</g>
<g>
</g>
<g>
</g>
<g>
</g>
<g>
</g>
<g>
</g>
<g>
</g>
<g>
</g>
<g>
</g>
<g>
</g>
<g>
</g>
</svg>
