<?xml version="1.0" encoding="utf-8"?>
<!-- Generator: Adobe Illustrator 19.2.1, SVG Export Plug-In . SVG Version: 6.00 Build 0)  -->
<svg version="1.1" id="Layer_1" xmlns="http://www.w3.org/2000/svg" xmlns:xlink="http://www.w3.org/1999/xlink" x="0px" y="0px"
	 viewBox="0 0 25 25" style="enable-background:new 0 0 25 25;" xml:space="preserve">
<style type="text/css">
	.st0{fill:#EEF5FC;}
	.st1{fill:#90D2EA;}
	.st2{opacity:0.1;}
	.st3{fill:#000064;}
	.st4{opacity:0.5;}
	.st5{fill:#FFFFFF;}
	.st6{fill:#2E4369;}
</style>
<g>
	<g>
		<g>
			<path class="st0" d="M15.2,14V5.2c0-1.5-1.2-2.7-2.7-2.7c-1.5,0-2.7,1.2-2.7,2.7V14c-1.2,0.8-2,2.2-2,3.8c0,2.6,2.1,4.7,4.7,4.7
				s4.7-2.1,4.7-4.7C17.2,16.2,16.4,14.8,15.2,14z"/>
		</g>
		<g>
			<path class="st1" d="M13.5,16.1v-1.9c0-0.6-0.4-1-1-1c-0.6,0-1,0.4-1,1v1.9c-0.6,0.3-1,1-1,1.7c0,1.1,0.9,2,2,2s2-0.9,2-2
				C14.5,17.1,14.1,16.4,13.5,16.1z"/>
		</g>
		<g class="st2">
			<path class="st3" d="M13.5,21.2c-2.6,0-4.7-2.1-4.7-4.7c0-0.7,0.2-1.5,0.5-2.1c-0.9,0.9-1.5,2.1-1.5,3.4c0,2.6,2.1,4.7,4.7,4.7
				c1.8,0,3.4-1.1,4.2-2.6C15.8,20.7,14.7,21.2,13.5,21.2z"/>
		</g>
		<g class="st2">
			<g>
				<path class="st3" d="M13.2,18.8c-1.1,0-2-0.9-2-2c0-0.2,0-0.4,0.1-0.6c-0.5,0.4-0.7,0.9-0.7,1.6c0,1.1,0.9,2,2,2
					c0.9,0,1.7-0.6,1.9-1.4C14.1,18.7,13.6,18.8,13.2,18.8z"/>
			</g>
		</g>
		<g class="st4">
			<path class="st5" d="M13.5,13.2L13.5,13.2c-0.6,0-1-0.4-1-1V4.8c0-0.5,0.4-1,1-1l0,0c0.6,0,1,0.5,1,1v7.3
				C14.5,12.7,14.1,13.2,13.5,13.2z"/>
		</g>
		<g class="st4">
			<circle class="st5" cx="14.2" cy="16.8" r="1.7"/>
		</g>
	</g>
	<g>
		<g>
			<path class="st6" d="M12.5,22.8c-2.8,0-5-2.2-5-5c0-1.6,0.7-3.1,2-4V5.2c0-1.7,1.3-3,3-3c1.7,0,3,1.3,3,3v8.7c1.3,0.9,2,2.4,2,4
				C17.5,20.6,15.3,22.8,12.5,22.8z M12.5,2.8c-1.3,0-2.3,1-2.3,2.3V14c0,0.1-0.1,0.2-0.1,0.3c-1.2,0.8-1.9,2.1-1.9,3.6
				c0,2.4,1.9,4.3,4.3,4.3c2.4,0,4.3-1.9,4.3-4.3c0-1.4-0.7-2.7-1.9-3.6c-0.1-0.1-0.1-0.2-0.1-0.3V5.2C14.8,3.9,13.8,2.8,12.5,2.8z"
				/>
		</g>
		<g>
			<path class="st6" d="M12.5,20.2c-1.3,0-2.3-1-2.3-2.3c0-0.8,0.4-1.5,1-1.9v-1.8c0-0.7,0.6-1.3,1.3-1.3c0.7,0,1.3,0.6,1.3,1.3v1.8
				c0.6,0.4,1,1.2,1,1.9C14.8,19.1,13.8,20.2,12.5,20.2z M12.5,13.5c-0.4,0-0.7,0.3-0.7,0.7v1.9c0,0.1-0.1,0.2-0.2,0.3
				c-0.5,0.3-0.8,0.9-0.8,1.4c0,0.9,0.7,1.7,1.7,1.7s1.7-0.7,1.7-1.7c0-0.6-0.3-1.1-0.8-1.4c-0.1-0.1-0.2-0.2-0.2-0.3v-1.9
				C13.2,13.8,12.9,13.5,12.5,13.5z"/>
		</g>
	</g>
</g>
</svg>
