<?xml version="1.0" encoding="utf-8"?>
<!-- Generator: Adobe Illustrator 19.2.1, SVG Export Plug-In . SVG Version: 6.00 Build 0)  -->
<svg version="1.1" id="Layer_1" xmlns="http://www.w3.org/2000/svg" xmlns:xlink="http://www.w3.org/1999/xlink" x="0px" y="0px"
	 viewBox="0 0 25 25" style="enable-background:new 0 0 25 25;" xml:space="preserve">
<style type="text/css">
	.st0{fill:#BCD7F2;}
	.st1{fill:#2E4369;}
</style>
<g>
	<g>
		<polygon class="st0" points="18.8,8.4 18.8,6.7 10.9,6.7 10.9,20.7 12.5,20.7 12.5,14.4 16.6,14.4 16.6,12.8 12.5,12.8 12.5,8.4 
					"/>
	</g>
	<g>
		<path class="st1" d="M12.5,21h-1.6c-0.2,0-0.3-0.1-0.3-0.3v-14c0-0.2,0.1-0.3,0.3-0.3h8c0.2,0,0.3,0.1,0.3,0.3v1.6
			c0,0.2-0.1,0.3-0.3,0.3h-6v3.8h3.8c0.2,0,0.3,0.1,0.3,0.3v1.6c0,0.2-0.1,0.3-0.3,0.3h-3.8v6C12.8,20.9,12.7,21,12.5,21z
			 M11.1,20.5h1.1v-6c0-0.2,0.1-0.3,0.3-0.3h3.8V13h-3.8c-0.2,0-0.3-0.1-0.3-0.3V8.4c0-0.2,0.1-0.3,0.3-0.3h6V7h-7.4V20.5z"/>
	</g>
	<g>
		<path class="st1" d="M7.8,7.8C6.8,7.8,5.9,7,5.9,5.9C5.9,4.9,6.8,4,7.8,4s1.9,0.9,1.9,1.9C9.8,7,8.9,7.8,7.8,7.8z M7.8,4.5
			c-0.8,0-1.4,0.6-1.4,1.4s0.6,1.4,1.4,1.4s1.4-0.6,1.4-1.4S8.6,4.5,7.8,4.5z"/>
	</g>
</g>
</svg>
