<?xml version="1.0" encoding="utf-8"?>
<!-- Generator: Adobe Illustrator 19.2.1, SVG Export Plug-In . SVG Version: 6.00 Build 0)  -->
<svg version="1.1" id="Layer_1" xmlns="http://www.w3.org/2000/svg" xmlns:xlink="http://www.w3.org/1999/xlink" x="0px" y="0px"
	 viewBox="0 0 25 25" style="enable-background:new 0 0 25 25;" xml:space="preserve">
<style type="text/css">
	.st0{fill:#E6F0FA;}
	.st1{opacity:0.15;}
	.st2{fill:#000064;}
	.st3{fill:#2E4369;}
</style>
<g>
	<g>
		<g>
			<g>
				<path class="st0" d="M22.3,13.2h-3c-0.4,0-0.8-0.3-0.8-0.8c0-0.4,0.3-0.8,0.8-0.8h0c0.8,0,1.5-0.7,1.5-1.5s-0.7-1.5-1.5-1.5H9.5
					C9.1,8.7,8.7,8.4,8.7,8c0-0.4,0.3-0.7,0.7-0.7h0c0.8,0,1.5-0.7,1.5-1.5c0-0.8-0.7-1.5-1.5-1.5h-6C2.7,4.2,2,4.9,2,5.7
					c0,0.8,0.7,1.5,1.5,1.5h2.3c0.4,0,0.7,0.3,0.7,0.7c0,0.4-0.3,0.8-0.8,0.8H4.2c-0.8,0-1.5,0.7-1.5,1.5s0.7,1.5,1.5,1.5h9.4
					c0.4,0,0.8,0.3,0.8,0.8c0,0.4-0.3,0.8-0.8,0.8H2.7c-0.8,0-1.5,0.7-1.5,1.5c0,0.8,0.7,1.5,1.5,1.5h19.5c0.8,0,1.5-0.7,1.5-1.5
					C23.8,13.9,23.1,13.2,22.3,13.2z"/>
			</g>
			<g>
				<path class="st0" d="M14,7.2h2.2c0.8,0,1.5-0.7,1.5-1.5c0-0.8-0.7-1.5-1.5-1.5H14c-0.8,0-1.5,0.7-1.5,1.5
					C12.5,6.6,13.2,7.2,14,7.2z"/>
			</g>
			<g>
				<path class="st0" d="M20.8,7.2h0.4c0.8,0,1.5-0.7,1.5-1.5c0-0.8-0.7-1.5-1.5-1.5h-0.4c-0.8,0-1.5,0.7-1.5,1.5
					C19.3,6.6,19.9,7.2,20.8,7.2z"/>
			</g>
			<g>
				<path class="st0" d="M19.2,17.8h-6c-0.8,0-1.5,0.7-1.5,1.5c0,0.8,0.7,1.5,1.5,1.5h6c0.8,0,1.5-0.7,1.5-1.5
					C20.7,18.4,20.1,17.8,19.2,17.8z"/>
			</g>
			<g>
				<path class="st0" d="M8.7,17.8H7.6c-0.8,0-1.5,0.7-1.5,1.5c0,0.8,0.7,1.5,1.5,1.5h1.1c0.8,0,1.5-0.7,1.5-1.5
					C10.2,18.4,9.6,17.8,8.7,17.8z"/>
			</g>
		</g>
		<g class="st1">
			<path class="st2" d="M19.3,11.7c0.8,0,1.5-0.7,1.5-1.5c0-0.2,0-0.4-0.1-0.6c-0.2,0.5-0.8,0.9-1.4,0.9h0c-0.4,0-0.8,0.3-0.8,0.8
				c0,0.2,0.1,0.4,0.3,0.6C18.9,11.8,19.1,11.7,19.3,11.7L19.3,11.7z"/>
		</g>
		<g class="st1">
			<path class="st2" d="M20.8,7.2h0.4c0.8,0,1.5-0.7,1.5-1.5c0-0.2,0-0.4-0.1-0.6c-0.2,0.5-0.8,0.9-1.4,0.9h-0.4
				c-0.6,0-1.2-0.4-1.4-0.9c-0.1,0.2-0.1,0.4-0.1,0.6C19.3,6.6,19.9,7.2,20.8,7.2z"/>
		</g>
		<g class="st1">
			<path class="st2" d="M13.6,10.6H4.2c-0.6,0-1.2-0.4-1.4-0.9C2.8,9.9,2.7,10,2.7,10.2c0,0.8,0.7,1.5,1.5,1.5h9.4
				c0.2,0,0.4,0.1,0.5,0.2c0.2-0.1,0.3-0.3,0.3-0.6C14.4,11,14,10.6,13.6,10.6z"/>
		</g>
		<g class="st1">
			<path class="st2" d="M14,7.2h2.2c0.8,0,1.5-0.7,1.5-1.5c0-0.2,0-0.4-0.1-0.6c-0.2,0.5-0.8,0.9-1.4,0.9H14c-0.6,0-1.2-0.4-1.4-0.9
				c-0.1,0.2-0.1,0.4-0.1,0.6C12.5,6.6,13.2,7.2,14,7.2z"/>
		</g>
		<g class="st1">
			<path class="st2" d="M9.5,6.1L9.5,6.1c-0.4,0-0.7,0.3-0.7,0.7c0,0.2,0.1,0.4,0.3,0.6c0.1-0.1,0.3-0.2,0.5-0.2h0
				c0.8,0,1.5-0.7,1.5-1.5c0-0.2,0-0.4-0.1-0.6C10.7,5.7,10.1,6.1,9.5,6.1z"/>
		</g>
		<g class="st1">
			<path class="st2" d="M19.2,19.6h-6c-0.6,0-1.2-0.4-1.4-0.9c-0.1,0.2-0.1,0.4-0.1,0.6c0,0.8,0.7,1.5,1.5,1.5h6
				c0.8,0,1.5-0.7,1.5-1.5c0-0.2,0-0.4-0.1-0.6C20.4,19.2,19.9,19.6,19.2,19.6z"/>
		</g>
		<g class="st1">
			<path class="st2" d="M22.3,15.1H2.7c-0.6,0-1.2-0.4-1.4-0.9c-0.1,0.2-0.1,0.4-0.1,0.6c0,0.8,0.7,1.5,1.5,1.5h19.5
				c0.8,0,1.5-0.7,1.5-1.5c0-0.2,0-0.4-0.1-0.6C23.4,14.7,22.9,15.1,22.3,15.1z"/>
		</g>
		<g class="st1">
			<path class="st2" d="M8.7,19.6H7.6c-0.6,0-1.2-0.4-1.4-0.9c-0.1,0.2-0.1,0.4-0.1,0.6c0,0.8,0.7,1.5,1.5,1.5h1.1
				c0.8,0,1.5-0.7,1.5-1.5c0-0.2,0-0.4-0.1-0.6C9.9,19.2,9.4,19.6,8.7,19.6z"/>
		</g>
		<g class="st1">
			<path class="st2" d="M3.5,7.2h2.3c0.2,0,0.4,0.1,0.5,0.2c0.2-0.1,0.3-0.3,0.3-0.6c0-0.4-0.3-0.7-0.7-0.7H3.5
				c-0.6,0-1.2-0.4-1.4-0.9C2,5.4,2,5.5,2,5.7C2,6.6,2.7,7.2,3.5,7.2z"/>
		</g>
	</g>
	<g>
		<g>
			<path class="st3" d="M22.3,16.6H2.7c-1,0-1.9-0.8-1.9-1.9s0.8-1.9,1.9-1.9h10.9c0.2,0,0.4-0.2,0.4-0.4c0-0.2-0.2-0.4-0.4-0.4H4.2
				c-1,0-1.9-0.8-1.9-1.9s0.8-1.9,1.9-1.9h1.5C6,8.4,6.1,8.2,6.1,8c0-0.2-0.2-0.4-0.4-0.4H3.5c-1,0-1.9-0.8-1.9-1.9s0.8-1.9,1.9-1.9
				h6c1,0,1.9,0.8,1.9,1.9s-0.8,1.9-1.9,1.9C9.3,7.6,9.1,7.8,9.1,8c0,0.2,0.2,0.4,0.4,0.4h9.8c1,0,1.9,0.8,1.9,1.9
				c0,1-0.8,1.9-1.9,1.9l0,0c0,0,0,0,0,0c-0.2,0-0.4,0.2-0.4,0.4c0,0.2,0.2,0.4,0.4,0.4h3c1,0,1.9,0.8,1.9,1.9S23.3,16.6,22.3,16.6z
				 M2.7,13.6c-0.6,0-1.1,0.5-1.1,1.1c0,0.6,0.5,1.1,1.1,1.1h19.5c0.6,0,1.1-0.5,1.1-1.1c0-0.6-0.5-1.1-1.1-1.1h-3
				c-0.6,0-1.1-0.5-1.1-1.1c0-0.6,0.5-1.1,1.1-1.1c0,0,0,0,0,0c0.6,0,1.1-0.5,1.1-1.1s-0.5-1.1-1.1-1.1H9.5C8.9,9.1,8.4,8.6,8.4,8
				c0-0.6,0.5-1.1,1.1-1.1c0.6,0,1.1-0.5,1.1-1.1s-0.5-1.1-1.1-1.1h-6c-0.6,0-1.1,0.5-1.1,1.1s0.5,1.1,1.1,1.1h2.3
				c0.6,0,1.1,0.5,1.1,1.1c0,0.6-0.5,1.1-1.1,1.1H4.2c-0.6,0-1.1,0.5-1.1,1.1s0.5,1.1,1.1,1.1h9.4c0.6,0,1.1,0.5,1.1,1.1
				c0,0.6-0.5,1.1-1.1,1.1H2.7z"/>
		</g>
		<g>
			<path class="st3" d="M16.2,7.6H14c-1,0-1.9-0.8-1.9-1.9S13,3.9,14,3.9h2.2c1,0,1.9,0.8,1.9,1.9S17.3,7.6,16.2,7.6z M14,4.6
				c-0.6,0-1.1,0.5-1.1,1.1s0.5,1.1,1.1,1.1h2.2c0.6,0,1.1-0.5,1.1-1.1s-0.5-1.1-1.1-1.1H14z"/>
		</g>
		<g>
			<path class="st3" d="M21.1,7.6h-0.4c-1,0-1.9-0.8-1.9-1.9s0.8-1.9,1.9-1.9h0.4c1,0,1.9,0.8,1.9,1.9S22.2,7.6,21.1,7.6z M20.8,4.6
				c-0.6,0-1.1,0.5-1.1,1.1s0.5,1.1,1.1,1.1h0.4c0.6,0,1.1-0.5,1.1-1.1s-0.5-1.1-1.1-1.1H20.8z"/>
		</g>
		<g>
			<path class="st3" d="M19.2,21.1h-6c-1,0-1.9-0.8-1.9-1.9c0-1,0.8-1.9,1.9-1.9h6c1,0,1.9,0.8,1.9,1.9
				C21.1,20.3,20.3,21.1,19.2,21.1z M13.2,18.1c-0.6,0-1.1,0.5-1.1,1.1c0,0.6,0.5,1.1,1.1,1.1h6c0.6,0,1.1-0.5,1.1-1.1
				c0-0.6-0.5-1.1-1.1-1.1H13.2z"/>
		</g>
		<g>
			<path class="st3" d="M8.7,21.1H7.6c-1,0-1.9-0.8-1.9-1.9c0-1,0.8-1.9,1.9-1.9h1.1c1,0,1.9,0.8,1.9,1.9
				C10.6,20.3,9.8,21.1,8.7,21.1z M7.6,18.1c-0.6,0-1.1,0.5-1.1,1.1c0,0.6,0.5,1.1,1.1,1.1h1.1c0.6,0,1.1-0.5,1.1-1.1
				c0-0.6-0.5-1.1-1.1-1.1H7.6z"/>
		</g>
	</g>
</g>
</svg>
