<?xml version="1.0" encoding="utf-8"?>
<!-- Generator: Adobe Illustrator 19.2.1, SVG Export Plug-In . SVG Version: 6.00 Build 0)  -->
<svg version="1.1" id="Layer_1" xmlns="http://www.w3.org/2000/svg" xmlns:xlink="http://www.w3.org/1999/xlink" x="0px" y="0px"
	 viewBox="0 0 25 25" style="enable-background:new 0 0 25 25;" xml:space="preserve">
<style type="text/css">
	.st0{fill:#EEF5FC;}
	.st1{fill:#ED5448;}
	.st2{opacity:0.1;}
	.st3{fill:#000064;}
	.st4{opacity:0.5;}
	.st5{fill:#FFFFFF;}
	.st6{fill:#2E4369;}
</style>
<g>
	<g>
		<g>
			<path class="st0" d="M15.2,14V5c0-1.5-1.2-2.7-2.7-2.7C11,2.2,9.8,3.4,9.8,5V14c-1.2,0.9-2.1,2.3-2.1,3.9c0,2.7,2.1,4.8,4.8,4.8
				s4.8-2.1,4.8-4.8C17.3,16.4,16.5,14.9,15.2,14z"/>
		</g>
		<g>
			<path class="st1" d="M13.5,16.2V5.3c0-0.6-0.5-1-1-1c-0.6,0-1,0.5-1,1v10.9c-0.6,0.4-1,1-1,1.8c0,1.1,0.9,2.1,2.1,2.1
				s2.1-0.9,2.1-2.1C14.6,17.2,14.1,16.6,13.5,16.2z"/>
		</g>
		<g class="st2">
			<path class="st3" d="M13.5,21.4c-2.7,0-4.8-2.1-4.8-4.8c0-0.8,0.2-1.5,0.5-2.1c-0.9,0.9-1.5,2.1-1.5,3.5c0,2.7,2.1,4.8,4.8,4.8
				c1.9,0,3.5-1.1,4.3-2.7C15.9,20.9,14.8,21.4,13.5,21.4z"/>
		</g>
		<g class="st2">
			<g>
				<path class="st3" d="M13.2,19c-1.1,0-2.1-0.9-2.1-2.1c0-0.2,0-0.4,0.1-0.6c-0.5,0.4-0.8,1-0.8,1.6c0,1.1,0.9,2.1,2.1,2.1
					c0.9,0,1.7-0.6,2-1.5C14.1,18.8,13.7,19,13.2,19z"/>
			</g>
		</g>
		<g class="st4">
			<path class="st5" d="M13.5,13.2L13.5,13.2c-0.6,0-1-0.5-1-1V4.6c0-0.6,0.5-1,1-1l0,0c0.6,0,1,0.5,1,1v7.5
				C14.6,12.7,14.1,13.2,13.5,13.2z"/>
		</g>
		<g class="st4">
			<circle class="st5" cx="14.2" cy="17" r="1.7"/>
		</g>
	</g>
	<g>
		<g>
			<path class="st6" d="M12.5,23.1c-2.8,0-5.1-2.3-5.1-5.1c0-1.6,0.8-3.1,2.1-4.1V5c0-1.7,1.4-3.1,3.1-3.1c1.7,0,3.1,1.4,3.1,3.1
				v8.9c1.3,1,2.1,2.5,2.1,4.1C17.6,20.8,15.3,23.1,12.5,23.1z M12.5,2.6c-1.3,0-2.4,1.1-2.4,2.4V14c0,0.1-0.1,0.2-0.1,0.3
				C8.8,15.2,8,16.5,8,18c0,2.5,2,4.5,4.5,4.5c2.5,0,4.5-2,4.5-4.5c0-1.5-0.7-2.8-1.9-3.7c-0.1-0.1-0.1-0.2-0.1-0.3V5
				C14.9,3.6,13.8,2.6,12.5,2.6z"/>
		</g>
		<g>
			<path class="st6" d="M12.5,20.4c-1.3,0-2.4-1.1-2.4-2.4c0-0.8,0.4-1.5,1-2V5.3c0-0.8,0.6-1.4,1.4-1.4c0.8,0,1.4,0.6,1.4,1.4V16
				c0.6,0.4,1,1.2,1,2C14.9,19.3,13.8,20.4,12.5,20.4z M12.5,4.6c-0.4,0-0.7,0.3-0.7,0.7v10.9c0,0.1-0.1,0.2-0.2,0.3
				c-0.5,0.3-0.9,0.9-0.9,1.5c0,0.9,0.8,1.7,1.7,1.7s1.7-0.8,1.7-1.7c0-0.6-0.3-1.2-0.9-1.5c-0.1-0.1-0.2-0.2-0.2-0.3V5.3
				C13.2,4.9,12.9,4.6,12.5,4.6z"/>
		</g>
	</g>
</g>
</svg>
