<?xml version="1.0" encoding="utf-8"?>
<!-- Generator: Adobe Illustrator 19.2.1, SVG Export Plug-In . SVG Version: 6.00 Build 0)  -->
<svg version="1.1" id="Layer_1" xmlns="http://www.w3.org/2000/svg" xmlns:xlink="http://www.w3.org/1999/xlink" x="0px" y="0px"
	 viewBox="0 0 25 25" style="enable-background:new 0 0 25 25;" xml:space="preserve">
<style type="text/css">
	.st0{fill:#EEF5FC;}
	.st1{fill:#FFA94C;}
	.st2{opacity:0.1;}
	.st3{fill:#000064;}
	.st4{opacity:0.5;}
	.st5{fill:#FFFFFF;}
	.st6{fill:#2E4369;}
</style>
<g>
	<g>
		<g>
			<path class="st0" d="M15.3,14.1V4.9c0-1.5-1.2-2.8-2.8-2.8c-1.5,0-2.8,1.2-2.8,2.8v9.2c-1.3,0.9-2.1,2.3-2.1,4
				c0,2.7,2.2,4.8,4.8,4.8s4.8-2.2,4.8-4.8C17.3,16.4,16.5,14.9,15.3,14.1z"/>
		</g>
		<g>
			<path class="st1" d="M13.5,16.2v-5.1c0-0.6-0.5-1-1-1c-0.6,0-1,0.5-1,1v5.1c-0.6,0.4-1,1-1,1.8c0,1.1,0.9,2.1,2.1,2.1
				s2.1-0.9,2.1-2.1C14.6,17.3,14.2,16.6,13.5,16.2z"/>
		</g>
		<g class="st2">
			<path class="st3" d="M13.5,21.5c-2.7,0-4.8-2.2-4.8-4.8c0-0.8,0.2-1.5,0.5-2.2c-1,0.9-1.6,2.1-1.6,3.5c0,2.7,2.2,4.8,4.8,4.8
				c1.9,0,3.5-1.1,4.3-2.7C16,21,14.8,21.5,13.5,21.5z"/>
		</g>
		<g class="st2">
			<g>
				<path class="st3" d="M13.2,19.1c-1.1,0-2.1-0.9-2.1-2.1c0-0.2,0-0.4,0.1-0.6c-0.5,0.4-0.8,1-0.8,1.6c0,1.1,0.9,2.1,2.1,2.1
					c0.9,0,1.7-0.6,2-1.5C14.1,18.9,13.7,19.1,13.2,19.1z"/>
			</g>
		</g>
		<g class="st4">
			<path class="st5" d="M13.5,13.2L13.5,13.2c-0.6,0-1-0.5-1-1V4.5c0-0.6,0.5-1,1-1l0,0c0.6,0,1,0.5,1,1v7.6
				C14.6,12.7,14.1,13.2,13.5,13.2z"/>
		</g>
		<g class="st4">
			<circle class="st5" cx="14.2" cy="17" r="1.7"/>
		</g>
	</g>
	<g>
		<g>
			<path class="st6" d="M12.5,23.2c-2.9,0-5.2-2.3-5.2-5.2c0-1.6,0.8-3.2,2.1-4.2v-9c0-1.7,1.4-3.1,3.1-3.1c1.7,0,3.1,1.4,3.1,3.1v9
				c1.3,1,2.1,2.5,2.1,4.2C17.7,20.9,15.4,23.2,12.5,23.2z M12.5,2.5c-1.3,0-2.4,1.1-2.4,2.4v9.2c0,0.1-0.1,0.2-0.1,0.3
				C8.7,15.2,8,16.6,8,18c0,2.5,2,4.5,4.5,4.5c2.5,0,4.5-2,4.5-4.5c0-1.5-0.7-2.8-1.9-3.7c-0.1-0.1-0.1-0.2-0.1-0.3V4.9
				C14.9,3.5,13.8,2.5,12.5,2.5z"/>
		</g>
		<g>
			<path class="st6" d="M12.5,20.5c-1.3,0-2.4-1.1-2.4-2.4c0-0.8,0.4-1.5,1-2v-4.9c0-0.8,0.6-1.4,1.4-1.4c0.8,0,1.4,0.6,1.4,1.4v4.9
				c0.6,0.5,1,1.2,1,2C14.9,19.4,13.8,20.5,12.5,20.5z M12.5,10.4c-0.4,0-0.7,0.3-0.7,0.7v5.1c0,0.1-0.1,0.2-0.2,0.3
				c-0.5,0.3-0.9,0.9-0.9,1.5c0,1,0.8,1.7,1.7,1.7s1.7-0.8,1.7-1.7c0-0.6-0.3-1.2-0.9-1.5c-0.1-0.1-0.2-0.2-0.2-0.3v-5.1
				C13.2,10.7,12.9,10.4,12.5,10.4z"/>
		</g>
	</g>
</g>
</svg>
