<?xml version="1.0" encoding="utf-8"?>
<!-- Generator: Adobe Illustrator 19.2.1, SVG Export Plug-In . SVG Version: 6.00 Build 0)  -->
<svg version="1.1" id="Layer_1" xmlns="http://www.w3.org/2000/svg" xmlns:xlink="http://www.w3.org/1999/xlink" x="0px" y="0px"
	 viewBox="0 0 25 25" style="enable-background:new 0 0 25 25;" xml:space="preserve">
<style type="text/css">
	.st0{fill:#E6F0FA;}
	.st1{opacity:0.15;}
	.st2{fill:#000064;}
	.st3{fill:#2E4369;}
</style>
<g>
	<g>
		<g>
			<circle class="st0" cx="12.5" cy="12.4" r="10.1"/>
		</g>
		<g class="st1">
			<g>
				<path class="st2" d="M16.9,18.4c-6.5,0-12-4.7-13.2-10.9C2.9,9,2.4,10.6,2.4,12.4c0,5.6,4.5,10.1,10.1,10.1
					c3.6,0,6.7-1.9,8.5-4.7C19.7,18.2,18.3,18.4,16.9,18.4z"/>
			</g>
		</g>
		<g class="st1">
			<g>
				<circle class="st2" cx="13.8" cy="5.7" r="0.7"/>
			</g>
		</g>
		<g class="st1">
			<g>
				<circle class="st2" cx="17.9" cy="9.7" r="0.7"/>
			</g>
		</g>
		<g class="st1">
			<g>
				<circle class="st2" cx="7.8" cy="11.7" r="0.7"/>
			</g>
		</g>
	</g>
	<g>
		<g>
			<path class="st3" d="M12.5,22.8c-5.7,0-10.4-4.7-10.4-10.4C2.1,6.7,6.8,2,12.5,2c5.7,0,10.4,4.7,10.4,10.4
				C22.9,18.1,18.2,22.8,12.5,22.8z M12.5,2.7c-5.4,0-9.7,4.4-9.7,9.7c0,5.4,4.4,9.7,9.7,9.7c5.4,0,9.7-4.4,9.7-9.7
				C22.2,7,17.9,2.7,12.5,2.7z"/>
		</g>
		<g>
			<path class="st3" d="M13.8,6.7c-0.6,0-1-0.5-1-1s0.5-1,1-1s1,0.5,1,1S14.4,6.7,13.8,6.7z M13.8,5.4c-0.2,0-0.3,0.2-0.3,0.3
				c0,0.2,0.2,0.3,0.3,0.3s0.3-0.2,0.3-0.3C14.2,5.5,14,5.4,13.8,5.4z"/>
		</g>
		<g>
			<path class="st3" d="M17.9,10.7c-0.6,0-1-0.5-1-1s0.5-1,1-1c0.6,0,1,0.5,1,1S18.4,10.7,17.9,10.7z M17.9,9.4
				c-0.2,0-0.3,0.2-0.3,0.3s0.2,0.3,0.3,0.3c0.2,0,0.3-0.2,0.3-0.3S18.1,9.4,17.9,9.4z"/>
		</g>
		<g>
			<path class="st3" d="M7.8,12.7c-0.6,0-1-0.5-1-1c0-0.6,0.5-1,1-1s1,0.5,1,1C8.8,12.3,8.4,12.7,7.8,12.7z M7.8,11.4
				c-0.2,0-0.3,0.2-0.3,0.3c0,0.2,0.2,0.3,0.3,0.3s0.3-0.2,0.3-0.3C8.2,11.5,8,11.4,7.8,11.4z"/>
		</g>
	</g>
</g>
</svg>
