<?xml version="1.0" encoding="utf-8"?>
<!-- Generator: Adobe Illustrator 19.2.1, SVG Export Plug-In . SVG Version: 6.00 Build 0)  -->
<svg version="1.1" id="Layer_1" xmlns="http://www.w3.org/2000/svg" xmlns:xlink="http://www.w3.org/1999/xlink" x="0px" y="0px"
	 viewBox="0 0 25 25" style="enable-background:new 0 0 25 25;" xml:space="preserve">
<style type="text/css">
	.st0{fill:#CDF0F0;}
	.st1{opacity:0.1;}
	.st2{fill:#000064;}
	.st3{opacity:0.5;}
	.st4{fill:#FFFFFF;}
	.st5{fill:#2E4369;}
</style>
<g>
	<g>
		<g>
			<path class="st0" d="M18.3,5.6c-0.1,0-0.1,0-0.2,0c-0.9-2-3-3.5-5.3-3.5c-2.9,0-5.4,2.2-5.8,5C6.7,7.1,6.4,7,6,7
				c-2.1,0-3.8,1.7-3.8,3.8c0,2.1,1.7,3.8,3.8,3.8h12.3c0,0,0,0,0,0c2.5,0,4.5-2,4.5-4.5C22.8,7.6,20.8,5.6,18.3,5.6z"/>
		</g>
		<g class="st1">
			<g>
				<path class="st2" d="M7,8.4C7,8,7,7.6,7.1,7.2l-0.1,0C6.7,7.1,6.3,7,6,7c-2.1,0-3.8,1.7-3.8,3.8c0,2.1,1.7,3.8,3.8,3.8h7.2
					C9.8,14.6,7,11.8,7,8.4z"/>
			</g>
		</g>
		<g class="st3">
			<path class="st4" d="M22.8,10.1c0-2.5-2-4.5-4.5-4.5c-0.1,0-0.1,0-0.2,0c-0.8-1.7-2.3-3-4.2-3.3c-0.1,0-0.3,0-0.4-0.1
				c0,0-0.1,0-0.1,0c-0.2,0-0.4,0-0.6,0c-0.4,0-0.7,0-1.1,0.1C10.7,2.5,9.7,3,8.9,3.7c0.5-0.1,1-0.2,1.5-0.2c2.3,0,4.4,1,5.8,2.6
				c-0.6,0.3-1,0.7-1.4,1.2C15.4,7.1,16,7,16.6,7c2.8,0,5.2,2.3,5.2,5.2c0,0.3,0,0.6-0.1,0.9C22.4,12.2,22.8,11.2,22.8,10.1z"/>
		</g>
	</g>
	<g>
		<g>
			<path class="st5" d="M18.3,14.9H6c-2.3,0-4.1-1.9-4.1-4.1c0-2.3,1.9-4.1,4.1-4.1c0.3,0,0.6,0,0.8,0.1c0.6-2.8,3.1-4.9,6-4.9
				c2.4,0,4.5,1.3,5.5,3.4c2.6,0,4.8,2.2,4.8,4.8C23.2,12.7,21,14.9,18.3,14.9z M6,7.3c-1.9,0-3.4,1.5-3.4,3.4
				c0,1.9,1.5,3.4,3.4,3.4h12.4c2.3,0,4.1-1.8,4.1-4.1c0-2.3-1.9-4.1-4.1-4.1c0,0-0.1,0-0.1,0l-0.1,0c-0.1,0-0.3-0.1-0.3-0.2
				c-0.9-2-2.9-3.2-5-3.2c-2.7,0-5,2-5.4,4.7c0,0.1-0.1,0.2-0.2,0.2C7.2,7.5,7.1,7.5,7,7.5C6.6,7.4,6.3,7.3,6,7.3z"/>
		</g>
		<g>
			<path class="st5" d="M17.3,20.7c-0.2,0-0.3-0.2-0.3-0.3V17c0-0.2,0.2-0.3,0.3-0.3s0.3,0.2,0.3,0.3v3.4
				C17.7,20.6,17.5,20.7,17.3,20.7z"/>
		</g>
		<g>
			<path class="st5" d="M13.9,18.7c-0.2,0-0.3-0.2-0.3-0.3V17c0-0.2,0.2-0.3,0.3-0.3s0.3,0.2,0.3,0.3v1.4
				C14.2,18.5,14.1,18.7,13.9,18.7z"/>
		</g>
		<g>
			<path class="st5" d="M10.4,20.7c-0.2,0-0.3-0.2-0.3-0.3V17c0-0.2,0.2-0.3,0.3-0.3s0.3,0.2,0.3,0.3v3.4
				C10.8,20.6,10.6,20.7,10.4,20.7z"/>
		</g>
		<g>
			<path class="st5" d="M7,19.4c-0.2,0-0.3-0.2-0.3-0.3V17c0-0.2,0.2-0.3,0.3-0.3s0.3,0.2,0.3,0.3V19C7.3,19.2,7.2,19.4,7,19.4z"/>
		</g>
		<g>
			<path class="st5" d="M7,21.8c-0.2,0-0.3-0.2-0.3-0.3v-0.7c0-0.2,0.2-0.3,0.3-0.3s0.3,0.2,0.3,0.3v0.7C7.3,21.6,7.2,21.8,7,21.8z"
				/>
		</g>
		<g>
			<path class="st5" d="M10.4,23.2c-0.2,0-0.3-0.2-0.3-0.3v-0.7c0-0.2,0.2-0.3,0.3-0.3s0.3,0.2,0.3,0.3v0.7
				C10.8,23,10.6,23.2,10.4,23.2z"/>
		</g>
		<g>
			<path class="st5" d="M13.9,21.1c-0.2,0-0.3-0.2-0.3-0.3v-0.7c0-0.2,0.2-0.3,0.3-0.3s0.3,0.2,0.3,0.3v0.7
				C14.2,20.9,14.1,21.1,13.9,21.1z"/>
		</g>
		<g>
			<path class="st5" d="M17.3,23.2c-0.2,0-0.3-0.2-0.3-0.3v-0.7c0-0.2,0.2-0.3,0.3-0.3s0.3,0.2,0.3,0.3v0.7
				C17.7,23,17.5,23.2,17.3,23.2z"/>
		</g>
	</g>
</g>
</svg>
