<?xml version="1.0" encoding="utf-8"?>
<!-- Generator: Adobe Illustrator 19.2.1, SVG Export Plug-In . SVG Version: 6.00 Build 0)  -->
<svg version="1.1" id="Layer_1" xmlns="http://www.w3.org/2000/svg" xmlns:xlink="http://www.w3.org/1999/xlink" x="0px" y="0px"
	 viewBox="0 0 25 25" style="enable-background:new 0 0 25 25;" xml:space="preserve">
<style type="text/css">
	.st0{fill:#CDF0F0;}
	.st1{opacity:0.1;}
	.st2{fill:#000064;}
	.st3{opacity:0.5;}
	.st4{fill:#FFFFFF;}
	.st5{fill:#2E4369;}
</style>
<g>
	<g>
		<g>
			<path class="st0" d="M18.4,5.9c-0.1,0-0.1,0-0.2,0c-0.9-2-3-3.5-5.4-3.5c-3,0-5.4,2.2-5.8,5C6.7,7.4,6.3,7.3,5.9,7.3
				c-2.1,0-3.8,1.7-3.8,3.8c0,2.1,1.7,3.8,3.8,3.8h12.4c0,0,0,0,0,0c2.5,0,4.5-2,4.5-4.5C22.9,7.9,20.9,5.9,18.4,5.9z"/>
		</g>
		<g class="st1">
			<g>
				<path class="st2" d="M7,8.7c0-0.4,0-0.8,0.1-1.2L7,7.5C6.7,7.4,6.3,7.3,5.9,7.3c-2.1,0-3.8,1.7-3.8,3.8c0,2.1,1.7,3.8,3.8,3.8
					h7.3C9.8,14.9,7,12.1,7,8.7z"/>
			</g>
		</g>
		<g class="st3">
			<path class="st4" d="M22.9,10.4c0-2.5-2-4.5-4.5-4.5c-0.1,0-0.1,0-0.2,0c-0.8-1.7-2.4-3-4.3-3.4c-0.1,0-0.3,0-0.4-0.1
				c0,0-0.1,0-0.1,0c-0.2,0-0.4,0-0.6,0c-0.4,0-0.7,0-1.1,0.1C10.7,2.8,9.7,3.3,8.9,4c0.5-0.1,1-0.2,1.5-0.2c2.3,0,4.4,1,5.9,2.6
				c-0.6,0.3-1.1,0.7-1.4,1.2c0.6-0.2,1.2-0.3,1.8-0.3c2.9,0,5.2,2.3,5.2,5.2c0,0.3,0,0.6-0.1,0.9C22.5,12.6,22.9,11.6,22.9,10.4z"
				/>
		</g>
	</g>
	<g>
		<g>
			<g>
				<path class="st5" d="M7.7,19.4c-0.2,0-0.3-0.2-0.3-0.3v-1.4c0-0.2,0.2-0.3,0.3-0.3c0.2,0,0.3,0.2,0.3,0.3v1.4
					C8,19.3,7.8,19.4,7.7,19.4z"/>
			</g>
			<g>
				<path class="st5" d="M8.3,18.7H7c-0.2,0-0.3-0.2-0.3-0.3C6.6,18.2,6.8,18,7,18h1.4c0.2,0,0.3,0.2,0.3,0.3
					C8.7,18.6,8.5,18.7,8.3,18.7z"/>
			</g>
		</g>
		<g>
			<g>
				<path class="st5" d="M13.2,18.7h-1.4c-0.2,0-0.3-0.2-0.3-0.3c0-0.2,0.2-0.3,0.3-0.3h1.4c0.2,0,0.3,0.2,0.3,0.3
					C13.5,18.6,13.4,18.7,13.2,18.7z"/>
			</g>
			<g>
				<path class="st5" d="M12.5,19.4c-0.2,0-0.3-0.2-0.3-0.3l0-1.4c0-0.2,0.2-0.3,0.3-0.3l0,0c0.2,0,0.3,0.2,0.3,0.3l0,1.4
					C12.8,19.3,12.7,19.4,12.5,19.4L12.5,19.4z"/>
			</g>
		</g>
		<g>
			<g>
				<path class="st5" d="M10.8,22.2H9.4C9.2,22.2,9,22,9,21.8c0-0.2,0.2-0.3,0.3-0.3h1.4c0.2,0,0.3,0.2,0.3,0.3
					C11.1,22,11,22.2,10.8,22.2z"/>
			</g>
			<g>
				<path class="st5" d="M10.1,22.9c-0.2,0-0.3-0.2-0.3-0.3l0-1.4c0-0.2,0.2-0.3,0.3-0.3h0c0.2,0,0.3,0.2,0.3,0.3l0,1.4
					C10.4,22.7,10.3,22.9,10.1,22.9L10.1,22.9z"/>
			</g>
		</g>
		<g>
			<g>
				<path class="st5" d="M15.3,22.9c-0.2,0-0.3-0.2-0.3-0.3v-1.4c0-0.2,0.2-0.3,0.3-0.3s0.3,0.2,0.3,0.3v1.4
					C15.6,22.7,15.5,22.9,15.3,22.9z"/>
			</g>
			<g>
				<path class="st5" d="M14.6,22.2c-0.2,0-0.3-0.2-0.3-0.3c0-0.2,0.2-0.3,0.3-0.3l1.4,0c0,0,0,0,0,0c0.2,0,0.3,0.2,0.3,0.3
					c0,0.2-0.2,0.3-0.3,0.3L14.6,22.2C14.6,22.2,14.6,22.2,14.6,22.2z"/>
			</g>
		</g>
		<g>
			<g>
				<path class="st5" d="M17.3,19.4c-0.2,0-0.3-0.2-0.3-0.3v-1.4c0-0.2,0.2-0.3,0.3-0.3c0.2,0,0.3,0.2,0.3,0.3v1.4
					C17.7,19.3,17.5,19.4,17.3,19.4z"/>
			</g>
			<g>
				<path class="st5" d="M16.7,18.7c-0.2,0-0.3-0.2-0.3-0.3c0-0.2,0.2-0.3,0.3-0.3l1.4,0c0,0,0,0,0,0c0.2,0,0.3,0.2,0.3,0.3
					c0,0.2-0.2,0.3-0.3,0.3L16.7,18.7C16.7,18.7,16.7,18.7,16.7,18.7z"/>
			</g>
		</g>
		<g>
			<path class="st5" d="M18.4,15.3C18.4,15.3,18.3,15.3,18.4,15.3l-12.5,0c-2.3,0-4.2-1.9-4.2-4.2C1.8,8.8,3.6,7,5.9,7
				c0.3,0,0.6,0,0.8,0.1c0.6-2.8,3.2-4.9,6.1-4.9c2.4,0,4.5,1.4,5.6,3.5c2.7,0,4.8,2.2,4.8,4.8C23.2,13.1,21.1,15.3,18.4,15.3z
				 M5.9,7.7c-1.9,0-3.5,1.6-3.5,3.5c0,1.9,1.6,3.5,3.5,3.5h12.4c0,0,0,0,0,0c2.3,0,4.1-1.9,4.1-4.2c0-2.3-1.9-4.2-4.2-4.2
				c0,0-0.1,0-0.1,0l-0.1,0c-0.1,0-0.3-0.1-0.3-0.2c-0.9-2-2.9-3.3-5-3.3c-2.7,0-5.1,2-5.5,4.7c0,0.1-0.1,0.2-0.2,0.2
				C7.1,7.8,7,7.8,6.9,7.8C6.6,7.7,6.3,7.7,5.9,7.7z"/>
		</g>
	</g>
</g>
</svg>
