<?xml version="1.0" encoding="utf-8"?>
<!-- Generator: Adobe Illustrator 19.2.1, SVG Export Plug-In . SVG Version: 6.00 Build 0)  -->
<svg version="1.1" id="Layer_1" xmlns="http://www.w3.org/2000/svg" xmlns:xlink="http://www.w3.org/1999/xlink" x="0px" y="0px"
	 viewBox="0 0 25 25" style="enable-background:new 0 0 25 25;" xml:space="preserve">
<style type="text/css">
	.st0{fill:#CDF0F0;}
	.st1{opacity:0.1;}
	.st2{fill:#000064;}
	.st3{opacity:0.5;}
	.st4{fill:#FFFFFF;}
	.st5{fill:#FFFF66;}
	.st6{fill:#2E4369;}
</style>
<g>
	<g>
		<g>
			<path class="st0" d="M18.4,6.7c-0.1,0-0.1,0-0.2,0c-0.9-2.1-3-3.5-5.4-3.5c-3,0-5.4,2.2-5.9,5.1C6.6,8.2,6.2,8.1,5.9,8.1
				C3.7,8.1,2,9.9,2,12c0,2.1,1.7,3.8,3.8,3.8h12.5c0,0,0,0,0,0c2.5,0,4.5-2,4.5-4.5C23,8.8,21,6.7,18.4,6.7z"/>
		</g>
		<g class="st1">
			<g>
				<path class="st2" d="M6.9,9.5c0-0.4,0-0.8,0.1-1.2L7,8.3C6.6,8.2,6.2,8.1,5.9,8.1C3.7,8.1,2,9.9,2,12c0,2.1,1.7,3.8,3.8,3.8h7.3
					C9.7,15.8,6.9,13,6.9,9.5z"/>
			</g>
		</g>
		<g class="st3">
			<path class="st4" d="M23,11.3c0-2.5-2-4.5-4.5-4.5c-0.1,0-0.1,0-0.2,0c-0.8-1.7-2.4-3-4.3-3.4c-0.1,0-0.3,0-0.4-0.1
				c0,0-0.1,0-0.1,0c-0.2,0-0.4,0-0.6,0c-0.4,0-0.7,0-1.1,0.1c-1.1,0.2-2.1,0.7-2.9,1.5c0.5-0.1,1-0.2,1.5-0.2c2.4,0,4.5,1,5.9,2.6
				c-0.6,0.3-1.1,0.7-1.5,1.2c0.6-0.2,1.2-0.3,1.8-0.3c2.9,0,5.2,2.3,5.2,5.2c0,0.3,0,0.6-0.1,0.9C22.6,13.5,23,12.4,23,11.3z"/>
		</g>
		<g>
			<polygon class="st5" points="14.2,11.3 9,16.9 11.6,16.9 10.5,21.8 16,15.8 13.4,15.8 			"/>
		</g>
	</g>
	<g>
		<g>
			<path class="st6" d="M18.4,16.2H16c-0.2,0-0.3-0.2-0.3-0.3s0.2-0.3,0.3-0.3h2.4c2.3,0,4.2-1.9,4.2-4.2c0-2.3-1.9-4.2-4.2-4.2
				c0,0-0.1,0-0.1,0l-0.1,0c-0.1,0-0.3-0.1-0.3-0.2c-0.9-2-2.9-3.3-5.1-3.3c-2.7,0-5.1,2-5.5,4.8c0,0.1-0.1,0.2-0.2,0.2
				C7.1,8.6,7,8.7,6.9,8.6c-0.3-0.1-0.7-0.2-1-0.2C3.9,8.5,2.4,10,2.4,12c0,1.9,1.6,3.5,3.5,3.5H10c0.2,0,0.3,0.2,0.3,0.3
				s-0.2,0.3-0.3,0.3H5.9c-2.3,0-4.2-1.9-4.2-4.2c0-2.3,1.9-4.2,4.2-4.2c0.3,0,0.6,0,0.8,0.1c0.6-2.9,3.2-5,6.1-5
				c2.4,0,4.6,1.4,5.6,3.5c2.7,0,4.9,2.2,4.9,4.9C23.3,14,21.1,16.2,18.4,16.2z"/>
		</g>
		<g>
			<path class="st6" d="M10.5,22.1c-0.1,0-0.1,0-0.2,0c-0.1-0.1-0.2-0.2-0.2-0.4l1-4.5H9c-0.1,0-0.3-0.1-0.3-0.2
				c-0.1-0.1,0-0.3,0.1-0.4l5.2-5.6c0.1-0.1,0.3-0.1,0.4-0.1c0.1,0.1,0.2,0.2,0.2,0.4l-0.7,4.1H16c0.1,0,0.3,0.1,0.3,0.2
				c0.1,0.1,0,0.3-0.1,0.4L10.7,22C10.7,22.1,10.6,22.1,10.5,22.1z M9.8,16.5h1.8c0.1,0,0.2,0,0.3,0.1c0.1,0.1,0.1,0.2,0.1,0.3
				l-0.8,3.6l4.1-4.4h-1.8c-0.1,0-0.2,0-0.3-0.1c-0.1-0.1-0.1-0.2-0.1-0.3l0.5-3.4L9.8,16.5z"/>
		</g>
		<g>
			<path class="st6" d="M4.7,21.8c-0.1,0-0.2,0-0.2-0.1c-0.2-0.1-0.2-0.3-0.1-0.5l2.2-2.8c0.1-0.2,0.3-0.2,0.5-0.1
				c0.2,0.1,0.2,0.3,0.1,0.5L5,21.7C4.9,21.7,4.8,21.8,4.7,21.8z"/>
		</g>
		<g>
			<path class="st6" d="M15.9,21.8c-0.1,0-0.2,0-0.2-0.1c-0.2-0.1-0.2-0.3-0.1-0.5l2.2-2.8c0.1-0.2,0.3-0.2,0.5-0.1
				c0.2,0.1,0.2,0.3,0.1,0.5l-2.2,2.8C16.1,21.7,16,21.8,15.9,21.8z"/>
		</g>
	</g>
</g>
</svg>
