<?xml version="1.0" encoding="utf-8"?>
<!-- Generator: Adobe Illustrator 19.2.1, SVG Export Plug-In . SVG Version: 6.00 Build 0)  -->
<svg version="1.1" id="Layer_1" xmlns="http://www.w3.org/2000/svg" xmlns:xlink="http://www.w3.org/1999/xlink" x="0px" y="0px"
	 viewBox="0 0 25 25" style="enable-background:new 0 0 25 25;" xml:space="preserve">
<style type="text/css">
	.st0{fill:#FFCC00;}
	.st1{opacity:0.5;}
	.st2{fill:#FFFFFF;}
	.st3{fill:#2E4369;}
</style>
<g>
	<g>
		<g>
			<circle class="st0" cx="12.5" cy="12.5" r="4.9"/>
		</g>
		<g class="st1">
			<path class="st2" d="M12.5,7.6c-1.6,0-3.1,0.8-4,2c0.8-0.6,1.8-1,2.9-1c2.7,0,4.9,2.2,4.9,4.9c0,1.1-0.4,2.1-1,2.9
				c1.2-0.9,2-2.3,2-4C17.4,9.8,15.2,7.6,12.5,7.6z"/>
		</g>
	</g>
	<g>
		<g>
			<path class="st3" d="M12.5,7.9c-0.2,0-0.4-0.2-0.4-0.4V1.9c0-0.2,0.2-0.4,0.4-0.4s0.4,0.2,0.4,0.4v5.6
				C12.9,7.8,12.7,7.9,12.5,7.9z"/>
		</g>
		<g>
			<path class="st3" d="M12.5,23.4c-0.2,0-0.4-0.2-0.4-0.4v-5.6c0-0.2,0.2-0.4,0.4-0.4s0.4,0.2,0.4,0.4v5.6
				C12.9,23.2,12.7,23.4,12.5,23.4z"/>
		</g>
		<g>
			<path class="st3" d="M23.1,12.9h-5.6c-0.2,0-0.4-0.2-0.4-0.4c0-0.2,0.2-0.4,0.4-0.4h5.6c0.2,0,0.4,0.2,0.4,0.4
				C23.4,12.7,23.2,12.9,23.1,12.9z"/>
		</g>
		<g>
			<path class="st3" d="M7.6,12.9H1.9c-0.2,0-0.4-0.2-0.4-0.4c0-0.2,0.2-0.4,0.4-0.4h5.6c0.2,0,0.4,0.2,0.4,0.4
				C7.9,12.7,7.8,12.9,7.6,12.9z"/>
		</g>
		<g>
			<path class="st3" d="M9,9.4c-0.1,0-0.2,0-0.2-0.1l-4-4c-0.1-0.1-0.1-0.4,0-0.5c0.1-0.1,0.4-0.1,0.5,0l4,4c0.1,0.1,0.1,0.4,0,0.5
				C9.2,9.3,9.1,9.4,9,9.4z"/>
		</g>
		<g>
			<path class="st3" d="M20,20.3c-0.1,0-0.2,0-0.2-0.1l-4-4c-0.1-0.1-0.1-0.4,0-0.5c0.1-0.1,0.4-0.1,0.5,0l4,4
				c0.1,0.1,0.1,0.4,0,0.5C20.1,20.3,20.1,20.3,20,20.3z"/>
		</g>
		<g>
			<path class="st3" d="M16,9.4c-0.1,0-0.2,0-0.2-0.1c-0.1-0.1-0.1-0.4,0-0.5l4-4c0.1-0.1,0.4-0.1,0.5,0c0.1,0.1,0.1,0.4,0,0.5l-4,4
				C16.2,9.3,16.1,9.4,16,9.4z"/>
		</g>
		<g>
			<path class="st3" d="M5,20.3c-0.1,0-0.2,0-0.2-0.1c-0.1-0.1-0.1-0.4,0-0.5l4-4c0.1-0.1,0.4-0.1,0.5,0c0.1,0.1,0.1,0.4,0,0.5l-4,4
				C5.2,20.3,5.1,20.3,5,20.3z"/>
		</g>
		<g>
			<path class="st3" d="M12.5,17.8c-2.9,0-5.3-2.4-5.3-5.3c0-2.9,2.4-5.3,5.3-5.3c2.9,0,5.3,2.4,5.3,5.3
				C17.8,15.4,15.4,17.8,12.5,17.8z M12.5,7.9c-2.5,0-4.6,2.1-4.6,4.6c0,2.5,2.1,4.6,4.6,4.6c2.5,0,4.6-2.1,4.6-4.6
				C17.1,10,15,7.9,12.5,7.9z"/>
		</g>
	</g>
</g>
</svg>
