<?xml version="1.0" encoding="utf-8"?>
<!-- Generator: Adobe Illustrator 19.2.1, SVG Export Plug-In . SVG Version: 6.00 Build 0)  -->
<svg version="1.1" id="Layer_1" xmlns="http://www.w3.org/2000/svg" xmlns:xlink="http://www.w3.org/1999/xlink" x="0px" y="0px"
	 viewBox="0 0 25 25" style="enable-background:new 0 0 25 25;" xml:space="preserve">
<style type="text/css">
	.st0{fill:#CDF0F0;}
	.st1{opacity:0.5;}
	.st2{fill:#FFFFFF;}
	.st3{fill:#2E4369;}
</style>
<g>
	<g>
		<g>
			<path class="st0" d="M21,15.3h-4.6c-0.8,0-1.4-0.6-1.4-1.4c0-0.8,0.6-1.4,1.4-1.4h2.5c1.6,0,2.8-1.3,2.8-2.8s-1.3-2.8-2.8-2.8
				c-0.9,0-1.6,0.4-2.1,1c0-0.1,0-0.2,0-0.3c0-2-1.6-3.5-3.5-3.5c-2,0-3.5,1.6-3.5,3.5c0,0.2,0,0.5,0.1,0.7H6.8c-2.7,0-5,2.2-5,5
				s2.2,5,5,5c1.4,0,2.4,0,3,0.9c0,0,0,0,0,0c0.4,1.1,1.4,2,2.7,2c1.5,0,2.7-1.2,2.8-2.7c1,0,1.6,0,2.1,0c0.7,0,1.3-0.1,2,0.6
				c0,0,0,0,0,0c0.4,0.4,0.9,0.6,1.5,0.6c1.2,0,2.1-1,2.1-2.1C23.1,16.3,22.2,15.3,21,15.3z"/>
		</g>
		<g class="st1">
			<path class="st2" d="M21,15.3c-0.6,0-1.2,0.3-1.6,0.7c0.1,0,0.1,0,0.2,0c1.6,0,2.8,1.3,2.8,2.8c0,0.1,0,0.1,0,0.2
				c0.4-0.4,0.7-1,0.7-1.6C23.1,16.3,22.2,15.3,21,15.3z"/>
		</g>
		<g class="st1">
			<path class="st2" d="M12.5,15.3c-0.9,0-1.7,0.4-2.2,1.1c0.2,0,0.3,0,0.5,0c2,0,3.5,1.6,3.5,3.5c0,0.2,0,0.3,0,0.5
				c0.7-0.5,1.1-1.3,1.1-2.2C15.3,16.6,14.1,15.3,12.5,15.3z"/>
		</g>
		<g class="st1">
			<path class="st2" d="M17.5,7.5c2,0,3.5,1.6,3.5,3.5c0,0.2,0,0.3,0,0.5c0.5-0.5,0.7-1.2,0.7-1.9c0-1.6-1.3-2.8-2.8-2.8
				c-0.7,0-1.4,0.3-1.9,0.7C17.1,7.5,17.3,7.5,17.5,7.5z"/>
		</g>
		<g class="st1">
			<path class="st2" d="M13.2,4c-1,0-2,0.4-2.6,1.1C10.9,5.1,11.2,5,11.4,5c2.4,0,4.3,1.9,4.3,4.3c0,0.3,0,0.6-0.1,0.8
				c0.7-0.6,1.1-1.6,1.1-2.6C16.8,5.6,15.2,4,13.2,4z"/>
		</g>
	</g>
	<g>
		<g>
			<path class="st3" d="M12.5,21.4c-0.2,0-0.4-0.2-0.4-0.4s0.2-0.4,0.4-0.4c1.4,0,2.5-1.1,2.5-2.5s-1.1-2.5-2.5-2.5H4
				c-1.4,0-2.5-1.1-2.5-2.5c0-1.4,1.1-2.5,2.5-2.5h9.2c1.8,0,3.2-1.4,3.2-3.2c0-1.8-1.4-3.2-3.2-3.2c-0.2,0-0.4-0.2-0.4-0.4
				s0.2-0.4,0.4-0.4c2.2,0,3.9,1.8,3.9,3.9c0,2.2-1.8,3.9-3.9,3.9H4c-1,0-1.8,0.8-1.8,1.8C2.2,14.2,3,15,4,15h8.5
				c1.8,0,3.2,1.4,3.2,3.2S14.3,21.4,12.5,21.4z"/>
		</g>
		<g>
			<path class="st3" d="M10.4,8.6H6.1c-0.2,0-0.4-0.2-0.4-0.4c0-0.2,0.2-0.4,0.4-0.4h4.3c0.6,0,1.1-0.5,1.1-1.1S11,5.8,10.4,5.8
				c-0.2,0-0.4-0.2-0.4-0.4c0-0.2,0.2-0.4,0.4-0.4c1,0,1.8,0.8,1.8,1.8S11.3,8.6,10.4,8.6z"/>
		</g>
		<g>
			<path class="st3" d="M18.9,12.9h-2.1c-0.2,0-0.4-0.2-0.4-0.4s0.2-0.4,0.4-0.4h2.1c1.4,0,2.5-1.1,2.5-2.5c0-1.4-1.1-2.5-2.5-2.5
				c-0.2,0-0.4-0.2-0.4-0.4c0-0.2,0.2-0.4,0.4-0.4c1.8,0,3.2,1.4,3.2,3.2C22.1,11.4,20.6,12.9,18.9,12.9z"/>
		</g>
		<g>
			<path class="st3" d="M21,20c-0.2,0-0.4-0.2-0.4-0.4c0-0.2,0.2-0.4,0.4-0.4c1,0,1.8-0.8,1.8-1.8c0-1-0.8-1.8-1.8-1.8h-4.3
				c-0.2,0-0.4-0.2-0.4-0.4s0.2-0.4,0.4-0.4H21c1.4,0,2.5,1.1,2.5,2.5C23.5,18.8,22.4,20,21,20z"/>
		</g>
	</g>
</g>
</svg>
